<svg width="78" height="77" viewBox="0 0 78 77" fill="none" xmlns="http://www.w3.org/2000/svg">
<g filter="url(#filter0_d_23_16888)">
<circle cx="38" cy="38" r="31" fill="black"/>
<circle cx="38" cy="38" r="32.5" stroke="white" stroke-width="3"/>
</g>
<path d="M37.5908 30.2461L34.6895 39.8213H40.3945L42.7148 47.748H32.5723L30.4551 54.8369H18L29.5195 22H35.1777L37.5908 30.2461Z" fill="white"/>
<path d="M58.5664 54.8369H45.833L36.2197 22H46.8496L58.5664 54.8369Z" fill="white"/>
<path d="M72 64C72 71.1797 66.1797 77 59 77C51.8203 77 46 71.1797 46 64C46 56.8203 51.8203 51 59 51C66.1797 51 72 56.8203 72 64Z" fill="white"/>
<path fill-rule="evenodd" clip-rule="evenodd" d="M58.062 52.1647C55.2806 52.3783 52.6886 53.5602 50.7055 55.5189C48.9349 57.2678 47.8526 59.2471 47.3258 61.6997C47.0834 62.8284 47.063 65.0395 47.2847 66.1594C47.777 68.6467 48.837 70.613 50.655 72.4117C52.4422 74.18 54.1758 75.1264 56.6141 75.6649C57.7586 75.9177 60.0265 75.9403 61.1743 75.7105C63.579 75.2288 65.5966 74.1502 67.347 72.4106C69.4334 70.3371 70.5943 67.849 70.8296 64.9472C71.1827 60.5917 69.1185 56.4303 65.4074 54.0158C63.2812 52.6325 60.6391 51.9667 58.062 52.1647ZM62.0779 55.0999C62.0779 55.4276 62.0735 55.4323 61.7361 55.4579L61.3943 55.4837L60.6599 57.168L59.2989 57.2169V58.0522H60.7347C61.8899 58.0522 62.2232 58.0788 62.44 58.1884C62.7514 58.3457 63.0697 58.6203 63.1819 58.8283C63.2247 58.9077 63.4107 60.022 63.5952 61.3043C63.8983 63.4107 63.9305 63.7991 63.9299 65.3283C63.929 67.7736 63.725 68.5368 62.9542 68.9775C62.6279 69.1641 62.5968 69.1656 58.9797 69.167C55.516 69.1683 55.3179 69.1601 55.0086 69.0023C54.2288 68.6045 54.1465 68.2943 54.1025 65.5893L54.067 63.3997L54.4023 61.1486C54.7752 58.6458 54.8144 58.5366 55.4523 58.2279C55.7757 58.0713 55.9679 58.0522 57.2202 58.0522H58.6252V57.2101L57.2357 57.2085L56.4964 55.4416H56.1713C55.8481 55.4416 55.8461 55.4396 55.8461 55.1047V54.7679H62.0779V55.0999ZM57.2778 55.5234C57.2778 55.5684 57.3708 55.8158 57.4847 56.073L57.6915 56.5408L60.2409 56.4943L60.4436 55.9957C60.5551 55.7215 60.6463 55.4847 60.6463 55.4694C60.6463 55.4541 59.8884 55.4416 58.962 55.4416C57.9283 55.4416 57.2778 55.4732 57.2778 55.5234ZM58.5793 59.0169C58.1468 59.4492 58.4269 60.1079 59.0217 60.0571C59.6483 60.0035 59.8407 59.2166 59.296 58.935C58.9608 58.7616 58.8182 58.7779 58.5793 59.0169ZM55.4023 60.8944C55.312 60.9945 55.2209 61.4434 55.1187 62.293C54.9714 63.5176 54.9717 63.5468 55.1286 63.6615C55.2598 63.7575 55.9634 63.7787 59.0072 63.7787C62.5084 63.7787 62.7337 63.7697 62.8655 63.624C62.9961 63.4797 62.9942 63.3853 62.8378 62.2134C62.7109 61.2632 62.6351 60.932 62.5263 60.8523C62.4169 60.7721 61.5651 60.747 58.959 60.747C55.8053 60.747 55.5249 60.7587 55.4023 60.8944ZM55.7554 66.3828C55.4807 66.6576 55.4426 66.9423 55.6317 67.308C55.8761 67.7807 56.5017 67.8467 56.906 67.4424C57.3699 66.9785 56.9852 66.1367 56.3093 66.1367C56.0815 66.1367 55.9377 66.2006 55.7554 66.3828ZM61.1113 66.3262C60.9808 66.4396 60.8733 66.6415 60.8434 66.8292C60.7988 67.1089 60.8266 67.176 61.101 67.4504C61.3755 67.7249 61.4425 67.7526 61.7223 67.7081C62.138 67.6419 62.4148 67.3212 62.4148 66.9056C62.4148 66.2457 61.6138 65.8896 61.1113 66.3262ZM56.7725 69.6427C56.7725 69.6721 56.5006 70.2216 56.1683 70.8638L55.564 72.0316H54.7366C54.2815 72.0316 53.9092 72.0079 53.9092 71.9791C53.9092 71.9501 54.3339 71.4006 54.853 70.758L55.7968 69.5894H56.2846C56.5529 69.5894 56.7725 69.6134 56.7725 69.6427ZM63.1095 70.7253C63.6074 71.3449 64.0148 71.8923 64.0148 71.9417C64.0148 71.999 63.7275 72.0316 63.2216 72.0316H62.4283L61.8321 70.9018C61.5041 70.2804 61.2358 69.7309 61.2358 69.6807C61.2358 69.6252 61.4255 69.5912 61.72 69.5941L62.2042 69.5986L63.1095 70.7253Z" fill="#0067AF"/>
<rect x="4.87256" y="11.5656" width="2.5" height="17.25" transform="rotate(-20.5605 4.87256 11.5656)" fill="black"/>
<rect x="12.8312" y="8.58032" width="2.5" height="17.25" transform="rotate(-20.5605 12.8312 8.58032)" fill="black"/>
<rect x="8.4436" y="26.7806" width="2.5" height="15" transform="rotate(-110.561 8.4436 26.7806)" fill="black"/>
<rect x="7.12659" y="23.2695" width="2.5" height="15" transform="rotate(-110.561 7.12659 23.2695)" fill="black"/>
<rect x="5.80957" y="19.7584" width="2.5" height="15" transform="rotate(-110.561 5.80957 19.7584)" fill="black"/>
<rect x="4.49268" y="16.2472" width="2.5" height="15" transform="rotate(-110.561 4.49268 16.2472)" fill="black"/>
<rect x="68.8083" y="38.106" width="2.5" height="17.25" transform="rotate(-155.276 68.8083 38.106)" fill="black"/>
<rect x="61.0875" y="34.5508" width="2.5" height="17.25" transform="rotate(-155.276 61.0875 34.5508)" fill="black"/>
<rect x="77.1079" y="24.8633" width="2.5" height="15" transform="rotate(114.724 77.1079 24.8633)" fill="black"/>
<rect x="75.5394" y="28.2695" width="2.5" height="15" transform="rotate(114.724 75.5394 28.2695)" fill="black"/>
<rect x="73.9709" y="31.6758" width="2.5" height="15" transform="rotate(114.724 73.9709 31.6758)" fill="black"/>
<rect x="72.4026" y="35.082" width="2.5" height="15" transform="rotate(114.724 72.4026 35.082)" fill="black"/>
<rect x="21.9979" y="59.5932" width="2.5" height="17.25" transform="rotate(-2.61545 21.9979 59.5932)" fill="black"/>
<rect x="30.489" y="59.2053" width="2.5" height="17.25" transform="rotate(-2.61545 30.489 59.2053)" fill="black"/>
<rect x="20.7073" y="75.1683" width="2.5" height="15" transform="rotate(-92.6155 20.7073 75.1683)" fill="black"/>
<rect x="20.5361" y="71.4222" width="2.5" height="15" transform="rotate(-92.6155 20.5361 71.4222)" fill="black"/>
<rect x="20.365" y="67.6761" width="2.5" height="15" transform="rotate(-92.6155 20.365 67.6761)" fill="black"/>
<rect x="20.194" y="63.93" width="2.5" height="15" transform="rotate(-92.6155 20.194 63.93)" fill="black"/>
<defs>
<filter id="filter0_d_23_16888" x="0" y="0" width="76" height="76" filterUnits="userSpaceOnUse" color-interpolation-filters="sRGB">
<feFlood flood-opacity="0" result="BackgroundImageFix"/>
<feColorMatrix in="SourceAlpha" type="matrix" values="0 0 0 0 0 0 0 0 0 0 0 0 0 0 0 0 0 0 127 0" result="hardAlpha"/>
<feOffset/>
<feGaussianBlur stdDeviation="2"/>
<feComposite in2="hardAlpha" operator="out"/>
<feColorMatrix type="matrix" values="0 0 0 0 0 0 0 0 0 0 0 0 0 0 0 0 0 0 0.25 0"/>
<feBlend mode="normal" in2="BackgroundImageFix" result="effect1_dropShadow_23_16888"/>
<feBlend mode="normal" in="SourceGraphic" in2="effect1_dropShadow_23_16888" result="shape"/>
</filter>
</defs>
</svg>
