<svg width="100" height="100" viewBox="0 0 100 100" fill="none" xmlns="http://www.w3.org/2000/svg">
<g clip-path="url(#clip0_13_2722)">
<rect x="0.5" y="0.5" width="99" height="99" stroke="#ECECEC"/>
<rect y="40" width="21" height="20" fill="#ECECEC"/>
<rect x="60" width="21" height="20" transform="rotate(90 60 0)" fill="#ECECEC"/>
<rect x="60" y="79" width="21" height="20" transform="rotate(90 60 79)" fill="#ECECEC"/>
<rect x="79" y="40" width="21" height="20" fill="#ECECEC"/>
<rect x="-12.4263" y="98.2842" width="50" height="20" transform="rotate(-45 -12.4263 98.2842)" fill="#ECECEC"/>
<rect x="5.70148" y="-8.44061" width="48.5054" height="20" transform="rotate(45 5.70148 -8.44061)" fill="#ECECEC"/>
<rect x="77.5773" y="63.4351" width="40" height="20" transform="rotate(45 77.5773 63.4351)" fill="#ECECEC"/>
<rect x="63.4351" y="22.4229" width="40" height="20" transform="rotate(-45 63.4351 22.4229)" fill="#ECECEC"/>
<g filter="url(#filter0_d_13_2722)">
<circle cx="50" cy="50" r="31" fill="black"/>
<circle cx="50" cy="50" r="32.5" stroke="white" stroke-width="3"/>
</g>
<path d="M62.8 65.5908C59.7805 66.4441 56.7282 66.8708 53.6431 66.8708C50.919 66.8708 48.359 66.5426 45.9631 65.8862C43.5672 65.2297 41.4831 64.2123 39.7108 62.8338C37.9385 61.4554 36.5436 59.6995 35.5262 57.5662C34.5087 55.4328 34 52.8892 34 49.9354C34 47.1785 34.5415 44.7497 35.6246 42.6492C36.7405 40.5159 38.201 38.7436 40.0062 37.3323C41.8441 35.8882 43.9446 34.8051 46.3077 34.0831C48.6708 33.361 51.1159 33 53.6431 33C55.1856 33 56.7118 33.1149 58.2215 33.3446C59.7313 33.5415 61.2246 33.7713 62.7015 34.0338L62.4062 42.6492C61.4215 42.321 60.4041 42.0421 59.3538 41.8123C58.3364 41.5826 57.3026 41.4677 56.2523 41.4677C54.9723 41.4677 53.7744 41.6646 52.6585 42.0585C51.5426 42.4195 50.5744 42.961 49.7538 43.6831C48.9333 44.4051 48.2933 45.2913 47.8338 46.3415C47.3744 47.3918 47.1446 48.5897 47.1446 49.9354C47.1446 52.7251 47.9487 54.8421 49.5569 56.2862C51.1651 57.6974 53.2985 58.4031 55.9569 58.4031C57.1056 58.4031 58.2215 58.2882 59.3046 58.0585C60.3877 57.8287 61.4544 57.5169 62.5046 57.1231L62.8 65.5908Z" fill="white"/>
<path d="M84 76C84 83.1797 78.1797 89 71 89C63.8203 89 58 83.1797 58 76C58 68.8203 63.8203 63 71 63C78.1797 63 84 68.8203 84 76Z" fill="white"/>
<path fill-rule="evenodd" clip-rule="evenodd" d="M70.062 64.1647C67.2806 64.3783 64.6886 65.5602 62.7055 67.5189C60.9349 69.2678 59.8526 71.2471 59.3258 73.6997C59.0834 74.8284 59.063 77.0395 59.2847 78.1594C59.777 80.6467 60.837 82.613 62.655 84.4117C64.4422 86.18 66.1758 87.1264 68.6141 87.6649C69.7586 87.9177 72.0265 87.9403 73.1743 87.7105C75.579 87.2288 77.5966 86.1502 79.347 84.4106C81.4334 82.3371 82.5943 79.849 82.8296 76.9472C83.1827 72.5917 81.1185 68.4303 77.4074 66.0158C75.2812 64.6325 72.6391 63.9667 70.062 64.1647ZM74.0779 67.0999C74.0779 67.4276 74.0735 67.4323 73.7361 67.4579L73.3943 67.4837L72.6599 69.168L71.2989 69.2169V70.0522H72.7347C73.8899 70.0522 74.2232 70.0788 74.44 70.1884C74.7514 70.3457 75.0697 70.6203 75.1819 70.8283C75.2247 70.9077 75.4107 72.022 75.5952 73.3043C75.8983 75.4107 75.9305 75.7991 75.9299 77.3283C75.929 79.7736 75.725 80.5368 74.9542 80.9775C74.6279 81.1641 74.5968 81.1656 70.9797 81.167C67.516 81.1683 67.3179 81.1601 67.0086 81.0023C66.2288 80.6045 66.1465 80.2943 66.1025 77.5893L66.067 75.3997L66.4023 73.1486C66.7752 70.6458 66.8144 70.5366 67.4523 70.2279C67.7757 70.0713 67.9679 70.0522 69.2202 70.0522H70.6252V69.2101L69.2357 69.2085L68.4964 67.4416H68.1713C67.8481 67.4416 67.8461 67.4396 67.8461 67.1047V66.7679H74.0779V67.0999ZM69.2778 67.5234C69.2778 67.5684 69.3708 67.8158 69.4847 68.073L69.6915 68.5408L72.2409 68.4943L72.4436 67.9957C72.5551 67.7215 72.6463 67.4847 72.6463 67.4694C72.6463 67.4541 71.8884 67.4416 70.962 67.4416C69.9283 67.4416 69.2778 67.4732 69.2778 67.5234ZM70.5793 71.0169C70.1468 71.4492 70.4269 72.1079 71.0217 72.0571C71.6483 72.0035 71.8407 71.2166 71.296 70.935C70.9608 70.7616 70.8182 70.7779 70.5793 71.0169ZM67.4023 72.8944C67.312 72.9945 67.2209 73.4434 67.1187 74.293C66.9714 75.5176 66.9717 75.5468 67.1286 75.6615C67.2598 75.7575 67.9634 75.7787 71.0072 75.7787C74.5084 75.7787 74.7337 75.7697 74.8655 75.624C74.9961 75.4797 74.9942 75.3853 74.8378 74.2134C74.7109 73.2632 74.6351 72.932 74.5263 72.8523C74.4169 72.7721 73.5651 72.747 70.959 72.747C67.8053 72.747 67.5249 72.7587 67.4023 72.8944ZM67.7554 78.3828C67.4807 78.6576 67.4426 78.9423 67.6317 79.308C67.8761 79.7807 68.5017 79.8467 68.906 79.4424C69.3699 78.9785 68.9852 78.1367 68.3093 78.1367C68.0815 78.1367 67.9377 78.2006 67.7554 78.3828ZM73.1113 78.3262C72.9808 78.4396 72.8733 78.6415 72.8434 78.8292C72.7988 79.1089 72.8266 79.176 73.101 79.4504C73.3755 79.7249 73.4425 79.7526 73.7223 79.7081C74.138 79.6419 74.4148 79.3212 74.4148 78.9056C74.4148 78.2457 73.6138 77.8896 73.1113 78.3262ZM68.7725 81.6427C68.7725 81.6721 68.5006 82.2216 68.1683 82.8638L67.564 84.0316H66.7366C66.2815 84.0316 65.9092 84.0079 65.9092 83.9791C65.9092 83.9501 66.3339 83.4006 66.853 82.758L67.7968 81.5894H68.2846C68.5529 81.5894 68.7725 81.6134 68.7725 81.6427ZM75.1095 82.7253C75.6074 83.3449 76.0148 83.8923 76.0148 83.9417C76.0148 83.999 75.7275 84.0316 75.2216 84.0316H74.4283L73.8321 82.9018C73.5041 82.2804 73.2358 81.7309 73.2358 81.6807C73.2358 81.6252 73.4255 81.5912 73.72 81.5941L74.2042 81.5986L75.1095 82.7253Z" fill="#0067AF"/>
<rect x="16.8726" y="23.5656" width="2.5" height="17.25" transform="rotate(-20.5605 16.8726 23.5656)" fill="black"/>
<rect x="24.8312" y="20.5804" width="2.5" height="17.25" transform="rotate(-20.5605 24.8312 20.5804)" fill="black"/>
<rect x="20.4436" y="38.7806" width="2.5" height="15" transform="rotate(-110.561 20.4436 38.7806)" fill="black"/>
<rect x="19.1266" y="35.2695" width="2.5" height="15" transform="rotate(-110.561 19.1266 35.2695)" fill="black"/>
<rect x="17.8096" y="31.7584" width="2.5" height="15" transform="rotate(-110.561 17.8096 31.7584)" fill="black"/>
<rect x="16.4926" y="28.2473" width="2.5" height="15" transform="rotate(-110.561 16.4926 28.2473)" fill="black"/>
<rect x="80.8083" y="50.106" width="2.5" height="17.25" transform="rotate(-155.276 80.8083 50.106)" fill="black"/>
<rect x="73.0875" y="46.5508" width="2.5" height="17.25" transform="rotate(-155.276 73.0875 46.5508)" fill="black"/>
<rect x="89.1078" y="36.8633" width="2.5" height="15" transform="rotate(114.724 89.1078 36.8633)" fill="black"/>
<rect x="87.5394" y="40.2695" width="2.5" height="15" transform="rotate(114.724 87.5394 40.2695)" fill="black"/>
<rect x="85.971" y="43.6758" width="2.5" height="15" transform="rotate(114.724 85.971 43.6758)" fill="black"/>
<rect x="84.4025" y="47.082" width="2.5" height="15" transform="rotate(114.724 84.4025 47.082)" fill="black"/>
<rect x="33.9979" y="71.5933" width="2.5" height="17.25" transform="rotate(-2.61545 33.9979 71.5933)" fill="black"/>
<rect x="42.4891" y="71.2054" width="2.5" height="17.25" transform="rotate(-2.61545 42.4891 71.2054)" fill="black"/>
<rect x="32.7073" y="87.1683" width="2.5" height="15" transform="rotate(-92.6155 32.7073 87.1683)" fill="black"/>
<rect x="32.5361" y="83.4222" width="2.5" height="15" transform="rotate(-92.6155 32.5361 83.4222)" fill="black"/>
<rect x="32.3651" y="79.6761" width="2.5" height="15" transform="rotate(-92.6155 32.3651 79.6761)" fill="black"/>
<rect x="32.1939" y="75.9301" width="2.5" height="15" transform="rotate(-92.6155 32.1939 75.9301)" fill="black"/>
</g>
<defs>
<filter id="filter0_d_13_2722" x="12" y="12" width="76" height="76" filterUnits="userSpaceOnUse" color-interpolation-filters="sRGB">
<feFlood flood-opacity="0" result="BackgroundImageFix"/>
<feColorMatrix in="SourceAlpha" type="matrix" values="0 0 0 0 0 0 0 0 0 0 0 0 0 0 0 0 0 0 127 0" result="hardAlpha"/>
<feOffset/>
<feGaussianBlur stdDeviation="2"/>
<feComposite in2="hardAlpha" operator="out"/>
<feColorMatrix type="matrix" values="0 0 0 0 0 0 0 0 0 0 0 0 0 0 0 0 0 0 0.25 0"/>
<feBlend mode="normal" in2="BackgroundImageFix" result="effect1_dropShadow_13_2722"/>
<feBlend mode="normal" in="SourceGraphic" in2="effect1_dropShadow_13_2722" result="shape"/>
</filter>
<clipPath id="clip0_13_2722">
<rect width="100" height="100" fill="white"/>
</clipPath>
</defs>
</svg>
