<svg width="1200" height="720" viewBox="0 0 1200 720" fill="none" xmlns="http://www.w3.org/2000/svg">
<g clip-path="url(#clip0_13_9356)">
<rect width="1200" height="720" fill="white"/>
<rect y="-19" width="619" height="767" fill="#E3E3E3"/>
<rect y="-19" width="312" height="767" fill="#A7A69E"/>
<rect x="111" y="-19" width="201" height="767" fill="#707070"/>
<rect x="154" y="-2" width="12" height="737" fill="#343434"/>
<rect x="256" y="-2" width="12" height="737" fill="#343434"/>
<rect x="148" y="514" width="12" height="126" transform="rotate(-90 148 514)" fill="#343434"/>
<rect x="148" y="382" width="12" height="126" transform="rotate(-90 148 382)" fill="#343434"/>
<rect x="148" y="250" width="12" height="126" transform="rotate(-90 148 250)" fill="#343434"/>
<rect x="148" y="118" width="12" height="126" transform="rotate(-90 148 118)" fill="#343434"/>
<rect x="148" y="712" width="12" height="126" transform="rotate(-90 148 712)" fill="#343434"/>
<rect x="148" y="481" width="12" height="126" transform="rotate(-90 148 481)" fill="#343434"/>
<rect x="148" y="349" width="12" height="126" transform="rotate(-90 148 349)" fill="#343434"/>
<rect x="148" y="217" width="12" height="126" transform="rotate(-90 148 217)" fill="#343434"/>
<rect x="148" y="85" width="12" height="126" transform="rotate(-90 148 85)" fill="#343434"/>
<rect x="148" y="679" width="12" height="126" transform="rotate(-90 148 679)" fill="#343434"/>
<rect x="148" y="448" width="12" height="126" transform="rotate(-90 148 448)" fill="#343434"/>
<rect x="148" y="316" width="12" height="126" transform="rotate(-90 148 316)" fill="#343434"/>
<rect x="148" y="184" width="12" height="126" transform="rotate(-90 148 184)" fill="#343434"/>
<rect x="148" y="52" width="12" height="126" transform="rotate(-90 148 52)" fill="#343434"/>
<rect x="148" y="646" width="12" height="126" transform="rotate(-90 148 646)" fill="#343434"/>
<rect x="148" y="580" width="12" height="126" transform="rotate(-90 148 580)" fill="#343434"/>
<rect x="148" y="415" width="12" height="126" transform="rotate(-90 148 415)" fill="#343434"/>
<rect x="148" y="283" width="12" height="126" transform="rotate(-90 148 283)" fill="#343434"/>
<rect x="148" y="151" width="12" height="126" transform="rotate(-90 148 151)" fill="#343434"/>
<rect x="148" y="19" width="12" height="126" transform="rotate(-90 148 19)" fill="#343434"/>
<rect x="148" y="613" width="12" height="126" transform="rotate(-90 148 613)" fill="#343434"/>
<rect x="148" y="547" width="12" height="126" transform="rotate(-90 148 547)" fill="#343434"/>
<rect x="340" width="5" height="720" fill="#FFD502"/>
<rect width="619" height="767" transform="matrix(-1 0 0 1 1201 -19)" fill="#E3E3E3"/>
<rect width="312" height="767" transform="matrix(-1 0 0 1 1201 -19)" fill="#A7A69E"/>
<rect width="201" height="767" transform="matrix(-1 0 0 1 1090 -19)" fill="#707070"/>
<rect width="12" height="737" transform="matrix(-1 0 0 1 1047 -2)" fill="#343434"/>
<rect width="12" height="737" transform="matrix(-1 0 0 1 945 -2)" fill="#343434"/>
<rect width="12" height="126" transform="matrix(3.67176e-08 -1 -1 -5.20374e-08 1053 514)" fill="#343434"/>
<rect width="12" height="126" transform="matrix(3.67176e-08 -1 -1 -5.20374e-08 1053 382)" fill="#343434"/>
<rect width="12" height="126" transform="matrix(3.67176e-08 -1 -1 -5.20374e-08 1053 250)" fill="#343434"/>
<rect width="12" height="126" transform="matrix(3.67176e-08 -1 -1 -5.20374e-08 1053 118)" fill="#343434"/>
<rect width="12" height="126" transform="matrix(3.67176e-08 -1 -1 -5.20374e-08 1053 712)" fill="#343434"/>
<rect width="12" height="126" transform="matrix(3.67176e-08 -1 -1 -5.20374e-08 1053 481)" fill="#343434"/>
<rect width="12" height="126" transform="matrix(3.67176e-08 -1 -1 -5.20374e-08 1053 349)" fill="#343434"/>
<rect width="12" height="126" transform="matrix(3.67176e-08 -1 -1 -5.20374e-08 1053 217)" fill="#343434"/>
<rect width="12" height="126" transform="matrix(3.67176e-08 -1 -1 -5.20374e-08 1053 85)" fill="#343434"/>
<rect width="12" height="126" transform="matrix(3.67176e-08 -1 -1 -5.20374e-08 1053 679)" fill="#343434"/>
<rect width="12" height="126" transform="matrix(3.67176e-08 -1 -1 -5.20374e-08 1053 448)" fill="#343434"/>
<rect width="12" height="126" transform="matrix(3.67176e-08 -1 -1 -5.20374e-08 1053 316)" fill="#343434"/>
<rect width="12" height="126" transform="matrix(3.67176e-08 -1 -1 -5.20374e-08 1053 184)" fill="#343434"/>
<rect width="12" height="126" transform="matrix(3.67176e-08 -1 -1 -5.20374e-08 1053 52)" fill="#343434"/>
<rect width="12" height="126" transform="matrix(3.67176e-08 -1 -1 -5.20374e-08 1053 646)" fill="#343434"/>
<rect width="12" height="126" transform="matrix(3.67176e-08 -1 -1 -5.20374e-08 1053 580)" fill="#343434"/>
<rect width="12" height="126" transform="matrix(3.67176e-08 -1 -1 -5.20374e-08 1053 415)" fill="#343434"/>
<rect width="12" height="126" transform="matrix(3.67176e-08 -1 -1 -5.20374e-08 1053 283)" fill="#343434"/>
<rect width="12" height="126" transform="matrix(3.67176e-08 -1 -1 -5.20374e-08 1053 151)" fill="#343434"/>
<rect width="12" height="126" transform="matrix(3.67176e-08 -1 -1 -5.20374e-08 1053 19)" fill="#343434"/>
<rect width="12" height="126" transform="matrix(3.67176e-08 -1 -1 -5.20374e-08 1053 613)" fill="#343434"/>
<rect width="12" height="126" transform="matrix(3.67176e-08 -1 -1 -5.20374e-08 1053 547)" fill="#343434"/>
<rect width="5" height="720" transform="matrix(-1 0 0 1 861 0)" fill="#FFD502"/>
<path fill-rule="evenodd" clip-rule="evenodd" d="M566.465 79.8678C556.445 83.1116 551.569 95.3602 556.546 104.788C563.968 118.844 585.335 116.007 589.062 100.47C592.221 87.3026 579.454 75.6625 566.465 79.8678ZM522.584 86.1527C518.107 90.6303 518.538 91.5239 535.395 112.706L550.662 131.89L551.353 154.654C551.733 167.174 552.428 181.39 552.898 186.244C553.368 191.098 553.784 201.689 553.825 209.779C553.932 231.918 554.606 238.748 556.909 241.051C559.709 243.85 564.808 243.654 567.829 240.63L570.141 238.317L569.538 193.809H574.52L575.132 215.42C575.788 238.589 576.157 240.554 580.204 242.397C583.074 243.705 584.427 243.664 587.296 242.18C591.629 239.939 591.65 239.655 590.754 194.229C590.298 171.114 589.925 150.499 589.926 148.419L589.927 144.636L599.484 154.513C608.02 163.334 609.348 164.389 611.917 164.389C616.696 164.389 620.64 159.089 618.787 155.157C618.383 154.298 609.992 145.394 600.142 135.367L582.231 117.138L557.393 117.738L544.236 101.239C529.208 82.3912 527.522 81.2161 522.584 86.1527Z" fill="#8E7496"/>
<path fill-rule="evenodd" clip-rule="evenodd" d="M751.108 287.638C743.726 290.007 740.134 298.95 743.801 305.834C749.268 316.098 765.01 314.026 767.757 302.681C770.084 293.067 760.678 284.568 751.108 287.638ZM718.779 292.227C715.481 295.497 715.798 296.149 728.218 311.616L739.466 325.623L739.975 342.245C740.255 351.387 740.767 361.767 741.113 365.311C741.459 368.856 741.766 376.589 741.795 382.496C741.875 398.662 742.371 403.648 744.068 405.33C746.13 407.374 749.888 407.231 752.113 405.023L753.816 403.334L753.372 370.835H757.043L757.493 386.615C757.977 403.533 758.249 404.967 761.23 406.313C763.345 407.268 764.341 407.238 766.455 406.155C769.647 404.519 769.663 404.311 769.003 371.142C768.667 354.264 768.392 339.211 768.393 337.692L768.393 334.93L775.434 342.142C781.724 348.583 782.702 349.354 784.595 349.354C788.115 349.354 791.021 345.483 789.656 342.612C789.358 341.986 783.177 335.483 775.919 328.163L762.724 314.852L744.424 315.29L734.731 303.243C723.659 289.481 722.417 288.623 718.779 292.227Z" fill="#8E7496"/>
<path fill-rule="evenodd" clip-rule="evenodd" d="M699.62 306.142C705.782 308.137 708.78 315.668 705.719 321.466C701.156 330.109 688.017 328.364 685.725 318.81C683.782 310.714 691.633 303.556 699.62 306.142ZM726.603 310.007C729.356 312.76 729.091 313.309 718.725 326.334L709.337 338.131L708.912 352.129C708.679 359.827 708.251 368.569 707.962 371.553C707.674 374.538 707.418 381.051 707.393 386.026C707.327 399.639 706.912 403.838 705.496 405.255C703.775 406.976 700.639 406.855 698.781 404.996L697.36 403.574L697.731 376.205H694.667L694.291 389.494C693.887 403.741 693.66 404.949 691.172 406.083C689.407 406.887 688.575 406.861 686.811 405.949C684.147 404.571 684.134 404.397 684.685 376.464C684.965 362.25 685.195 349.574 685.194 348.295L685.194 345.969L679.317 352.042C674.068 357.466 673.251 358.115 671.671 358.115C668.733 358.115 666.308 354.856 667.447 352.438C667.696 351.91 672.855 346.434 678.912 340.269L689.925 329.06L705.199 329.429L713.289 319.283C722.53 307.694 723.567 306.971 726.603 310.007Z" fill="#8E7496"/>
<path fill-rule="evenodd" clip-rule="evenodd" d="M696.103 534.11C686.082 537.354 681.207 549.603 686.184 559.03C693.605 573.087 714.972 570.249 718.7 554.712C721.859 541.545 709.092 529.905 696.103 534.11ZM652.222 540.395C647.745 544.873 648.176 545.766 665.033 566.948L680.3 586.132L680.991 608.896C681.371 621.416 682.066 635.632 682.536 640.486C683.006 645.34 683.422 655.931 683.462 664.022C683.57 686.16 684.244 692.99 686.547 695.293C689.346 698.092 694.446 697.896 697.467 694.873L699.778 692.56L699.176 648.051H704.158L704.77 669.662C705.426 692.832 705.795 694.796 709.842 696.64C712.712 697.948 714.065 697.906 716.933 696.423C721.266 694.182 721.287 693.898 720.391 648.471C719.936 625.356 719.563 604.741 719.563 602.661L719.564 598.879L729.121 608.755C737.658 617.577 738.986 618.632 741.555 618.632C746.334 618.632 750.277 613.331 748.425 609.399C748.021 608.541 739.63 599.636 729.78 589.61L711.869 571.381L687.031 571.981L673.874 555.481C658.846 536.634 657.16 535.459 652.222 540.395Z" fill="#8E7496"/>
<path fill-rule="evenodd" clip-rule="evenodd" d="M823.02 455.416C821.837 455.719 820.487 456.322 820.02 456.757C819.553 457.192 819.063 457.548 818.931 457.548C818.533 457.548 817.388 459.7 816.686 461.769C816.119 463.439 816.099 463.977 816.543 465.571C817.46 468.859 818.531 470.424 820.697 471.64C824.137 473.572 828.937 472.961 831.654 470.245C832.412 469.486 833.033 468.693 833.033 468.482C833.033 468.272 833.251 468.026 833.518 467.938C834.124 467.736 834.233 460.478 833.637 460.054C833.415 459.895 832.987 459.287 832.685 458.701C832.384 458.116 831.704 457.405 831.174 457.121C830.644 456.838 830.21 456.478 830.21 456.323C830.21 456.071 828.206 455.454 825.976 455.022C825.533 454.936 824.202 455.113 823.02 455.416ZM815.291 476.5C815.291 476.722 815.005 476.903 814.656 476.903C814.307 476.903 811.967 478.945 809.458 481.439C804.502 486.366 789.727 500.679 787.505 502.706C786.162 503.931 786.129 504.036 786.066 507.375C786.028 509.378 785.804 510.987 785.525 511.266C785.263 511.528 785.049 512.069 785.049 512.468C785.049 513.102 784.668 513.194 782.024 513.194C780.277 513.194 779 513.024 779 512.791C779 512.543 776.984 512.387 773.758 512.387C770.532 512.387 768.516 512.543 768.516 512.791C768.516 513.012 768.18 513.194 767.769 513.194C766.53 513.194 763.776 516.168 762.673 518.699C762.301 519.552 761.831 520.565 761.627 520.95C761.424 521.335 761.258 522.005 761.258 522.439C761.258 522.872 761.077 523.339 760.855 523.476C760.633 523.613 760.452 524.248 760.452 524.887C760.452 525.527 760.27 526.162 760.048 526.299C759.827 526.436 759.645 526.982 759.645 527.513C759.645 528.044 759.487 528.896 759.294 529.405C759.101 529.914 758.629 531.42 758.246 532.75C757.863 534.081 757.386 535.485 757.186 535.87C756.986 536.255 756.823 536.925 756.823 537.358C756.823 537.792 756.641 538.258 756.419 538.396C756.198 538.533 756.016 539 756.016 539.433C756.016 539.867 755.852 540.536 755.65 540.921C754.958 542.244 754 545.949 754 547.3C754 548.309 754.36 549.012 755.425 550.076C757.24 551.89 758.134 551.882 759.272 550.04C759.769 549.237 760.998 548.058 762.005 547.419C763.559 546.434 764.249 546.259 766.579 546.259C768.139 546.259 769.323 546.432 769.323 546.662C769.323 546.884 769.686 547.065 770.129 547.065C770.573 547.065 770.936 547.246 770.936 547.468C770.936 547.69 771.141 547.871 771.393 547.871C771.973 547.871 773.757 549.925 773.758 550.593C773.758 550.871 773.94 551.097 774.161 551.097C774.383 551.097 774.565 551.372 774.565 551.709C774.565 552.045 774.791 553.042 775.066 553.926C775.496 555.303 775.731 555.533 776.708 555.533C777.966 555.533 779 554.727 779 553.747C779 553.399 779.146 553.113 779.324 553.113C779.633 553.113 780.408 550.356 780.882 547.565C781.005 546.842 781.267 546.151 781.464 546.03C781.662 545.907 781.823 545.375 781.823 544.847C781.823 544.319 782.004 543.775 782.226 543.638C782.448 543.5 782.629 542.943 782.629 542.398C782.629 541.854 782.796 541.094 782.999 540.709C783.202 540.323 783.672 538.92 784.043 537.589C785.761 531.431 786.353 529.474 786.696 528.825C786.899 528.439 787.065 527.679 787.065 527.135C787.065 526.59 787.246 526.033 787.468 525.895C787.69 525.758 787.871 525.201 787.871 524.656C787.871 524.112 788.046 523.351 788.26 522.966C788.474 522.581 789.033 520.906 789.502 519.242C789.97 517.579 790.536 515.583 790.759 514.807C790.981 514.03 791.26 512.896 791.378 512.286C791.496 511.677 791.753 511.178 791.949 511.178C792.146 511.178 792.307 510.633 792.307 509.968C792.307 509.303 792.488 508.758 792.71 508.758C792.932 508.758 793.113 508.462 793.113 508.099C793.113 507.737 793.556 507.057 794.096 506.587C795.255 505.582 799.296 501.904 803.088 498.405C805.769 495.931 806.742 495.559 806.215 497.211C806.064 497.685 805.799 498.889 805.627 499.887C805.454 500.885 804.927 503.607 804.456 505.936C803.985 508.264 803.599 510.493 803.598 510.888C803.598 511.283 804.232 512.916 805.009 514.516C805.785 516.116 806.42 517.637 806.42 517.897C806.42 518.156 806.558 518.429 806.726 518.503C807.13 518.68 810.049 524.564 810.049 525.201C810.049 525.472 810.23 525.694 810.452 525.694C810.674 525.694 810.855 526.042 810.855 526.467C810.855 526.892 810.992 527.3 811.158 527.374C811.548 527.547 814.484 533.483 814.484 534.098C814.484 534.355 814.666 534.565 814.888 534.565C815.109 534.565 815.291 534.913 815.291 535.338C815.291 535.763 815.427 536.171 815.593 536.245C815.984 536.419 818.92 542.354 818.92 542.969C818.92 543.226 819.101 543.436 819.323 543.436C819.545 543.436 819.726 543.784 819.726 544.209C819.726 544.634 819.865 545.042 820.034 545.116C820.204 545.19 821.089 546.793 822.001 548.678C824.385 553.603 824.9 554.091 827.73 554.108C829.717 554.12 830.198 553.968 831.135 553.031C831.735 552.431 832.227 551.58 832.227 551.139C832.227 550.699 832.392 550.236 832.594 550.111C832.987 549.869 832.592 548.42 831.353 545.557C830.946 544.617 830.612 543.71 830.611 543.541C830.61 543.372 830.37 542.777 830.078 542.217C829.786 541.659 829.294 540.343 828.985 539.294C828.675 538.246 828.28 537.388 828.106 537.388C827.933 537.388 827.791 536.934 827.791 536.379C827.791 535.825 827.61 535.371 827.388 535.371C827.166 535.371 826.985 535.111 826.985 534.793C826.985 534.475 826.512 533.069 825.933 531.668C825.355 530.267 824.72 528.713 824.522 528.214C823.627 525.958 823.329 525.231 822.952 524.383C821.262 520.584 819.799 516.211 820.095 515.844C820.286 515.606 820.541 514.686 820.66 513.799C820.862 512.307 821.519 509.195 822.576 504.726C822.812 503.728 823.096 502.367 823.207 501.702C823.377 500.69 824.01 498.96 824.449 498.311C824.593 498.097 825.825 499.521 827.039 501.304C827.564 502.074 828.31 502.705 828.698 502.707C829.086 502.709 829.404 502.891 829.404 503.113C829.404 503.335 829.735 503.516 830.141 503.516C830.957 503.516 836.386 505.575 838.773 506.789C839.158 506.985 839.748 507.145 840.084 507.145C840.42 507.145 840.694 507.327 840.694 507.549C840.694 508.15 845.101 508.047 845.663 507.432C846.978 505.994 847.661 503.516 846.743 503.516C846.521 503.516 846.34 503.171 846.34 502.75C846.34 502.221 845.778 501.752 844.527 501.238C843.529 500.827 842.713 500.356 842.712 500.19C842.711 500.023 842.348 499.887 841.904 499.887C841.46 499.887 841.098 499.706 841.098 499.484C841.098 499.262 840.75 499.081 840.325 499.081C839.9 499.081 839.492 498.944 839.417 498.778C839.344 498.612 838.058 497.888 836.561 497.169C834.98 496.41 833.839 495.607 833.839 495.254C833.839 494.919 833.658 494.645 833.436 494.645C833.214 494.645 833.033 494.297 833.033 493.872C833.033 493.447 832.897 493.039 832.731 492.965C832.564 492.891 831.524 491.016 830.418 488.798C828.381 484.71 826.145 480.731 825.385 479.843C825.156 479.576 824.968 479.237 824.968 479.091C824.968 478.946 824.298 478.212 823.478 477.462C822.035 476.14 821.882 476.097 818.64 476.097C816.676 476.097 815.291 476.264 815.291 476.5ZM768.395 518.299C768.537 518.668 768.168 520.37 767.576 522.082C766.984 523.793 766.5 525.488 766.5 525.847C766.5 526.206 766.319 526.5 766.097 526.5C765.875 526.5 765.694 527.045 765.694 527.71C765.694 528.375 765.512 528.92 765.29 528.92C765.069 528.92 764.887 529.285 764.887 529.732C764.887 530.178 764.728 530.859 764.534 531.244C764.34 531.629 763.685 533.577 763.079 535.573C762.473 537.569 761.815 539.517 761.618 539.902C761.42 540.287 761.258 540.957 761.258 541.39C761.258 541.824 761.077 542.291 760.855 542.428C760.633 542.565 760.452 543.211 760.452 543.863C760.452 544.949 760.334 545.049 759.04 545.049C757.906 545.049 757.629 544.893 757.629 544.257C757.629 543.364 758.659 539.972 759.255 538.905C759.469 538.52 759.645 537.749 759.645 537.192C759.645 536.634 759.827 536.178 760.048 536.178C760.27 536.178 760.452 535.722 760.452 535.164C760.452 534.607 760.626 533.835 760.839 533.45C761.424 532.391 764.081 524.249 764.081 523.514C764.081 523.161 764.262 522.871 764.484 522.871C764.706 522.871 764.887 522.338 764.887 521.685C764.887 521.033 765.045 520.402 765.238 520.283C765.432 520.163 765.699 519.517 765.833 518.847C766.028 517.873 766.283 517.629 767.107 517.629C767.696 517.629 768.249 517.916 768.395 518.299ZM804.817 525.895C804.206 527.318 803.199 530.986 802.907 532.855C802.794 533.578 802.54 534.269 802.343 534.391C802.146 534.513 801.984 534.876 801.984 535.198C801.984 535.521 801.079 536.735 799.972 537.896C798.866 539.058 797.958 540.136 797.956 540.293C797.954 540.449 796.999 541.565 795.835 542.771C790.987 547.794 790.28 549.455 791.707 552.462C792.517 554.17 795.393 555.142 797.071 554.275C799.279 553.134 806.194 546.278 809.016 542.434C809.445 541.848 810.106 541.013 810.483 540.578C810.861 540.143 811.388 539.258 811.656 538.612C812.087 537.571 812.011 537.192 810.998 535.295C810.368 534.117 809.761 533.063 809.649 532.952C809.536 532.841 809.135 532.115 808.757 531.339C807.829 529.436 806.278 526.749 805.963 526.5C805.822 526.389 805.623 525.936 805.522 525.492C805.361 524.791 805.269 524.843 804.817 525.895ZM764.081 549.888C764.081 550.109 763.875 550.291 763.623 550.291C762.8 550.291 761.26 552.482 761.216 553.718C761.127 556.217 761.351 557.247 762.2 558.228C764.29 560.648 767.458 561.076 769.848 559.263C770.652 558.653 771.316 557.847 771.324 557.472C771.332 557.097 771.52 556.678 771.742 556.541C772.392 556.139 772.206 553.582 771.44 552.394C769.846 549.917 769.114 549.484 766.518 549.484C765.162 549.484 764.081 549.663 764.081 549.888Z" fill="#8E7496"/>
<path fill-rule="evenodd" clip-rule="evenodd" d="M537.21 545.748C532.709 546.645 528.65 549.63 526.319 553.758C521.537 562.226 526.264 573.324 535.854 576.141C537.948 576.756 542.112 576.756 544.206 576.141C553.042 573.545 557.84 564.058 554.612 555.563C552.011 548.718 544.254 544.343 537.21 545.748ZM534.39 578.347C526.113 581.441 519.02 588.795 511.866 601.702C509.947 605.163 502.544 620.491 501.85 622.439C501.277 624.05 501.351 625.811 502.056 627.367C502.631 628.632 502.634 628.713 502.133 629.08C499.94 630.683 495.021 630.092 489.2 627.523C484.865 625.611 485.239 625.644 483.802 627.054L482.539 628.294L481.453 627.092C480.855 626.431 480.159 625.89 479.906 625.89C478.869 625.89 471.224 630.507 469.419 632.224C465.998 635.478 463.797 640.551 463.168 646.629C462.813 650.058 463.006 651.23 464.104 652.328C465.768 653.992 468.954 653.252 469.635 651.042C469.798 650.514 470.021 649.023 470.132 647.728C470.369 644.954 470.936 642.618 471.743 641.09L472.324 639.99L472.337 642.513C472.346 644.337 471.816 648.077 470.422 656.019C469.362 662.06 468.494 667.036 468.493 667.076C468.492 667.117 469.493 667.151 470.718 667.151H472.944V680.542C472.944 693.76 472.952 693.949 473.592 695.088C474.282 696.314 476.116 697.434 477.416 697.422C478.567 697.412 480.567 696.365 481.158 695.463C481.658 694.7 481.712 693.56 481.849 680.992C481.962 670.624 482.085 667.319 482.36 667.228C482.641 667.134 482.741 670.174 482.805 680.762C482.886 694.024 482.906 694.441 483.5 695.237C484.632 696.752 485.625 697.281 487.308 697.265C489.105 697.249 490.454 696.464 491.278 694.956C491.742 694.109 491.802 692.671 491.879 680.594L491.965 667.174L494.424 667.088L496.884 667.002L494.872 656.168C493.113 646.692 492.859 644.88 492.847 641.726L492.832 638.118L494.215 638.535C497.606 639.555 501.74 638.721 505.388 636.281C508.23 634.38 509.95 632.515 510.223 631.037C510.362 630.286 510.774 629.594 511.432 629.007C512.177 628.342 513.367 626.134 516.117 620.313C519.556 613.035 522.651 606.931 523.596 605.564C523.941 605.065 524.002 606.573 524.014 615.805C524.022 622.888 524.143 627.094 524.365 627.968C524.602 628.904 524.753 638.684 524.871 660.644L525.04 691.984L525.938 693.437C528.371 697.372 533.75 697.999 537.021 694.728C539.235 692.514 539.14 693.834 539.14 665.317C539.14 640.108 539.146 639.841 539.729 639.841C540.311 639.841 540.318 640.136 540.396 665.913L540.475 691.984L541.374 693.437C543.758 697.293 549.156 698 552.289 694.866C554.59 692.566 554.409 695.198 554.575 661.511C554.719 632.339 554.742 631.339 555.309 630.046C555.852 628.807 555.907 627.808 556.051 616.391C556.191 605.411 556.252 604.217 556.61 605.408C557.826 609.443 557.965 610.795 557.977 618.766C557.987 625.513 558.059 626.759 558.48 627.522C560.006 630.288 563.425 631.405 566.3 630.078C569.009 628.829 569.648 627.311 570.012 621.278C570.99 605.038 566.729 593.191 557.014 585.14C553.427 582.167 550.351 580.243 547.106 578.941L544.114 577.74L542.117 579.722L540.121 581.703L538.247 579.752C537.217 578.679 536.228 577.812 536.05 577.825C535.872 577.837 535.125 578.072 534.39 578.347ZM479.098 605.814C476.843 606.761 475.446 607.859 474.407 609.497C472.319 612.789 472.112 616.054 473.778 619.437C475.527 622.99 478.556 624.85 482.591 624.85C486.637 624.85 489.656 622.991 491.416 619.414C493.217 615.756 492.618 611.41 489.883 608.295C487.429 605.5 482.528 604.373 479.098 605.814Z" fill="#8E7496"/>
<path fill-rule="evenodd" clip-rule="evenodd" d="M415.332 236.22C411.551 236.974 408.141 239.482 406.183 242.948C402.166 250.062 406.137 259.384 414.193 261.751C415.951 262.267 419.45 262.267 421.208 261.751C428.631 259.57 432.661 251.601 429.949 244.465C427.765 238.716 421.249 235.04 415.332 236.22ZM412.963 263.604C406.01 266.203 400.052 272.38 394.042 283.222C392.431 286.129 386.212 299.005 385.629 300.641C385.148 301.994 385.209 303.473 385.802 304.78C386.285 305.843 386.288 305.912 385.867 306.219C384.025 307.566 379.893 307.069 375.003 304.912C371.361 303.306 371.676 303.333 370.469 304.518L369.408 305.56L368.495 304.55C367.994 303.994 367.409 303.54 367.196 303.54C366.325 303.54 359.903 307.419 358.387 308.861C355.513 311.594 353.664 315.856 353.136 320.961C352.838 323.841 353 324.826 353.922 325.748C355.32 327.146 357.996 326.524 358.568 324.668C358.705 324.224 358.893 322.971 358.986 321.884C359.185 319.554 359.661 317.591 360.339 316.308L360.827 315.384L360.838 317.503C360.846 319.036 360.4 322.177 359.229 328.849C358.339 333.923 357.61 338.103 357.609 338.137C357.608 338.171 358.449 338.199 359.478 338.199H361.348V349.448C361.348 360.551 361.355 360.71 361.893 361.666C362.472 362.696 364.012 363.637 365.105 363.627C366.071 363.618 367.751 362.739 368.248 361.982C368.668 361.341 368.713 360.383 368.828 349.826C368.923 341.117 369.026 338.341 369.257 338.264C369.493 338.185 369.577 340.739 369.632 349.633C369.699 360.773 369.716 361.123 370.215 361.791C371.166 363.064 372 363.509 373.414 363.496C374.923 363.481 376.056 362.822 376.749 361.556C377.138 360.844 377.189 359.636 377.253 349.492L377.325 338.218L379.391 338.146L381.457 338.074L379.768 328.973C378.29 321.014 378.076 319.492 378.066 316.842L378.054 313.812L379.216 314.162C382.064 315.019 385.537 314.318 388.601 312.269C390.989 310.672 392.433 309.105 392.662 307.864C392.779 307.233 393.125 306.651 393.678 306.158C394.303 305.6 395.303 303.745 397.614 298.855C400.502 292.742 403.102 287.614 403.896 286.466C404.186 286.047 404.237 287.313 404.247 295.069C404.254 301.018 404.356 304.551 404.542 305.285C404.741 306.071 404.868 314.287 404.967 332.733L405.108 359.059L405.863 360.28C407.907 363.585 412.425 364.112 415.173 361.364C417.032 359.504 416.952 360.613 416.952 336.659C416.952 315.483 416.958 315.259 417.447 315.259C417.936 315.259 417.943 315.507 418.008 337.159L418.074 359.059L418.829 360.279C420.832 363.519 425.366 364.113 427.998 361.48C429.931 359.548 429.779 361.759 429.918 333.462C430.039 308.957 430.059 308.117 430.535 307.031C430.991 305.991 431.037 305.151 431.158 295.561C431.276 286.338 431.327 285.335 431.628 286.335C432.649 289.725 432.766 290.861 432.776 297.556C432.784 303.224 432.845 304.27 433.199 304.911C434.48 307.234 437.352 308.173 439.768 307.058C442.042 306.008 442.58 304.734 442.885 299.666C443.707 286.024 440.128 276.073 431.967 269.31C428.954 266.813 426.37 265.196 423.644 264.102L421.131 263.094L419.454 264.759L417.776 266.423L416.203 264.784C415.337 263.883 414.507 263.154 414.357 263.165C414.207 263.176 413.58 263.373 412.963 263.604ZM366.517 286.676C364.623 287.472 363.449 288.394 362.576 289.77C360.823 292.535 360.649 295.278 362.048 298.12C363.518 301.104 366.062 302.667 369.452 302.667C372.85 302.667 375.386 301.105 376.865 298.1C378.378 295.027 377.874 291.377 375.576 288.76C373.515 286.412 369.398 285.465 366.517 286.676Z" fill="#8E7496"/>
<path fill-rule="evenodd" clip-rule="evenodd" d="M799.145 145.191C792.281 146.575 789.542 154.918 794.239 160.142C796.812 163.004 800.654 163.99 804.121 162.678C808.775 160.918 811.149 156.122 809.711 151.386C808.344 146.885 803.842 144.245 799.145 145.191ZM788.609 167.205C785.816 168.112 783.097 170.422 781.923 172.886C781.173 174.46 773.001 205.319 773 206.582C772.999 207.208 773.257 208.102 773.595 208.65C775.15 211.166 779.112 211.185 780.608 208.683C780.914 208.171 782.22 203.787 783.509 198.94C784.8 194.093 786.216 188.784 786.658 187.142C787.1 185.5 787.602 183.613 787.775 182.949L788.088 181.74H789.499C790.383 181.74 790.909 181.864 790.909 182.072C790.909 182.254 788.975 189.642 786.612 198.489C784.248 207.337 781.581 217.326 780.685 220.688L779.056 226.8L784.272 226.877L789.487 226.954L789.489 243.366C789.49 253.94 789.597 260.159 789.789 260.851C790.153 262.162 791.462 263.706 792.615 264.183C793.974 264.746 796.372 264.42 797.565 263.51C798.122 263.086 798.739 262.456 798.936 262.11C799.21 261.631 799.329 257.402 799.437 244.283L799.58 227.084H801.001H802.422L802.565 244.141C802.703 260.706 802.723 261.227 803.291 262.193C804.76 264.693 808.603 265.231 810.775 263.24C811.148 262.899 811.689 262.108 811.977 261.482C812.469 260.418 812.502 259.274 812.508 243.644L812.515 226.942H817.793C822.688 226.942 823.06 226.906 822.92 226.444C822.52 225.133 811.093 182.153 811.093 181.961C811.093 181.84 811.729 181.74 812.507 181.74H813.92L814.345 183.233C814.579 184.054 816.175 190.001 817.891 196.448C819.607 202.895 821.242 208.482 821.524 208.862C823.864 212.007 829.089 210.389 829.078 206.523C829.073 205.078 820.889 174.552 820.018 172.731C819.154 170.924 816.794 168.707 814.576 167.618L812.941 166.815L801.57 166.752C791.25 166.695 790.051 166.736 788.609 167.205Z" fill="#8E7496"/>
<path fill-rule="evenodd" clip-rule="evenodd" d="M693.683 14.9095C685.647 16.5285 682.442 26.296 687.94 32.4111C690.952 35.761 695.449 36.9155 699.508 35.3803C704.956 33.3196 707.736 27.7047 706.052 22.1614C704.451 16.8916 699.181 13.8016 693.683 14.9095ZM681.349 40.6791C678.079 41.7407 674.897 44.4453 673.523 47.33C672.645 49.1726 663.079 85.2971 663.077 86.7751C663.076 87.5082 663.377 88.5552 663.774 89.1958C665.594 92.1411 670.232 92.1634 671.983 89.2351C672.341 88.6357 673.87 83.503 675.38 77.8289C676.89 72.1548 678.549 65.9398 679.066 64.0179C679.583 62.096 680.171 59.8873 680.373 59.1092L680.739 57.6948H682.391C683.426 57.6948 684.042 57.8396 684.042 58.0825C684.042 58.2959 681.778 66.9445 679.011 77.3014C676.245 87.6587 673.123 99.3524 672.074 103.288L670.166 110.443L676.272 110.533L682.378 110.624L682.38 129.835C682.381 142.214 682.506 149.494 682.73 150.304C683.157 151.839 684.689 153.646 686.038 154.205C687.63 154.864 690.437 154.483 691.834 153.417C692.485 152.921 693.208 152.183 693.439 151.779C693.759 151.218 693.899 146.267 694.026 130.91L694.192 110.776H695.856H697.52L697.686 130.743C697.848 150.135 697.872 150.744 698.537 151.875C700.256 154.802 704.755 155.432 707.298 153.101C707.734 152.702 708.367 151.776 708.705 151.044C709.28 149.798 709.32 148.458 709.327 130.161L709.334 110.609H715.513C721.244 110.609 721.679 110.567 721.515 110.027C721.047 108.492 707.67 58.1774 707.67 57.9528C707.67 57.811 708.415 57.6948 709.325 57.6948H710.979L711.477 59.442C711.751 60.4028 713.619 67.3645 715.628 74.9123C717.636 82.4597 719.55 88.9991 719.881 89.4438C722.62 93.1258 728.737 91.2319 728.723 86.7059C728.718 85.0149 719.138 49.2798 718.118 47.1486C717.106 45.0333 714.343 42.4379 711.747 41.1626L709.833 40.2231L696.521 40.1489C684.441 40.0817 683.038 40.1306 681.349 40.6791Z" fill="#8E7496"/>
<path fill-rule="evenodd" clip-rule="evenodd" d="M435.94 496.47C434.604 496.811 433.08 497.493 432.553 497.984C432.025 498.475 431.472 498.877 431.323 498.877C430.873 498.877 429.581 501.308 428.787 503.644C428.147 505.53 428.125 506.137 428.627 507.937C429.662 511.65 430.871 513.417 433.318 514.791C437.202 516.973 442.623 516.282 445.69 513.215C446.547 512.358 447.248 511.463 447.248 511.225C447.248 510.987 447.494 510.71 447.795 510.61C448.479 510.382 448.603 502.186 447.93 501.707C447.679 501.528 447.195 500.841 446.855 500.18C446.515 499.519 445.747 498.716 445.149 498.395C444.55 498.075 444.06 497.669 444.06 497.494C444.06 497.209 441.796 496.513 439.279 496.025C438.778 495.927 437.276 496.128 435.94 496.47ZM427.212 520.279C427.212 520.529 426.89 520.734 426.496 520.734C426.101 520.734 423.459 523.039 420.625 525.857C415.029 531.42 398.344 547.583 395.835 549.871C394.318 551.255 394.281 551.374 394.21 555.144C394.167 557.406 393.914 559.223 393.599 559.538C393.303 559.834 393.062 560.445 393.062 560.895C393.062 561.612 392.632 561.715 389.646 561.715C387.673 561.715 386.231 561.523 386.231 561.26C386.231 560.98 383.955 560.804 380.312 560.804C376.669 560.804 374.392 560.98 374.392 561.26C374.392 561.51 374.013 561.715 373.549 561.715C372.149 561.715 369.04 565.074 367.794 567.932C367.374 568.895 366.843 570.039 366.613 570.474C366.384 570.909 366.196 571.665 366.196 572.155C366.196 572.644 365.991 573.171 365.741 573.326C365.49 573.481 365.286 574.198 365.286 574.92C365.286 575.642 365.081 576.359 364.83 576.514C364.58 576.669 364.375 577.286 364.375 577.885C364.375 578.485 364.196 579.446 363.978 580.021C363.761 580.596 363.228 582.297 362.795 583.799C362.362 585.302 361.823 586.887 361.597 587.322C361.372 587.757 361.187 588.513 361.187 589.002C361.187 589.492 360.983 590.019 360.732 590.174C360.482 590.329 360.277 590.856 360.277 591.346C360.277 591.835 360.091 592.592 359.863 593.026C359.082 594.52 358 598.704 358 600.229C358 601.369 358.407 602.162 359.609 603.364C361.658 605.413 362.668 605.404 363.954 603.324C364.514 602.417 365.903 601.085 367.04 600.364C368.795 599.251 369.574 599.053 372.205 599.053C373.967 599.053 375.303 599.25 375.303 599.509C375.303 599.759 375.713 599.964 376.214 599.964C376.715 599.964 377.124 600.169 377.124 600.419C377.124 600.67 377.357 600.875 377.641 600.875C378.296 600.875 380.311 603.193 380.311 603.948C380.311 604.262 380.517 604.517 380.767 604.517C381.018 604.517 381.223 604.828 381.223 605.208C381.223 605.587 381.478 606.714 381.789 607.712C382.274 609.266 382.539 609.526 383.643 609.526C385.063 609.526 386.231 608.616 386.231 607.51C386.231 607.116 386.396 606.794 386.597 606.794C386.946 606.794 387.821 603.681 388.356 600.529C388.495 599.713 388.791 598.932 389.014 598.795C389.237 598.657 389.419 598.056 389.419 597.46C389.419 596.863 389.624 596.248 389.874 596.094C390.125 595.939 390.33 595.309 390.33 594.694C390.33 594.08 390.518 593.221 390.747 592.786C390.977 592.351 391.507 590.766 391.926 589.263C393.866 582.31 394.535 580.099 394.922 579.366C395.151 578.931 395.338 578.072 395.338 577.458C395.338 576.843 395.543 576.213 395.794 576.058C396.044 575.904 396.249 575.274 396.249 574.659C396.249 574.044 396.447 573.186 396.688 572.751C396.93 572.316 397.56 570.423 398.09 568.545C398.62 566.667 399.258 564.413 399.51 563.536C399.761 562.66 400.076 561.379 400.209 560.69C400.342 560.002 400.632 559.438 400.854 559.438C401.076 559.438 401.258 558.824 401.258 558.072C401.258 557.321 401.463 556.706 401.713 556.706C401.964 556.706 402.168 556.372 402.168 555.962C402.168 555.553 402.668 554.785 403.279 554.255C404.587 553.119 409.15 548.966 413.432 545.015C416.459 542.221 417.559 541.801 416.964 543.666C416.793 544.202 416.494 545.562 416.299 546.689C416.104 547.816 415.51 550.889 414.977 553.519C414.445 556.148 414.01 558.665 414.009 559.111C414.008 559.558 414.725 561.401 415.601 563.208C416.478 565.014 417.195 566.733 417.195 567.026C417.195 567.319 417.351 567.627 417.541 567.711C417.997 567.91 421.293 574.555 421.293 575.274C421.293 575.58 421.498 575.831 421.748 575.831C421.999 575.831 422.204 576.224 422.204 576.704C422.204 577.184 422.358 577.644 422.545 577.728C422.986 577.924 426.302 584.626 426.302 585.321C426.302 585.611 426.507 585.848 426.757 585.848C427.008 585.848 427.212 586.241 427.212 586.721C427.212 587.201 427.366 587.662 427.554 587.746C427.995 587.942 431.311 594.644 431.311 595.338C431.311 595.629 431.515 595.866 431.766 595.866C432.016 595.866 432.221 596.259 432.221 596.739C432.221 597.219 432.378 597.68 432.569 597.763C432.76 597.847 433.76 599.657 434.79 601.785C437.482 607.347 438.064 607.898 441.259 607.917C443.503 607.93 444.046 607.759 445.104 606.701C445.782 606.024 446.337 605.062 446.337 604.565C446.337 604.068 446.524 603.545 446.752 603.404C447.195 603.13 446.75 601.494 445.351 598.261C444.891 597.2 444.514 596.175 444.513 595.985C444.511 595.794 444.24 595.121 443.911 594.49C443.581 593.859 443.025 592.373 442.676 591.189C442.326 590.005 441.88 589.036 441.684 589.036C441.488 589.036 441.328 588.523 441.328 587.897C441.328 587.271 441.123 586.759 440.873 586.759C440.622 586.759 440.417 586.465 440.417 586.106C440.417 585.747 439.883 584.159 439.23 582.577C438.577 580.995 437.86 579.24 437.637 578.677C436.626 576.128 436.289 575.308 435.864 574.351C433.956 570.06 432.303 565.122 432.637 564.708C432.853 564.439 433.141 563.4 433.276 562.398C433.504 560.714 434.246 557.199 435.439 552.153C435.705 551.026 436.026 549.489 436.152 548.738C436.344 547.595 437.059 545.642 437.554 544.908C437.716 544.667 439.108 546.276 440.479 548.289C441.071 549.158 441.915 549.871 442.353 549.873C442.791 549.875 443.15 550.081 443.15 550.331C443.15 550.582 443.524 550.787 443.982 550.787C444.903 550.787 451.034 553.111 453.73 554.483C454.165 554.704 454.831 554.885 455.21 554.885C455.589 554.885 455.899 555.09 455.899 555.34C455.899 556.019 460.875 555.903 461.51 555.209C462.995 553.585 463.767 550.787 462.729 550.787C462.479 550.787 462.274 550.397 462.274 549.921C462.274 549.324 461.64 548.795 460.227 548.214C459.101 547.75 458.179 547.218 458.178 547.03C458.177 546.843 457.766 546.689 457.265 546.689C456.764 546.689 456.355 546.484 456.355 546.233C456.355 545.983 455.962 545.778 455.482 545.778C455.002 545.778 454.541 545.624 454.457 545.436C454.374 545.249 452.922 544.431 451.232 543.619C449.447 542.762 448.158 541.856 448.158 541.456C448.158 541.078 447.953 540.769 447.703 540.769C447.453 540.769 447.248 540.376 447.248 539.896C447.248 539.416 447.094 538.955 446.906 538.872C446.718 538.788 445.543 536.671 444.295 534.167C441.995 529.55 439.469 525.057 438.612 524.054C438.352 523.752 438.141 523.37 438.141 523.205C438.141 523.041 437.383 522.212 436.458 521.365C434.829 519.872 434.656 519.823 430.994 519.823C428.777 519.823 427.212 520.012 427.212 520.279ZM374.256 567.481C374.416 567.897 373.999 569.819 373.331 571.752C372.663 573.685 372.116 575.598 372.116 576.004C372.116 576.409 371.911 576.741 371.66 576.741C371.41 576.741 371.205 577.356 371.205 578.107C371.205 578.859 371 579.473 370.75 579.473C370.499 579.473 370.294 579.886 370.294 580.391C370.294 580.895 370.115 581.663 369.895 582.098C369.676 582.533 368.937 584.733 368.253 586.987C367.568 589.241 366.825 591.44 366.602 591.875C366.379 592.31 366.196 593.066 366.196 593.556C366.196 594.045 365.991 594.573 365.741 594.728C365.49 594.882 365.286 595.611 365.286 596.348C365.286 597.575 365.152 597.687 363.692 597.687C362.411 597.687 362.098 597.512 362.098 596.793C362.098 595.785 363.262 591.954 363.934 590.75C364.176 590.315 364.375 589.444 364.375 588.814C364.375 588.185 364.58 587.67 364.83 587.67C365.081 587.67 365.286 587.155 365.286 586.525C365.286 585.896 365.482 585.025 365.723 584.59C366.383 583.394 369.384 574.199 369.384 573.37C369.384 572.97 369.589 572.643 369.839 572.643C370.089 572.643 370.294 572.041 370.294 571.304C370.294 570.567 370.473 569.855 370.691 569.72C370.909 569.585 371.211 568.856 371.363 568.099C371.582 566.999 371.871 566.724 372.801 566.724C373.467 566.724 374.09 567.048 374.256 567.481ZM415.385 576.058C414.695 577.664 413.558 581.807 413.228 583.917C413.1 584.734 412.814 585.514 412.591 585.652C412.368 585.79 412.186 586.2 412.186 586.564C412.186 586.927 411.164 588.299 409.914 589.61C408.664 590.922 407.64 592.14 407.637 592.316C407.635 592.493 406.557 593.753 405.242 595.115C399.767 600.788 398.969 602.662 400.58 606.058C401.495 607.987 404.743 609.085 406.637 608.106C409.132 606.817 416.94 599.076 420.126 594.734C420.611 594.073 421.357 593.13 421.783 592.638C422.21 592.147 422.805 591.148 423.108 590.418C423.594 589.243 423.509 588.815 422.364 586.673C421.654 585.343 420.968 584.152 420.841 584.027C420.714 583.902 420.261 583.082 419.834 582.206C418.786 580.056 417.034 577.022 416.679 576.741C416.52 576.616 416.296 576.104 416.181 575.603C415.999 574.811 415.896 574.87 415.385 576.058ZM369.384 603.151C369.384 603.402 369.151 603.607 368.867 603.607C367.937 603.607 366.198 606.082 366.148 607.477C366.048 610.299 366.301 611.462 367.259 612.57C369.62 615.302 373.197 615.786 375.896 613.738C376.804 613.05 377.554 612.139 377.563 611.716C377.573 611.293 377.785 610.819 378.035 610.665C378.769 610.211 378.559 607.323 377.695 605.981C375.894 603.185 375.068 602.696 372.136 602.696C370.605 602.696 369.384 602.898 369.384 603.151Z" fill="#8E7496"/>
<path fill-rule="evenodd" clip-rule="evenodd" d="M526.606 356.224C518.57 357.843 515.365 367.611 520.863 373.726C523.875 377.076 528.372 378.23 532.431 376.695C537.879 374.634 540.659 369.019 538.975 363.476C537.374 358.206 532.104 355.116 526.606 356.224ZM514.272 381.994C511.002 383.055 507.82 385.76 506.446 388.645C505.568 390.487 496.002 426.612 496 428.09C495.999 428.823 496.301 429.87 496.697 430.511C498.517 433.456 503.155 433.478 504.906 430.55C505.264 429.95 506.793 424.818 508.303 419.144C509.813 413.469 511.472 407.255 511.989 405.333C512.506 403.411 513.094 401.202 513.296 400.424L513.662 399.01H515.314C516.349 399.01 516.965 399.154 516.965 399.397C516.965 399.611 514.701 408.259 511.935 418.616C509.168 428.973 506.046 440.667 504.997 444.602L503.089 451.757L509.195 451.848L515.301 451.938L515.303 471.15C515.304 483.529 515.429 490.809 515.654 491.619C516.08 493.154 517.612 494.961 518.961 495.52C520.553 496.179 523.36 495.797 524.757 494.732C525.408 494.235 526.131 493.498 526.362 493.094C526.682 492.533 526.822 487.582 526.949 472.224L527.115 452.09H528.779H530.443L530.609 472.058C530.771 491.45 530.795 492.059 531.46 493.19C533.179 496.117 537.679 496.747 540.221 494.416C540.657 494.017 541.29 493.091 541.628 492.358C542.203 491.113 542.243 489.773 542.25 471.476L542.257 451.924H548.436C554.167 451.924 554.602 451.882 554.438 451.341C553.97 449.807 540.593 399.492 540.593 399.267C540.593 399.126 541.338 399.01 542.248 399.01H543.902L544.4 400.757C544.674 401.717 546.542 408.679 548.551 416.227C550.559 423.774 552.473 430.314 552.804 430.758C555.543 434.44 561.66 432.547 561.646 428.021C561.641 426.33 552.061 390.595 551.041 388.463C550.029 386.348 547.266 383.753 544.67 382.477L542.756 381.538L529.445 381.464C517.364 381.396 515.961 381.445 514.272 381.994Z" fill="#8E7496"/>
<path fill-rule="evenodd" clip-rule="evenodd" d="M427.606 15.2242C419.57 16.8432 416.365 26.6107 421.863 32.7258C424.875 36.0757 429.372 37.2302 433.431 35.695C438.879 33.6343 441.659 28.0194 439.975 22.4761C438.374 17.2063 433.104 14.1163 427.606 15.2242ZM415.272 40.9938C412.002 42.0554 408.82 44.76 407.446 47.6447C406.568 49.4873 397.002 85.6118 397 87.0898C396.999 87.8229 397.301 88.8699 397.697 89.5105C399.517 92.4558 404.155 92.4781 405.906 89.5498C406.264 88.9504 407.793 83.8177 409.303 78.1436C410.813 72.4695 412.472 66.2545 412.989 64.3326C413.506 62.4107 414.094 60.202 414.296 59.4239L414.662 58.0095H416.314C417.349 58.0095 417.965 58.1543 417.965 58.3972C417.965 58.6106 415.701 67.2592 412.935 77.6161C410.168 87.9734 407.046 99.6671 405.997 103.602L404.089 110.757L410.195 110.848L416.301 110.938L416.303 130.15C416.304 142.529 416.429 149.809 416.654 150.619C417.08 152.154 418.612 153.961 419.961 154.52C421.553 155.179 424.36 154.797 425.757 153.732C426.408 153.235 427.131 152.498 427.362 152.094C427.682 151.533 427.822 146.582 427.949 131.224L428.115 111.09H429.779H431.443L431.609 131.058C431.771 150.45 431.795 151.059 432.46 152.19C434.179 155.117 438.679 155.747 441.221 153.416C441.657 153.017 442.29 152.091 442.628 151.358C443.203 150.113 443.243 148.773 443.25 130.476L443.257 110.924H449.436C455.167 110.924 455.602 110.882 455.438 110.341C454.97 108.807 441.593 58.4921 441.593 58.2675C441.593 58.1257 442.338 58.0095 443.248 58.0095H444.902L445.4 59.7567C445.674 60.7175 447.542 67.6792 449.551 75.227C451.559 82.7744 453.473 89.3138 453.804 89.7585C456.543 93.4405 462.66 91.5466 462.646 87.0206C462.641 85.3296 453.061 49.5945 452.041 47.4633C451.029 45.348 448.266 42.7526 445.67 41.4773L443.756 40.5378L430.445 40.4636C418.364 40.3964 416.961 40.4453 415.272 40.9938Z" fill="#8E7496"/>
<g filter="url(#filter0_d_13_9356)">
<circle cx="600.431" cy="360.431" r="133.431" fill="black"/>
<circle cx="600.431" cy="360.431" r="139.888" stroke="white" stroke-width="12.9127"/>
</g>
<path d="M598.67 327.057L586.182 368.271H610.738L620.725 402.389H577.069L567.956 432.901H514.347L563.929 291.563H588.284L598.67 327.057Z" fill="white"/>
<path d="M688.954 432.901H634.146L592.769 291.563H638.522L688.954 432.901Z" fill="white"/>
</g>
<defs>
<filter id="filter0_d_13_9356" x="386.387" y="146.387" width="428.088" height="428.088" filterUnits="userSpaceOnUse" color-interpolation-filters="sRGB">
<feFlood flood-opacity="0" result="BackgroundImageFix"/>
<feColorMatrix in="SourceAlpha" type="matrix" values="0 0 0 0 0 0 0 0 0 0 0 0 0 0 0 0 0 0 127 0" result="hardAlpha"/>
<feMorphology radius="28" operator="dilate" in="SourceAlpha" result="effect1_dropShadow_13_9356"/>
<feOffset/>
<feGaussianBlur stdDeviation="19.85"/>
<feComposite in2="hardAlpha" operator="out"/>
<feColorMatrix type="matrix" values="0 0 0 0 0.890196 0 0 0 0 0.890196 0 0 0 0 0.890196 0 0 0 1 0"/>
<feBlend mode="normal" in2="BackgroundImageFix" result="effect1_dropShadow_13_9356"/>
<feBlend mode="normal" in="SourceGraphic" in2="effect1_dropShadow_13_9356" result="shape"/>
</filter>
<clipPath id="clip0_13_9356">
<rect width="1200" height="720" fill="white"/>
</clipPath>
</defs>
</svg>
