<svg width="1200" height="720" viewBox="0 0 1200 720" fill="none" xmlns="http://www.w3.org/2000/svg">
<g clip-path="url(#clip0_23_8154)">
<rect width="1200" height="720" fill="#EFEFEF"/>
<path d="M365.393 505V493H239.393V505H365.393Z" fill="#343434"/>
<path d="M365.393 373V361L239.393 361V373H365.393Z" fill="#343434"/>
<path d="M365.393 241V229L239.393 229V241H365.393Z" fill="#343434"/>
<path d="M365.393 109V97L239.393 97V109L365.393 109Z" fill="#343434"/>
<path d="M365.393 703V691H239.393V703H365.393Z" fill="#343434"/>
<path d="M365.393 472V460L239.393 460V472H365.393Z" fill="#343434"/>
<path d="M365.393 340V328L239.393 328L239.393 340H365.393Z" fill="#343434"/>
<path d="M365.393 208V196L239.393 196V208L365.393 208Z" fill="#343434"/>
<path d="M365.393 76V64L239.393 64V76L365.393 76Z" fill="#343434"/>
<path d="M365.393 670V658H239.393V670H365.393Z" fill="#343434"/>
<path d="M365.393 439V427L239.393 427V439H365.393Z" fill="#343434"/>
<path d="M365.393 307V295L239.393 295V307H365.393Z" fill="#343434"/>
<path d="M365.393 175L365.393 163L239.393 163V175L365.393 175Z" fill="#343434"/>
<path d="M365.393 43V31L239.393 31V43L365.393 43Z" fill="#343434"/>
<path d="M365.393 637V625H239.393V637H365.393Z" fill="#343434"/>
<path d="M365.393 571V559H239.393V571H365.393Z" fill="#343434"/>
<path d="M365.393 406V394L239.393 394V406H365.393Z" fill="#343434"/>
<path d="M365.393 274V262L239.393 262V274H365.393Z" fill="#343434"/>
<path d="M365.393 142V130L239.393 130V142L365.393 142Z" fill="#343434"/>
<path d="M365.393 10V-1.99998L239.393 -2V9.99999L365.393 10Z" fill="#343434"/>
<path d="M365.393 604V592H239.393V604H365.393Z" fill="#343434"/>
<path d="M365.393 538V526H239.393V538H365.393Z" fill="#343434"/>
<path d="M340.393 718H352.393L352.393 -31L340.393 -31L340.393 718Z" fill="#343434"/>
<path d="M257.393 718H269.393L269.393 -31L257.393 -31L257.393 718Z" fill="#343434"/>
<path d="M-3.89742 763.105L4.58786 754.62L-84.5076 665.524L-92.9929 674.009L-3.89742 763.105Z" fill="#343434"/>
<path d="M89.4407 669.767L97.926 661.282L8.83051 572.186L0.34523 580.671L89.4407 669.767Z" fill="#343434"/>
<path d="M182.779 576.429L191.264 567.943L102.169 478.848L93.6833 487.333L182.779 576.429Z" fill="#343434"/>
<path d="M276.117 483.091L284.602 474.605L195.507 385.51L187.021 393.995L276.117 483.091Z" fill="#343434"/>
<path d="M-143.905 903.112L-135.419 894.627L-224.515 805.531L-233 814.017L-143.905 903.112Z" fill="#343434"/>
<path d="M19.4371 739.77L27.9224 731.285L-61.1731 642.19L-69.6583 650.675L19.4371 739.77Z" fill="#343434"/>
<path d="M112.775 646.432L121.26 637.947L32.165 548.852L23.6797 557.337L112.775 646.432Z" fill="#343434"/>
<path d="M206.113 553.094L214.599 544.609L125.503 455.513L117.018 463.999L206.113 553.094Z" fill="#343434"/>
<path d="M299.451 459.756L307.937 451.271L218.841 362.175L210.356 370.661L299.451 459.756Z" fill="#343434"/>
<path d="M-120.57 879.778L-112.085 871.292L-201.18 782.197L-209.665 790.682L-120.57 879.778Z" fill="#343434"/>
<path d="M42.7716 716.436L51.2569 707.951L-37.8385 618.855L-46.3238 627.34L42.7716 716.436Z" fill="#343434"/>
<path d="M136.11 623.098L144.595 614.612L55.4995 525.517L47.0143 534.002L136.11 623.098Z" fill="#343434"/>
<path d="M229.448 529.76L237.933 521.274L148.838 432.179L140.352 440.664L229.448 529.76Z" fill="#343434"/>
<path d="M322.786 436.422L331.271 427.936L242.176 338.841L233.69 347.326L322.786 436.422Z" fill="#343434"/>
<path d="M-97.2355 856.443L-88.7502 847.958L-177.846 758.862L-186.331 767.348L-97.2355 856.443Z" fill="#343434"/>
<path d="M-50.5665 809.774L-42.0812 801.289L-131.177 712.193L-139.662 720.678L-50.5665 809.774Z" fill="#343434"/>
<path d="M66.1062 693.101L74.5914 684.616L-14.504 595.521L-22.9893 604.006L66.1062 693.101Z" fill="#343434"/>
<path d="M159.444 599.763L167.93 591.278L78.8341 502.182L70.3488 510.668L159.444 599.763Z" fill="#343434"/>
<path d="M252.782 506.425L261.268 497.94L172.172 408.844L163.687 417.33L252.782 506.425Z" fill="#343434"/>
<path d="M346.12 413.087L354.606 404.602L265.51 315.506L257.025 323.992L346.12 413.087Z" fill="#343434"/>
<path d="M-73.901 833.108L-65.4157 824.623L-154.511 735.528L-162.996 744.013L-73.901 833.108Z" fill="#343434"/>
<path d="M-27.2319 786.439L-18.7467 777.954L-107.842 688.859L-116.327 697.344L-27.2319 786.439Z" fill="#343434"/>
<path d="M-172.189 896.041L-163.704 904.526L365.919 374.903L357.434 366.418L-172.189 896.041Z" fill="#343434"/>
<path d="M-230.879 837.351L-222.393 845.836L307.23 316.213L298.744 307.728L-230.879 837.351Z" fill="#343434"/>
<path d="M834.919 215.526L834.919 227.526L960.919 227.526L960.919 215.526L834.919 215.526Z" fill="#343434"/>
<path d="M834.919 347.526L834.919 359.526L960.919 359.526L960.919 347.526L834.919 347.526Z" fill="#343434"/>
<path d="M834.919 479.526L834.919 491.526L960.919 491.526L960.919 479.526L834.919 479.526Z" fill="#343434"/>
<path d="M834.919 611.526L834.919 623.526L960.919 623.526L960.919 611.526L834.919 611.526Z" fill="#343434"/>
<path d="M834.919 17.5263L834.919 29.5263L960.919 29.5263L960.919 17.5263L834.919 17.5263Z" fill="#343434"/>
<path d="M834.919 248.526L834.919 260.526L960.919 260.526L960.919 248.526L834.919 248.526Z" fill="#343434"/>
<path d="M834.919 380.526L834.919 392.526L960.919 392.526L960.919 380.526L834.919 380.526Z" fill="#343434"/>
<path d="M834.919 512.526L834.919 524.526L960.919 524.526L960.919 512.526L834.919 512.526Z" fill="#343434"/>
<path d="M834.919 644.526L834.919 656.526L960.919 656.526L960.919 644.526L834.919 644.526Z" fill="#343434"/>
<path d="M834.919 50.5263L834.919 62.5263L960.919 62.5263L960.919 50.5263L834.919 50.5263Z" fill="#343434"/>
<path d="M834.919 281.526L834.919 293.526L960.919 293.526L960.919 281.526L834.919 281.526Z" fill="#343434"/>
<path d="M834.919 413.526L834.919 425.526L960.919 425.526L960.919 413.526L834.919 413.526Z" fill="#343434"/>
<path d="M834.919 545.526L834.919 557.526L960.919 557.526L960.919 545.526L834.919 545.526Z" fill="#343434"/>
<path d="M834.919 677.526L834.919 689.526L960.919 689.526L960.919 677.526L834.919 677.526Z" fill="#343434"/>
<path d="M834.919 83.5263L834.919 95.5263L960.919 95.5263L960.919 83.5263L834.919 83.5263Z" fill="#343434"/>
<path d="M834.919 149.526L834.919 161.526L960.919 161.526L960.919 149.526L834.919 149.526Z" fill="#343434"/>
<path d="M834.919 314.526L834.919 326.526L960.919 326.526L960.919 314.526L834.919 314.526Z" fill="#343434"/>
<path d="M834.919 446.526L834.919 458.526L960.919 458.526L960.919 446.526L834.919 446.526Z" fill="#343434"/>
<path d="M834.919 578.526L834.919 590.526L960.919 590.526L960.919 578.526L834.919 578.526Z" fill="#343434"/>
<path d="M834.919 710.526L834.919 722.526L960.919 722.526L960.919 710.526L834.919 710.526Z" fill="#343434"/>
<path d="M834.919 116.526L834.919 128.526L960.919 128.526L960.919 116.526L834.919 116.526Z" fill="#343434"/>
<path d="M834.919 182.526L834.919 194.526L960.919 194.526L960.919 182.526L834.919 182.526Z" fill="#343434"/>
<path d="M859.919 2.5263L847.919 2.5263L847.919 751.526L859.919 751.526L859.919 2.5263Z" fill="#343434"/>
<path d="M942.919 2.52629L930.919 2.52629L930.919 751.526L942.919 751.526L942.919 2.52629Z" fill="#343434"/>
<path d="M1204.21 -42.5787L1195.72 -34.0934L1284.82 55.0021L1293.31 46.5168L1204.21 -42.5787Z" fill="#343434"/>
<path d="M1110.87 50.7595L1102.39 59.2447L1191.48 148.34L1199.97 139.855L1110.87 50.7595Z" fill="#343434"/>
<path d="M1017.53 144.098L1009.05 152.583L1098.14 241.678L1106.63 233.193L1017.53 144.098Z" fill="#343434"/>
<path d="M924.196 237.436L915.711 245.921L1004.81 335.016L1013.29 326.531L924.196 237.436Z" fill="#343434"/>
<path d="M1344.22 -182.586L1335.73 -174.101L1424.83 -85.0051L1433.31 -93.4904L1344.22 -182.586Z" fill="#343434"/>
<path d="M1180.88 -19.2441L1172.39 -10.7588L1261.49 78.3366L1269.97 69.8513L1180.88 -19.2441Z" fill="#343434"/>
<path d="M1087.54 74.094L1079.05 82.5793L1168.15 171.675L1176.63 163.189L1087.54 74.094Z" fill="#343434"/>
<path d="M994.199 167.432L985.714 175.917L1074.81 265.013L1083.29 256.528L994.199 167.432Z" fill="#343434"/>
<path d="M900.861 260.77L892.376 269.255L981.471 358.351L989.957 349.866L900.861 260.77Z" fill="#343434"/>
<path d="M1320.88 -159.251L1312.4 -150.766L1401.49 -61.6705L1409.98 -70.1558L1320.88 -159.251Z" fill="#343434"/>
<path d="M1157.54 4.09042L1149.06 12.5757L1238.15 101.671L1246.64 93.1859L1157.54 4.09042Z" fill="#343434"/>
<path d="M1064.2 97.4285L1055.72 105.914L1144.81 195.009L1153.3 186.524L1064.2 97.4285Z" fill="#343434"/>
<path d="M970.865 190.767L962.38 199.252L1051.48 288.347L1059.96 279.862L970.865 190.767Z" fill="#343434"/>
<path d="M877.527 284.105L869.042 292.59L958.137 381.685L966.622 373.2L877.527 284.105Z" fill="#343434"/>
<path d="M1297.55 -135.917L1289.06 -127.431L1378.16 -38.336L1386.64 -46.8213L1297.55 -135.917Z" fill="#343434"/>
<path d="M1250.88 -89.2477L1242.39 -80.7624L1331.49 8.33302L1339.97 -0.152214L1250.88 -89.2477Z" fill="#343434"/>
<path d="M1134.21 27.425L1125.72 35.9102L1214.82 125.006L1223.3 116.52L1134.21 27.425Z" fill="#343434"/>
<path d="M1040.87 120.763L1032.38 129.248L1121.48 218.344L1129.96 209.858L1040.87 120.763Z" fill="#343434"/>
<path d="M947.53 214.101L939.045 222.586L1028.14 311.682L1036.63 303.197L947.53 214.101Z" fill="#343434"/>
<path d="M854.192 307.439L845.707 315.925L934.802 405.02L943.288 396.535L854.192 307.439Z" fill="#343434"/>
<path d="M1274.21 -112.582L1265.73 -104.097L1354.82 -15.0015L1363.31 -23.4867L1274.21 -112.582Z" fill="#343434"/>
<path d="M1227.54 -65.9131L1219.06 -57.4279L1308.15 31.6676L1316.64 23.1823L1227.54 -65.9131Z" fill="#343434"/>
<path d="M1372.5 -175.515L1364.02 -184L834.393 345.623L842.879 354.108L1372.5 -175.515Z" fill="#343434"/>
<path d="M1431.19 -116.825L1422.71 -125.31L893.083 404.313L901.568 412.798L1431.19 -116.825Z" fill="#343434"/>
<path d="M419.368 405.28C410.835 405.28 403.752 404.085 398.12 401.696C392.488 399.221 388.221 396.021 385.32 392.096C382.419 388.171 380.883 383.989 380.712 379.552C380.712 378.869 380.968 378.272 381.48 377.76C382.077 377.163 382.76 376.864 383.528 376.864H399.656C400.851 376.864 401.747 377.077 402.344 377.504C403.027 377.931 403.624 378.485 404.136 379.168C404.819 380.448 405.757 381.685 406.952 382.88C408.232 384.075 409.853 385.056 411.816 385.824C413.864 386.507 416.381 386.848 419.368 386.848C424.317 386.848 428.029 386.08 430.504 384.544C433.064 383.008 434.344 380.917 434.344 378.272C434.344 376.395 433.661 374.859 432.296 373.664C430.931 372.384 428.712 371.275 425.64 370.336C422.653 369.312 418.643 368.288 413.608 367.264C407.123 365.899 401.576 364.149 396.968 362.016C392.445 359.797 388.989 356.939 386.6 353.44C384.211 349.856 383.016 345.419 383.016 340.128C383.016 334.923 384.467 330.272 387.368 326.176C390.355 322.08 394.493 318.88 399.784 316.576C405.075 314.272 411.347 313.12 418.6 313.12C424.488 313.12 429.651 313.888 434.088 315.424C438.611 316.96 442.408 319.008 445.48 321.568C448.552 324.128 450.856 326.859 452.392 329.76C454.013 332.576 454.867 335.349 454.952 338.08C454.952 338.763 454.696 339.403 454.184 340C453.672 340.512 453.032 340.768 452.264 340.768H435.368C434.429 340.768 433.619 340.597 432.936 340.256C432.253 339.915 431.656 339.36 431.144 338.592C430.632 336.715 429.267 335.093 427.048 333.728C424.915 332.277 422.099 331.552 418.6 331.552C414.845 331.552 411.901 332.235 409.768 333.6C407.72 334.88 406.696 336.885 406.696 339.616C406.696 341.323 407.251 342.816 408.36 344.096C409.555 345.376 411.475 346.485 414.12 347.424C416.851 348.363 420.563 349.344 425.256 350.368C433.021 351.819 439.293 353.653 444.072 355.872C448.851 358.005 452.349 360.821 454.568 364.32C456.787 367.733 457.896 372.043 457.896 377.248C457.896 383.051 456.232 388.085 452.904 392.352C449.661 396.533 445.139 399.733 439.336 401.952C433.533 404.171 426.877 405.28 419.368 405.28ZM487.862 404C486.582 404 485.643 403.701 485.046 403.104C484.449 402.507 483.979 401.739 483.638 400.8L465.206 341.536C465.035 341.109 464.95 340.683 464.95 340.256C464.95 339.488 465.249 338.848 465.846 338.336C466.443 337.739 467.126 337.44 467.894 337.44H481.078C482.187 337.44 483.041 337.739 483.638 338.336C484.321 338.933 484.747 339.531 484.918 340.128L495.67 376.736L507.19 340.256C507.361 339.659 507.745 339.061 508.342 338.464C509.025 337.781 509.963 337.44 511.158 337.44H519.606C520.801 337.44 521.697 337.781 522.294 338.464C522.977 339.061 523.403 339.659 523.574 340.256L535.094 376.736L545.846 340.128C546.017 339.531 546.401 338.933 546.998 338.336C547.681 337.739 548.577 337.44 549.686 337.44H562.87C563.638 337.44 564.278 337.739 564.79 338.336C565.387 338.848 565.686 339.488 565.686 340.256C565.686 340.683 565.643 341.109 565.558 341.536L547.126 400.8C546.87 401.739 546.401 402.507 545.718 403.104C545.121 403.701 544.182 404 542.902 404H531.382C530.187 404 529.249 403.701 528.566 403.104C527.883 402.507 527.414 401.739 527.158 400.8L515.382 365.728L503.606 400.8C503.35 401.739 502.881 402.507 502.198 403.104C501.515 403.701 500.577 404 499.382 404H487.862ZM579.752 404C578.813 404 578.045 403.701 577.448 403.104C576.851 402.507 576.552 401.739 576.552 400.8V340.64C576.552 339.701 576.851 338.933 577.448 338.336C578.045 337.739 578.813 337.44 579.752 337.44H594.856C595.709 337.44 596.435 337.739 597.032 338.336C597.715 338.933 598.056 339.701 598.056 340.64V400.8C598.056 401.739 597.715 402.507 597.032 403.104C596.435 403.701 595.709 404 594.856 404H579.752ZM579.624 327.84C578.685 327.84 577.917 327.541 577.32 326.944C576.723 326.347 576.424 325.579 576.424 324.64V313.248C576.424 312.309 576.723 311.541 577.32 310.944C577.917 310.261 578.685 309.92 579.624 309.92H594.856C595.795 309.92 596.563 310.261 597.16 310.944C597.843 311.541 598.184 312.309 598.184 313.248V324.64C598.184 325.579 597.843 326.347 597.16 326.944C596.563 327.541 595.795 327.84 594.856 327.84H579.624ZM647.1 404C641.639 404 636.903 403.147 632.892 401.44C628.967 399.648 625.937 396.917 623.804 393.248C621.671 389.493 620.604 384.672 620.604 378.784V354.208H610.62C609.681 354.208 608.871 353.909 608.188 353.312C607.591 352.715 607.292 351.947 607.292 351.008V340.64C607.292 339.701 607.591 338.933 608.188 338.336C608.871 337.739 609.681 337.44 610.62 337.44H620.604V316.32C620.604 315.381 620.903 314.613 621.5 314.016C622.183 313.419 622.951 313.12 623.804 313.12H638.652C639.591 313.12 640.359 313.419 640.956 314.016C641.553 314.613 641.852 315.381 641.852 316.32V337.44H657.852C658.791 337.44 659.559 337.739 660.156 338.336C660.753 338.933 661.052 339.701 661.052 340.64V351.008C661.052 351.947 660.753 352.715 660.156 353.312C659.559 353.909 658.791 354.208 657.852 354.208H641.852V376.992C641.852 379.893 642.407 382.197 643.516 383.904C644.625 385.611 646.503 386.464 649.148 386.464H659.004C659.943 386.464 660.711 386.763 661.308 387.36C661.905 387.957 662.204 388.725 662.204 389.664V400.8C662.204 401.739 661.905 402.507 661.308 403.104C660.711 403.701 659.943 404 659.004 404H647.1ZM703.394 405.28C697.079 405.28 691.49 404.128 686.626 401.824C681.762 399.52 677.879 396.192 674.978 391.84C672.162 387.403 670.626 382.112 670.37 375.968C670.285 374.603 670.242 372.896 670.242 370.848C670.242 368.715 670.285 366.965 670.37 365.6C670.626 359.371 672.162 354.08 674.978 349.728C677.794 345.291 681.634 341.92 686.498 339.616C691.447 337.312 697.079 336.16 703.394 336.16C709.282 336.16 714.317 337.013 718.498 338.72C722.679 340.341 726.093 342.389 728.738 344.864C731.383 347.339 733.346 349.899 734.626 352.544C735.991 355.104 736.717 357.365 736.802 359.328C736.887 360.181 736.589 360.949 735.906 361.632C735.223 362.229 734.455 362.528 733.602 362.528H717.346C716.407 362.528 715.682 362.315 715.17 361.888C714.658 361.461 714.189 360.821 713.762 359.968C712.738 357.323 711.415 355.445 709.794 354.336C708.258 353.227 706.253 352.672 703.778 352.672C700.365 352.672 697.719 353.781 695.842 356C694.05 358.219 693.069 361.632 692.898 366.24C692.813 369.653 692.813 372.683 692.898 375.328C693.069 380.021 694.05 383.435 695.842 385.568C697.719 387.701 700.365 388.768 703.778 388.768C706.423 388.768 708.514 388.213 710.05 387.104C711.586 385.995 712.823 384.117 713.762 381.472C714.189 380.619 714.658 379.979 715.17 379.552C715.682 379.125 716.407 378.912 717.346 378.912H733.602C734.455 378.912 735.223 379.253 735.906 379.936C736.589 380.533 736.887 381.259 736.802 382.112C736.717 383.563 736.29 385.269 735.522 387.232C734.754 389.109 733.559 391.115 731.938 393.248C730.317 395.381 728.183 397.387 725.538 399.264C722.978 401.056 719.863 402.507 716.194 403.616C712.525 404.725 708.258 405.28 703.394 405.28ZM751.502 404C750.563 404 749.795 403.701 749.198 403.104C748.601 402.507 748.302 401.739 748.302 400.8V316.32C748.302 315.381 748.601 314.613 749.198 314.016C749.795 313.419 750.563 313.12 751.502 313.12H767.886C768.825 313.12 769.593 313.419 770.19 314.016C770.787 314.613 771.086 315.381 771.086 316.32V344.864C773.39 342.219 776.206 340.128 779.534 338.592C782.947 336.971 786.873 336.16 791.31 336.16C796.259 336.16 800.654 337.269 804.494 339.488C808.419 341.707 811.491 344.992 813.71 349.344C815.929 353.611 817.038 358.859 817.038 365.088V400.8C817.038 401.739 816.739 402.507 816.142 403.104C815.545 403.701 814.777 404 813.838 404H797.326C796.473 404 795.705 403.701 795.022 403.104C794.425 402.507 794.126 401.739 794.126 400.8V365.856C794.126 361.845 793.145 358.773 791.182 356.64C789.305 354.421 786.489 353.312 782.734 353.312C779.235 353.312 776.419 354.421 774.286 356.64C772.153 358.773 771.086 361.845 771.086 365.856V400.8C771.086 401.739 770.787 402.507 770.19 403.104C769.593 403.701 768.825 404 767.886 404H751.502Z" fill="black"/>
</g>
<defs>
<clipPath id="clip0_23_8154">
<rect width="1200" height="720" fill="white"/>
</clipPath>
</defs>
</svg>
