<svg width="1200" height="720" viewBox="0 0 1200 720" fill="none" xmlns="http://www.w3.org/2000/svg">
<g clip-path="url(#clip0_23_8065)">
<rect width="1200" height="720" fill="#EFEFEF"/>
<path d="M365.393 505V493H239.393V505H365.393Z" fill="#343434"/>
<path d="M365.393 373V361L239.393 361V373H365.393Z" fill="#343434"/>
<path d="M365.393 241V229L239.393 229V241H365.393Z" fill="#343434"/>
<path d="M365.393 109V97L239.393 97V109L365.393 109Z" fill="#343434"/>
<path d="M365.393 703V691H239.393V703H365.393Z" fill="#343434"/>
<path d="M365.393 472V460L239.393 460V472H365.393Z" fill="#343434"/>
<path d="M365.393 340V328L239.393 328L239.393 340H365.393Z" fill="#343434"/>
<path d="M365.393 208V196L239.393 196V208L365.393 208Z" fill="#343434"/>
<path d="M365.393 76V64L239.393 64V76L365.393 76Z" fill="#343434"/>
<path d="M365.393 670V658H239.393V670H365.393Z" fill="#343434"/>
<path d="M365.393 439V427L239.393 427V439H365.393Z" fill="#343434"/>
<path d="M365.393 307V295L239.393 295V307H365.393Z" fill="#343434"/>
<path d="M365.393 175L365.393 163L239.393 163V175L365.393 175Z" fill="#343434"/>
<path d="M365.393 43V31L239.393 31V43L365.393 43Z" fill="#343434"/>
<path d="M365.393 637V625H239.393V637H365.393Z" fill="#343434"/>
<path d="M365.393 571V559H239.393V571H365.393Z" fill="#343434"/>
<path d="M365.393 406V394L239.393 394V406H365.393Z" fill="#343434"/>
<path d="M365.393 274V262L239.393 262V274H365.393Z" fill="#343434"/>
<path d="M365.393 142V130L239.393 130V142L365.393 142Z" fill="#343434"/>
<path d="M365.393 10V-1.99998L239.393 -2V9.99999L365.393 10Z" fill="#343434"/>
<path d="M365.393 604V592H239.393V604H365.393Z" fill="#343434"/>
<path d="M365.393 538V526H239.393V538H365.393Z" fill="#343434"/>
<path d="M340.393 718H352.393L352.393 -31L340.393 -31L340.393 718Z" fill="#343434"/>
<path d="M257.393 718H269.393L269.393 -31L257.393 -31L257.393 718Z" fill="#343434"/>
<path d="M-3.89742 763.105L4.58786 754.62L-84.5076 665.524L-92.9929 674.009L-3.89742 763.105Z" fill="#343434"/>
<path d="M89.4407 669.767L97.926 661.282L8.83051 572.186L0.34523 580.671L89.4407 669.767Z" fill="#343434"/>
<path d="M182.779 576.429L191.264 567.943L102.169 478.848L93.6833 487.333L182.779 576.429Z" fill="#343434"/>
<path d="M276.117 483.091L284.602 474.605L195.507 385.51L187.021 393.995L276.117 483.091Z" fill="#343434"/>
<path d="M-143.905 903.112L-135.419 894.627L-224.515 805.531L-233 814.017L-143.905 903.112Z" fill="#343434"/>
<path d="M19.4371 739.77L27.9224 731.285L-61.1731 642.19L-69.6583 650.675L19.4371 739.77Z" fill="#343434"/>
<path d="M112.775 646.432L121.26 637.947L32.165 548.852L23.6797 557.337L112.775 646.432Z" fill="#343434"/>
<path d="M206.113 553.094L214.599 544.609L125.503 455.513L117.018 463.999L206.113 553.094Z" fill="#343434"/>
<path d="M299.451 459.756L307.937 451.271L218.841 362.175L210.356 370.661L299.451 459.756Z" fill="#343434"/>
<path d="M-120.57 879.778L-112.085 871.292L-201.18 782.197L-209.665 790.682L-120.57 879.778Z" fill="#343434"/>
<path d="M42.7716 716.436L51.2569 707.951L-37.8385 618.855L-46.3238 627.34L42.7716 716.436Z" fill="#343434"/>
<path d="M136.11 623.098L144.595 614.612L55.4995 525.517L47.0143 534.002L136.11 623.098Z" fill="#343434"/>
<path d="M229.448 529.76L237.933 521.274L148.838 432.179L140.352 440.664L229.448 529.76Z" fill="#343434"/>
<path d="M322.786 436.422L331.271 427.936L242.176 338.841L233.69 347.326L322.786 436.422Z" fill="#343434"/>
<path d="M-97.2355 856.443L-88.7502 847.958L-177.846 758.862L-186.331 767.348L-97.2355 856.443Z" fill="#343434"/>
<path d="M-50.5665 809.774L-42.0812 801.289L-131.177 712.193L-139.662 720.678L-50.5665 809.774Z" fill="#343434"/>
<path d="M66.1062 693.101L74.5914 684.616L-14.504 595.521L-22.9893 604.006L66.1062 693.101Z" fill="#343434"/>
<path d="M159.444 599.763L167.93 591.278L78.8341 502.182L70.3488 510.668L159.444 599.763Z" fill="#343434"/>
<path d="M252.782 506.425L261.268 497.94L172.172 408.844L163.687 417.33L252.782 506.425Z" fill="#343434"/>
<path d="M346.12 413.087L354.606 404.602L265.51 315.506L257.025 323.992L346.12 413.087Z" fill="#343434"/>
<path d="M-73.901 833.108L-65.4157 824.623L-154.511 735.528L-162.996 744.013L-73.901 833.108Z" fill="#343434"/>
<path d="M-27.2319 786.439L-18.7467 777.954L-107.842 688.859L-116.327 697.344L-27.2319 786.439Z" fill="#343434"/>
<path d="M-172.189 896.041L-163.704 904.526L365.919 374.903L357.434 366.418L-172.189 896.041Z" fill="#343434"/>
<path d="M-230.879 837.351L-222.393 845.836L307.23 316.213L298.744 307.728L-230.879 837.351Z" fill="#343434"/>
<path d="M834.919 215.526L834.919 227.526L960.919 227.526L960.919 215.526L834.919 215.526Z" fill="#343434"/>
<path d="M834.919 347.526L834.919 359.526L960.919 359.526L960.919 347.526L834.919 347.526Z" fill="#343434"/>
<path d="M834.919 479.526L834.919 491.526L960.919 491.526L960.919 479.526L834.919 479.526Z" fill="#343434"/>
<path d="M834.919 611.526L834.919 623.526L960.919 623.526L960.919 611.526L834.919 611.526Z" fill="#343434"/>
<path d="M834.919 17.5264L834.919 29.5264L960.919 29.5264L960.919 17.5264L834.919 17.5264Z" fill="#343434"/>
<path d="M834.919 248.526L834.919 260.526L960.919 260.526L960.919 248.526L834.919 248.526Z" fill="#343434"/>
<path d="M834.919 380.526L834.919 392.526L960.919 392.526L960.919 380.526L834.919 380.526Z" fill="#343434"/>
<path d="M834.919 512.526L834.919 524.526L960.919 524.526L960.919 512.526L834.919 512.526Z" fill="#343434"/>
<path d="M834.919 644.526L834.919 656.526L960.919 656.526L960.919 644.526L834.919 644.526Z" fill="#343434"/>
<path d="M834.919 50.5264L834.919 62.5264L960.919 62.5264L960.919 50.5264L834.919 50.5264Z" fill="#343434"/>
<path d="M834.919 281.526L834.919 293.526L960.919 293.526L960.919 281.526L834.919 281.526Z" fill="#343434"/>
<path d="M834.919 413.526L834.919 425.526L960.919 425.526L960.919 413.526L834.919 413.526Z" fill="#343434"/>
<path d="M834.919 545.526L834.919 557.526L960.919 557.526L960.919 545.526L834.919 545.526Z" fill="#343434"/>
<path d="M834.919 677.526L834.919 689.526L960.919 689.526L960.919 677.526L834.919 677.526Z" fill="#343434"/>
<path d="M834.919 83.5264L834.919 95.5264L960.919 95.5264L960.919 83.5264L834.919 83.5264Z" fill="#343434"/>
<path d="M834.919 149.526L834.919 161.526L960.919 161.526L960.919 149.526L834.919 149.526Z" fill="#343434"/>
<path d="M834.919 314.526L834.919 326.526L960.919 326.526L960.919 314.526L834.919 314.526Z" fill="#343434"/>
<path d="M834.919 446.526L834.919 458.526L960.919 458.526L960.919 446.526L834.919 446.526Z" fill="#343434"/>
<path d="M834.919 578.526L834.919 590.526L960.919 590.526L960.919 578.526L834.919 578.526Z" fill="#343434"/>
<path d="M834.919 710.526L834.919 722.526L960.919 722.526L960.919 710.526L834.919 710.526Z" fill="#343434"/>
<path d="M834.919 116.526L834.919 128.526L960.919 128.526L960.919 116.526L834.919 116.526Z" fill="#343434"/>
<path d="M834.919 182.526L834.919 194.526L960.919 194.526L960.919 182.526L834.919 182.526Z" fill="#343434"/>
<path d="M859.919 2.52642L847.919 2.52642L847.919 751.526L859.919 751.526L859.919 2.52642Z" fill="#343434"/>
<path d="M942.919 2.52641L930.919 2.52641L930.919 751.526L942.919 751.526L942.919 2.52641Z" fill="#343434"/>
<path d="M1204.21 -42.5785L1195.72 -34.0932L1284.82 55.0022L1293.31 46.5169L1204.21 -42.5785Z" fill="#343434"/>
<path d="M1110.87 50.7596L1102.39 59.2448L1191.48 148.34L1199.97 139.855L1110.87 50.7596Z" fill="#343434"/>
<path d="M1017.53 144.098L1009.05 152.583L1098.14 241.678L1106.63 233.193L1017.53 144.098Z" fill="#343434"/>
<path d="M924.196 237.436L915.711 245.921L1004.81 335.017L1013.29 326.531L924.196 237.436Z" fill="#343434"/>
<path d="M1344.22 -182.586L1335.73 -174.1L1424.83 -85.0049L1433.31 -93.4902L1344.22 -182.586Z" fill="#343434"/>
<path d="M1180.88 -19.244L1172.39 -10.7587L1261.49 78.3367L1269.97 69.8515L1180.88 -19.244Z" fill="#343434"/>
<path d="M1087.54 74.0941L1079.05 82.5794L1168.15 171.675L1176.63 163.19L1087.54 74.0941Z" fill="#343434"/>
<path d="M994.199 167.432L985.714 175.918L1074.81 265.013L1083.29 256.528L994.199 167.432Z" fill="#343434"/>
<path d="M900.861 260.77L892.376 269.256L981.471 358.351L989.957 349.866L900.861 260.77Z" fill="#343434"/>
<path d="M1320.88 -159.251L1312.4 -150.766L1401.49 -61.6704L1409.98 -70.1557L1320.88 -159.251Z" fill="#343434"/>
<path d="M1157.54 4.09054L1149.06 12.5758L1238.15 101.671L1246.64 93.186L1157.54 4.09054Z" fill="#343434"/>
<path d="M1064.2 97.4286L1055.72 105.914L1144.81 195.009L1153.3 186.524L1064.2 97.4286Z" fill="#343434"/>
<path d="M970.865 190.767L962.38 199.252L1051.48 288.347L1059.96 279.862L970.865 190.767Z" fill="#343434"/>
<path d="M877.527 284.105L869.042 292.59L958.137 381.686L966.622 373.2L877.527 284.105Z" fill="#343434"/>
<path d="M1297.55 -135.917L1289.06 -127.431L1378.16 -38.3359L1386.64 -46.8212L1297.55 -135.917Z" fill="#343434"/>
<path d="M1250.88 -89.2475L1242.39 -80.7623L1331.49 8.33314L1339.97 -0.152091L1250.88 -89.2475Z" fill="#343434"/>
<path d="M1134.21 27.4251L1125.72 35.9104L1214.82 125.006L1223.3 116.521L1134.21 27.4251Z" fill="#343434"/>
<path d="M1040.87 120.763L1032.38 129.248L1121.48 218.344L1129.96 209.859L1040.87 120.763Z" fill="#343434"/>
<path d="M947.53 214.101L939.045 222.587L1028.14 311.682L1036.63 303.197L947.53 214.101Z" fill="#343434"/>
<path d="M854.192 307.439L845.707 315.925L934.802 405.02L943.288 396.535L854.192 307.439Z" fill="#343434"/>
<path d="M1274.21 -112.582L1265.73 -104.097L1354.82 -15.0013L1363.31 -23.4866L1274.21 -112.582Z" fill="#343434"/>
<path d="M1227.54 -65.913L1219.06 -57.4278L1308.15 31.6677L1316.64 23.1824L1227.54 -65.913Z" fill="#343434"/>
<path d="M1372.5 -175.515L1364.02 -184L834.393 345.623L842.879 354.108L1372.5 -175.515Z" fill="#343434"/>
<path d="M1431.19 -116.825L1422.71 -125.31L893.083 404.313L901.568 412.798L1431.19 -116.825Z" fill="#343434"/>
<path d="M468.56 404C467.109 404 465.957 403.616 465.104 402.848C464.251 402.08 463.653 401.184 463.312 400.16L437.2 318.24C437.029 317.813 436.944 317.429 436.944 317.088C436.944 316.405 437.2 315.808 437.712 315.296C438.309 314.699 438.992 314.4 439.76 314.4H455.632C456.997 314.4 458.064 314.784 458.832 315.552C459.6 316.32 460.069 317.045 460.24 317.728L478.288 376.864L496.464 317.728C496.72 317.045 497.189 316.32 497.872 315.552C498.64 314.784 499.707 314.4 501.072 314.4H516.944C517.712 314.4 518.352 314.699 518.864 315.296C519.461 315.808 519.76 316.405 519.76 317.088C519.76 317.429 519.675 317.813 519.504 318.24L493.392 400.16C493.051 401.184 492.453 402.08 491.6 402.848C490.832 403.616 489.68 404 488.144 404H468.56ZM542.77 405.28C538.162 405.28 534.023 404.427 530.354 402.72C526.77 400.928 523.911 398.539 521.778 395.552C519.645 392.565 518.578 389.195 518.578 385.44C518.578 379.381 521.053 374.603 526.002 371.104C530.951 367.52 537.522 365.088 545.714 363.808L561.714 361.376V359.584C561.714 356.512 561.074 354.165 559.794 352.544C558.514 350.923 556.167 350.112 552.754 350.112C550.365 350.112 548.402 350.581 546.866 351.52C545.415 352.459 544.263 353.739 543.41 355.36C542.642 356.469 541.575 357.024 540.21 357.024H525.874C524.935 357.024 524.21 356.768 523.698 356.256C523.186 355.659 522.973 354.976 523.058 354.208C523.058 352.672 523.613 350.923 524.722 348.96C525.917 346.912 527.709 344.907 530.098 342.944C532.487 340.981 535.559 339.36 539.314 338.08C543.069 336.8 547.591 336.16 552.882 336.16C558.429 336.16 563.165 336.8 567.09 338.08C571.015 339.36 574.173 341.152 576.562 343.456C579.037 345.76 580.871 348.491 582.066 351.648C583.261 354.72 583.858 358.133 583.858 361.888V400.8C583.858 401.739 583.517 402.507 582.834 403.104C582.237 403.701 581.511 404 580.658 404H565.81C564.871 404 564.103 403.701 563.506 403.104C562.909 402.507 562.61 401.739 562.61 400.8V396.32C561.501 397.941 560.007 399.435 558.13 400.8C556.253 402.165 554.034 403.232 551.474 404C548.999 404.853 546.098 405.28 542.77 405.28ZM548.786 390.688C551.261 390.688 553.479 390.176 555.442 389.152C557.49 388.043 559.069 386.379 560.178 384.16C561.373 381.856 561.97 378.997 561.97 375.584V373.792L551.09 375.712C547.079 376.395 544.135 377.461 542.258 378.912C540.466 380.277 539.57 381.899 539.57 383.776C539.57 385.227 539.997 386.464 540.85 387.488C541.703 388.512 542.813 389.323 544.178 389.92C545.543 390.432 547.079 390.688 548.786 390.688ZM545.33 327.84C543.965 327.84 543.282 327.157 543.282 325.792C543.282 325.109 543.495 324.555 543.922 324.128L555.186 310.432C556.039 309.408 556.765 308.768 557.362 308.512C557.959 308.171 558.813 308 559.922 308H576.69C578.311 308 579.122 308.853 579.122 310.56C579.122 311.157 578.909 311.669 578.482 312.096L561.586 326.048C560.903 326.645 560.221 327.115 559.538 327.456C558.855 327.712 557.917 327.84 556.722 327.84H545.33ZM601.502 404C600.563 404 599.795 403.701 599.198 403.104C598.601 402.507 598.302 401.739 598.302 400.8V316.32C598.302 315.381 598.601 314.613 599.198 314.016C599.795 313.419 600.563 313.12 601.502 313.12H616.606C617.545 313.12 618.313 313.419 618.91 314.016C619.507 314.613 619.806 315.381 619.806 316.32V400.8C619.806 401.739 619.507 402.507 618.91 403.104C618.313 403.701 617.545 404 616.606 404H601.502ZM668.975 404C663.514 404 658.778 403.147 654.767 401.44C650.842 399.648 647.812 396.917 645.679 393.248C643.546 389.493 642.479 384.672 642.479 378.784V354.208H632.495C631.556 354.208 630.746 353.909 630.063 353.312C629.466 352.715 629.167 351.947 629.167 351.008V340.64C629.167 339.701 629.466 338.933 630.063 338.336C630.746 337.739 631.556 337.44 632.495 337.44H642.479V316.32C642.479 315.381 642.778 314.613 643.375 314.016C644.058 313.419 644.826 313.12 645.679 313.12H660.527C661.466 313.12 662.234 313.419 662.831 314.016C663.428 314.613 663.727 315.381 663.727 316.32V337.44H679.727C680.666 337.44 681.434 337.739 682.031 338.336C682.628 338.933 682.927 339.701 682.927 340.64V351.008C682.927 351.947 682.628 352.715 682.031 353.312C681.434 353.909 680.666 354.208 679.727 354.208H663.727V376.992C663.727 379.893 664.282 382.197 665.391 383.904C666.5 385.611 668.378 386.464 671.023 386.464H680.879C681.818 386.464 682.586 386.763 683.183 387.36C683.78 387.957 684.079 388.725 684.079 389.664V400.8C684.079 401.739 683.78 402.507 683.183 403.104C682.586 403.701 681.818 404 680.879 404H668.975ZM726.165 405.28C718.997 405.28 712.938 404.128 707.989 401.824C703.125 399.52 699.37 396.235 696.725 391.968C694.165 387.616 692.714 382.453 692.373 376.48C692.288 374.773 692.245 372.853 692.245 370.72C692.245 368.501 692.288 366.581 692.373 364.96C692.714 358.901 694.25 353.739 696.981 349.472C699.712 345.205 703.509 341.92 708.373 339.616C713.322 337.312 719.253 336.16 726.165 336.16C733.162 336.16 739.093 337.312 743.957 339.616C748.906 341.92 752.746 345.205 755.477 349.472C758.208 353.739 759.744 358.901 760.085 364.96C760.17 366.581 760.213 368.501 760.213 370.72C760.213 372.853 760.17 374.773 760.085 376.48C759.744 382.453 758.25 387.616 755.605 391.968C753.045 396.235 749.29 399.52 744.341 401.824C739.477 404.128 733.418 405.28 726.165 405.28ZM726.165 389.664C730.005 389.664 732.778 388.512 734.485 386.208C736.277 383.904 737.301 380.448 737.557 375.84C737.642 374.56 737.685 372.853 737.685 370.72C737.685 368.587 737.642 366.88 737.557 365.6C737.301 361.077 736.277 357.664 734.485 355.36C732.778 352.971 730.005 351.776 726.165 351.776C722.41 351.776 719.637 352.971 717.845 355.36C716.053 357.664 715.072 361.077 714.901 365.6C714.816 366.88 714.773 368.587 714.773 370.72C714.773 372.853 714.816 374.56 714.901 375.84C715.072 380.448 716.053 383.904 717.845 386.208C719.637 388.512 722.41 389.664 726.165 389.664ZM718.741 327.84C717.376 327.84 716.693 327.157 716.693 325.792C716.693 325.109 716.906 324.555 717.333 324.128L728.597 310.432C729.45 309.408 730.176 308.768 730.773 308.512C731.37 308.171 732.224 308 733.333 308H750.101C751.722 308 752.533 308.853 752.533 310.56C752.533 311.157 752.32 311.669 751.893 312.096L734.997 326.048C734.314 326.645 733.632 327.115 732.949 327.456C732.266 327.712 731.328 327.84 730.133 327.84H718.741Z" fill="black"/>
</g>
<defs>
<clipPath id="clip0_23_8065">
<rect width="1200" height="720" fill="white"/>
</clipPath>
</defs>
</svg>
