<svg width="1200" height="720" viewBox="0 0 1200 720" fill="none" xmlns="http://www.w3.org/2000/svg">
<g clip-path="url(#clip0_13_9358)">
<rect width="1200" height="720" fill="white"/>
<rect x="599" y="-19" width="640" height="767" fill="#E3E3E3"/>
<rect x="600" y="-19" width="312" height="767" fill="#A7A69E"/>
<rect x="712" y="-19" width="201" height="767" fill="#707070"/>
<rect x="756" y="-2" width="12" height="737" fill="#343434"/>
<rect x="858" y="-2" width="12" height="737" fill="#343434"/>
<rect x="750" y="514" width="12" height="126" transform="rotate(-90 750 514)" fill="#343434"/>
<rect x="750" y="382" width="12" height="126" transform="rotate(-90 750 382)" fill="#343434"/>
<rect x="750" y="250" width="12" height="126" transform="rotate(-90 750 250)" fill="#343434"/>
<rect x="750" y="118" width="12" height="126" transform="rotate(-90 750 118)" fill="#343434"/>
<rect x="750" y="712" width="12" height="126" transform="rotate(-90 750 712)" fill="#343434"/>
<rect x="750" y="481" width="12" height="126" transform="rotate(-90 750 481)" fill="#343434"/>
<rect x="750" y="349" width="12" height="126" transform="rotate(-90 750 349)" fill="#343434"/>
<rect x="750" y="217" width="12" height="126" transform="rotate(-90 750 217)" fill="#343434"/>
<rect x="750" y="85" width="12" height="126" transform="rotate(-90 750 85)" fill="#343434"/>
<rect x="750" y="679" width="12" height="126" transform="rotate(-90 750 679)" fill="#343434"/>
<rect x="750" y="448" width="12" height="126" transform="rotate(-90 750 448)" fill="#343434"/>
<rect x="750" y="316" width="12" height="126" transform="rotate(-90 750 316)" fill="#343434"/>
<rect x="750" y="184" width="12" height="126" transform="rotate(-90 750 184)" fill="#343434"/>
<rect x="750" y="52" width="12" height="126" transform="rotate(-90 750 52)" fill="#343434"/>
<rect x="750" y="646" width="12" height="126" transform="rotate(-90 750 646)" fill="#343434"/>
<rect x="750" y="580" width="12" height="126" transform="rotate(-90 750 580)" fill="#343434"/>
<rect x="750" y="415" width="12" height="126" transform="rotate(-90 750 415)" fill="#343434"/>
<rect x="750" y="283" width="12" height="126" transform="rotate(-90 750 283)" fill="#343434"/>
<rect x="750" y="151" width="12" height="126" transform="rotate(-90 750 151)" fill="#343434"/>
<rect x="750" y="19" width="12" height="126" transform="rotate(-90 750 19)" fill="#343434"/>
<rect x="750" y="613" width="12" height="126" transform="rotate(-90 750 613)" fill="#343434"/>
<rect x="750" y="547" width="12" height="126" transform="rotate(-90 750 547)" fill="#343434"/>
<rect x="960" width="5" height="720" fill="#FFD502"/>
<rect width="640" height="767" transform="matrix(-1 0 0 1 601 -19)" fill="#E3E3E3"/>
<rect width="312" height="767" transform="matrix(-1 0 0 1 601 -19)" fill="#A7A69E"/>
<rect width="201" height="767" transform="matrix(-1 0 0 1 488 -19)" fill="#707070"/>
<rect width="12" height="737" transform="matrix(-1 0 0 1 444 -2)" fill="#343434"/>
<rect width="12" height="737" transform="matrix(-1 0 0 1 342 -2)" fill="#343434"/>
<rect width="12" height="126" transform="matrix(3.67176e-08 -1 -1 -5.20374e-08 450 514)" fill="#343434"/>
<rect width="12" height="126" transform="matrix(3.67176e-08 -1 -1 -5.20374e-08 450 382)" fill="#343434"/>
<rect width="12" height="126" transform="matrix(3.67176e-08 -1 -1 -5.20374e-08 450 250)" fill="#343434"/>
<rect width="12" height="126" transform="matrix(3.67176e-08 -1 -1 -5.20374e-08 450 118)" fill="#343434"/>
<rect width="12" height="126" transform="matrix(3.67176e-08 -1 -1 -5.20374e-08 450 712)" fill="#343434"/>
<rect width="12" height="126" transform="matrix(3.67176e-08 -1 -1 -5.20374e-08 450 481)" fill="#343434"/>
<rect width="12" height="126" transform="matrix(3.67176e-08 -1 -1 -5.20374e-08 450 349)" fill="#343434"/>
<rect width="12" height="126" transform="matrix(3.67176e-08 -1 -1 -5.20374e-08 450 217)" fill="#343434"/>
<rect width="12" height="126" transform="matrix(3.67176e-08 -1 -1 -5.20374e-08 450 85)" fill="#343434"/>
<rect width="12" height="126" transform="matrix(3.67176e-08 -1 -1 -5.20374e-08 450 679)" fill="#343434"/>
<rect width="12" height="126" transform="matrix(3.67176e-08 -1 -1 -5.20374e-08 450 448)" fill="#343434"/>
<rect width="12" height="126" transform="matrix(3.67176e-08 -1 -1 -5.20374e-08 450 316)" fill="#343434"/>
<rect width="12" height="126" transform="matrix(3.67176e-08 -1 -1 -5.20374e-08 450 184)" fill="#343434"/>
<rect width="12" height="126" transform="matrix(3.67176e-08 -1 -1 -5.20374e-08 450 52)" fill="#343434"/>
<rect width="12" height="126" transform="matrix(3.67176e-08 -1 -1 -5.20374e-08 450 646)" fill="#343434"/>
<rect width="12" height="126" transform="matrix(3.67176e-08 -1 -1 -5.20374e-08 450 580)" fill="#343434"/>
<rect width="12" height="126" transform="matrix(3.67176e-08 -1 -1 -5.20374e-08 450 415)" fill="#343434"/>
<rect width="12" height="126" transform="matrix(3.67176e-08 -1 -1 -5.20374e-08 450 283)" fill="#343434"/>
<rect width="12" height="126" transform="matrix(3.67176e-08 -1 -1 -5.20374e-08 450 151)" fill="#343434"/>
<rect width="12" height="126" transform="matrix(3.67176e-08 -1 -1 -5.20374e-08 450 19)" fill="#343434"/>
<rect width="12" height="126" transform="matrix(3.67176e-08 -1 -1 -5.20374e-08 450 613)" fill="#343434"/>
<rect width="12" height="126" transform="matrix(3.67176e-08 -1 -1 -5.20374e-08 450 547)" fill="#343434"/>
<rect width="5" height="720" transform="matrix(-1 0 0 1 240 0)" fill="#FFD502"/>
<path fill-rule="evenodd" clip-rule="evenodd" d="M1017.93 27.6594C1010.37 30.1068 1006.69 39.3486 1010.45 46.4619C1016.05 57.0679 1032.17 54.9268 1034.98 43.204C1037.36 33.269 1027.73 24.4864 1017.93 27.6594ZM984.822 32.4014C981.444 35.7799 981.769 36.454 994.488 52.4362L1006.01 66.9109L1006.53 84.0866C1006.82 93.5333 1007.34 104.259 1007.69 107.922C1008.05 111.584 1008.36 119.575 1008.39 125.68C1008.47 142.384 1008.98 147.537 1010.72 149.274C1012.83 151.386 1016.68 151.238 1018.96 148.957L1020.7 147.212L1020.25 113.63H1024.01L1024.47 129.935C1024.97 147.417 1025.24 148.899 1028.3 150.29C1030.46 151.277 1031.48 151.246 1033.65 150.127C1036.92 148.436 1036.93 148.221 1036.26 113.947C1035.91 96.5058 1035.63 80.9517 1035.63 79.3821L1035.63 76.5281L1042.84 83.9801C1049.29 90.6362 1050.29 91.4321 1052.23 91.4321C1055.83 91.4321 1058.81 87.4328 1057.41 84.4659C1057.1 83.8184 1050.77 77.0995 1043.34 69.5346L1029.83 55.7804L1011.09 56.2333L1001.16 43.7843C989.82 29.5633 988.548 28.6767 984.822 32.4014Z" fill="#8E7496"/>
<path fill-rule="evenodd" clip-rule="evenodd" d="M1139.11 360.638C1131.73 363.007 1128.13 371.95 1131.8 378.834C1137.27 389.098 1153.01 387.026 1155.76 375.681C1158.08 366.067 1148.68 357.568 1139.11 360.638ZM1106.78 365.227C1103.48 368.497 1103.8 369.149 1116.22 384.616L1127.47 398.623L1127.97 415.245C1128.25 424.387 1128.77 434.767 1129.11 438.311C1129.46 441.856 1129.77 449.589 1129.8 455.496C1129.87 471.662 1130.37 476.648 1132.07 478.33C1134.13 480.374 1137.89 480.231 1140.11 478.023L1141.82 476.334L1141.37 443.835H1145.04L1145.49 459.615C1145.98 476.533 1146.25 477.967 1149.23 479.313C1151.34 480.268 1152.34 480.238 1154.45 479.155C1157.65 477.519 1157.66 477.311 1157 444.142C1156.67 427.264 1156.39 412.211 1156.39 410.692L1156.39 407.93L1163.43 415.142C1169.72 421.583 1170.7 422.354 1172.59 422.354C1176.12 422.354 1179.02 418.483 1177.66 415.612C1177.36 414.986 1171.18 408.483 1163.92 401.163L1150.72 387.852L1132.42 388.29L1122.73 376.243C1111.66 362.481 1110.42 361.623 1106.78 365.227Z" fill="#8E7496"/>
<path fill-rule="evenodd" clip-rule="evenodd" d="M699.62 306.142C705.782 308.137 708.78 315.668 705.719 321.466C701.156 330.109 688.017 328.364 685.725 318.81C683.782 310.714 691.633 303.556 699.62 306.142ZM726.603 310.007C729.356 312.76 729.091 313.309 718.725 326.334L709.337 338.131L708.912 352.129C708.679 359.827 708.251 368.569 707.962 371.553C707.674 374.538 707.418 381.051 707.393 386.026C707.327 399.639 706.912 403.838 705.496 405.255C703.775 406.976 700.639 406.855 698.781 404.996L697.36 403.574L697.731 376.205H694.667L694.291 389.494C693.887 403.741 693.66 404.949 691.172 406.083C689.407 406.887 688.575 406.861 686.811 405.949C684.147 404.571 684.134 404.397 684.685 376.464C684.965 362.25 685.195 349.574 685.194 348.295L685.194 345.969L679.317 352.042C674.068 357.466 673.251 358.115 671.671 358.115C668.733 358.115 666.308 354.856 667.447 352.438C667.696 351.91 672.855 346.434 678.912 340.269L689.925 329.06L705.199 329.429L713.289 319.283C722.53 307.694 723.567 306.971 726.603 310.007Z" fill="#8E7496"/>
<path fill-rule="evenodd" clip-rule="evenodd" d="M176.508 316.463C171.203 318.18 168.623 324.664 171.257 329.655C175.186 337.096 186.497 335.594 188.471 327.369C190.143 320.398 183.384 314.236 176.508 316.463ZM153.279 319.79C150.908 322.16 151.136 322.633 160.06 333.846L168.142 344.002L168.508 356.053C168.709 362.681 169.077 370.206 169.326 372.776C169.575 375.345 169.795 380.952 169.816 385.235C169.873 396.955 170.23 400.57 171.449 401.789C172.931 403.271 175.631 403.167 177.23 401.567L178.454 400.342L178.135 376.78H180.772L181.096 388.221C181.444 400.486 181.639 401.526 183.781 402.502C185.301 403.194 186.017 403.173 187.535 402.387C189.829 401.201 189.84 401.051 189.366 377.003C189.125 364.766 188.927 353.853 188.928 352.752L188.928 350.75L193.987 355.978C198.506 360.648 199.21 361.206 200.569 361.206C203.099 361.206 205.187 358.4 204.206 356.319C203.992 355.865 199.55 351.15 194.336 345.843L184.854 336.193L171.705 336.51L164.741 327.776C156.785 317.798 155.892 317.176 153.279 319.79Z" fill="#8E7496"/>
<path fill-rule="evenodd" clip-rule="evenodd" d="M1164.02 607.416C1162.84 607.719 1161.49 608.322 1161.02 608.757C1160.55 609.192 1160.06 609.548 1159.93 609.548C1159.53 609.548 1158.39 611.7 1157.69 613.769C1157.12 615.439 1157.1 615.977 1157.54 617.571C1158.46 620.859 1159.53 622.424 1161.7 623.64C1165.14 625.572 1169.94 624.961 1172.65 622.245C1173.41 621.486 1174.03 620.693 1174.03 620.482C1174.03 620.272 1174.25 620.026 1174.52 619.938C1175.12 619.736 1175.23 612.478 1174.64 612.054C1174.42 611.895 1173.99 611.287 1173.69 610.701C1173.38 610.116 1172.7 609.405 1172.17 609.121C1171.64 608.838 1171.21 608.478 1171.21 608.323C1171.21 608.071 1169.21 607.454 1166.98 607.022C1166.53 606.936 1165.2 607.113 1164.02 607.416ZM1156.29 628.5C1156.29 628.722 1156.01 628.903 1155.66 628.903C1155.31 628.903 1152.97 630.945 1150.46 633.439C1145.5 638.366 1130.73 652.679 1128.5 654.706C1127.16 655.931 1127.13 656.036 1127.07 659.375C1127.03 661.378 1126.8 662.987 1126.52 663.266C1126.26 663.528 1126.05 664.069 1126.05 664.468C1126.05 665.102 1125.67 665.194 1123.02 665.194C1121.28 665.194 1120 665.024 1120 664.791C1120 664.543 1117.98 664.387 1114.76 664.387C1111.53 664.387 1109.52 664.543 1109.52 664.791C1109.52 665.012 1109.18 665.194 1108.77 665.194C1107.53 665.194 1104.78 668.168 1103.67 670.699C1103.3 671.552 1102.83 672.565 1102.63 672.95C1102.42 673.335 1102.26 674.005 1102.26 674.439C1102.26 674.872 1102.08 675.339 1101.85 675.476C1101.63 675.613 1101.45 676.248 1101.45 676.887C1101.45 677.527 1101.27 678.162 1101.05 678.299C1100.83 678.436 1100.65 678.982 1100.65 679.513C1100.65 680.044 1100.49 680.896 1100.29 681.405C1100.1 681.914 1099.63 683.42 1099.25 684.75C1098.86 686.081 1098.39 687.485 1098.19 687.87C1097.99 688.255 1097.82 688.925 1097.82 689.358C1097.82 689.792 1097.64 690.258 1097.42 690.396C1097.2 690.533 1097.02 691 1097.02 691.433C1097.02 691.867 1096.85 692.536 1096.65 692.921C1095.96 694.244 1095 697.949 1095 699.3C1095 700.309 1095.36 701.012 1096.42 702.076C1098.24 703.89 1099.13 703.882 1100.27 702.04C1100.77 701.237 1102 700.058 1103 699.419C1104.56 698.434 1105.25 698.259 1107.58 698.259C1109.14 698.259 1110.32 698.432 1110.32 698.662C1110.32 698.884 1110.69 699.065 1111.13 699.065C1111.57 699.065 1111.94 699.246 1111.94 699.468C1111.94 699.69 1112.14 699.871 1112.39 699.871C1112.97 699.871 1114.76 701.925 1114.76 702.593C1114.76 702.871 1114.94 703.097 1115.16 703.097C1115.38 703.097 1115.56 703.372 1115.56 703.709C1115.56 704.045 1115.79 705.042 1116.07 705.926C1116.5 707.303 1116.73 707.533 1117.71 707.533C1118.97 707.533 1120 706.727 1120 705.747C1120 705.399 1120.15 705.113 1120.32 705.113C1120.63 705.113 1121.41 702.356 1121.88 699.565C1122.01 698.842 1122.27 698.151 1122.46 698.03C1122.66 697.907 1122.82 697.375 1122.82 696.847C1122.82 696.319 1123 695.775 1123.23 695.638C1123.45 695.5 1123.63 694.943 1123.63 694.398C1123.63 693.854 1123.8 693.094 1124 692.709C1124.2 692.323 1124.67 690.92 1125.04 689.589C1126.76 683.431 1127.35 681.474 1127.7 680.825C1127.9 680.439 1128.06 679.679 1128.06 679.135C1128.06 678.59 1128.25 678.033 1128.47 677.895C1128.69 677.758 1128.87 677.201 1128.87 676.656C1128.87 676.112 1129.05 675.351 1129.26 674.966C1129.47 674.581 1130.03 672.906 1130.5 671.242C1130.97 669.579 1131.54 667.583 1131.76 666.807C1131.98 666.03 1132.26 664.896 1132.38 664.286C1132.5 663.677 1132.75 663.178 1132.95 663.178C1133.15 663.178 1133.31 662.633 1133.31 661.968C1133.31 661.303 1133.49 660.758 1133.71 660.758C1133.93 660.758 1134.11 660.462 1134.11 660.099C1134.11 659.737 1134.56 659.057 1135.1 658.587C1136.25 657.582 1140.3 653.904 1144.09 650.405C1146.77 647.931 1147.74 647.559 1147.22 649.211C1147.06 649.685 1146.8 650.889 1146.63 651.887C1146.45 652.885 1145.93 655.607 1145.46 657.936C1144.99 660.264 1144.6 662.493 1144.6 662.888C1144.6 663.283 1145.23 664.916 1146.01 666.516C1146.78 668.116 1147.42 669.637 1147.42 669.897C1147.42 670.156 1147.56 670.429 1147.73 670.503C1148.13 670.68 1151.05 676.564 1151.05 677.201C1151.05 677.472 1151.23 677.694 1151.45 677.694C1151.67 677.694 1151.86 678.042 1151.86 678.467C1151.86 678.892 1151.99 679.3 1152.16 679.374C1152.55 679.547 1155.48 685.483 1155.48 686.098C1155.48 686.355 1155.67 686.565 1155.89 686.565C1156.11 686.565 1156.29 686.913 1156.29 687.338C1156.29 687.763 1156.43 688.171 1156.59 688.245C1156.98 688.419 1159.92 694.354 1159.92 694.969C1159.92 695.226 1160.1 695.436 1160.32 695.436C1160.54 695.436 1160.73 695.784 1160.73 696.209C1160.73 696.634 1160.87 697.042 1161.03 697.116C1161.2 697.19 1162.09 698.793 1163 700.678C1165.38 705.603 1165.9 706.091 1168.73 706.108C1170.72 706.12 1171.2 705.968 1172.13 705.031C1172.74 704.431 1173.23 703.58 1173.23 703.139C1173.23 702.699 1173.39 702.236 1173.59 702.111C1173.99 701.869 1173.59 700.42 1172.35 697.557C1171.95 696.617 1171.61 695.71 1171.61 695.541C1171.61 695.372 1171.37 694.777 1171.08 694.217C1170.79 693.659 1170.29 692.343 1169.98 691.294C1169.67 690.246 1169.28 689.388 1169.11 689.388C1168.93 689.388 1168.79 688.934 1168.79 688.379C1168.79 687.825 1168.61 687.371 1168.39 687.371C1168.17 687.371 1167.98 687.111 1167.98 686.793C1167.98 686.475 1167.51 685.069 1166.93 683.668C1166.35 682.267 1165.72 680.713 1165.52 680.214C1164.63 677.958 1164.33 677.231 1163.95 676.383C1162.26 672.584 1160.8 668.211 1161.09 667.844C1161.29 667.606 1161.54 666.686 1161.66 665.799C1161.86 664.307 1162.52 661.195 1163.58 656.726C1163.81 655.728 1164.1 654.367 1164.21 653.702C1164.38 652.69 1165.01 650.96 1165.45 650.311C1165.59 650.097 1166.83 651.521 1168.04 653.304C1168.56 654.074 1169.31 654.705 1169.7 654.707C1170.09 654.709 1170.4 654.891 1170.4 655.113C1170.4 655.335 1170.74 655.516 1171.14 655.516C1171.96 655.516 1177.39 657.575 1179.77 658.789C1180.16 658.985 1180.75 659.145 1181.08 659.145C1181.42 659.145 1181.69 659.327 1181.69 659.549C1181.69 660.15 1186.1 660.047 1186.66 659.432C1187.98 657.994 1188.66 655.516 1187.74 655.516C1187.52 655.516 1187.34 655.171 1187.34 654.75C1187.34 654.221 1186.78 653.752 1185.53 653.238C1184.53 652.827 1183.71 652.356 1183.71 652.19C1183.71 652.023 1183.35 651.887 1182.9 651.887C1182.46 651.887 1182.1 651.706 1182.1 651.484C1182.1 651.262 1181.75 651.081 1181.32 651.081C1180.9 651.081 1180.49 650.944 1180.42 650.778C1180.34 650.612 1179.06 649.888 1177.56 649.169C1175.98 648.41 1174.84 647.607 1174.84 647.254C1174.84 646.919 1174.66 646.645 1174.44 646.645C1174.21 646.645 1174.03 646.297 1174.03 645.872C1174.03 645.447 1173.9 645.039 1173.73 644.965C1173.56 644.891 1172.52 643.016 1171.42 640.798C1169.38 636.71 1167.14 632.731 1166.39 631.843C1166.16 631.576 1165.97 631.237 1165.97 631.091C1165.97 630.946 1165.3 630.212 1164.48 629.462C1163.04 628.14 1162.88 628.097 1159.64 628.097C1157.68 628.097 1156.29 628.264 1156.29 628.5ZM1109.4 670.299C1109.54 670.668 1109.17 672.37 1108.58 674.082C1107.98 675.793 1107.5 677.488 1107.5 677.847C1107.5 678.206 1107.32 678.5 1107.1 678.5C1106.88 678.5 1106.69 679.045 1106.69 679.71C1106.69 680.375 1106.51 680.92 1106.29 680.92C1106.07 680.92 1105.89 681.285 1105.89 681.732C1105.89 682.178 1105.73 682.859 1105.53 683.244C1105.34 683.629 1104.69 685.577 1104.08 687.573C1103.47 689.569 1102.82 691.517 1102.62 691.902C1102.42 692.287 1102.26 692.957 1102.26 693.39C1102.26 693.824 1102.08 694.291 1101.85 694.428C1101.63 694.565 1101.45 695.211 1101.45 695.863C1101.45 696.949 1101.33 697.049 1100.04 697.049C1098.91 697.049 1098.63 696.893 1098.63 696.257C1098.63 695.364 1099.66 691.972 1100.25 690.905C1100.47 690.52 1100.65 689.749 1100.65 689.192C1100.65 688.634 1100.83 688.178 1101.05 688.178C1101.27 688.178 1101.45 687.722 1101.45 687.164C1101.45 686.607 1101.63 685.835 1101.84 685.45C1102.42 684.391 1105.08 676.249 1105.08 675.514C1105.08 675.161 1105.26 674.871 1105.48 674.871C1105.71 674.871 1105.89 674.338 1105.89 673.685C1105.89 673.033 1106.05 672.402 1106.24 672.283C1106.43 672.163 1106.7 671.517 1106.83 670.847C1107.03 669.873 1107.28 669.629 1108.11 669.629C1108.7 669.629 1109.25 669.916 1109.4 670.299ZM1145.82 677.895C1145.21 679.318 1144.2 682.986 1143.91 684.855C1143.79 685.578 1143.54 686.269 1143.34 686.391C1143.15 686.513 1142.98 686.876 1142.98 687.198C1142.98 687.521 1142.08 688.735 1140.97 689.896C1139.87 691.058 1138.96 692.136 1138.96 692.293C1138.95 692.449 1138 693.565 1136.84 694.771C1131.99 699.794 1131.28 701.455 1132.71 704.462C1133.52 706.17 1136.39 707.142 1138.07 706.275C1140.28 705.134 1147.19 698.278 1150.02 694.434C1150.45 693.848 1151.11 693.013 1151.48 692.578C1151.86 692.143 1152.39 691.258 1152.66 690.612C1153.09 689.571 1153.01 689.192 1152 687.295C1151.37 686.117 1150.76 685.063 1150.65 684.952C1150.54 684.841 1150.13 684.115 1149.76 683.339C1148.83 681.436 1147.28 678.749 1146.96 678.5C1146.82 678.389 1146.62 677.936 1146.52 677.492C1146.36 676.791 1146.27 676.843 1145.82 677.895ZM1105.08 701.888C1105.08 702.109 1104.88 702.291 1104.62 702.291C1103.8 702.291 1102.26 704.482 1102.22 705.718C1102.13 708.217 1102.35 709.247 1103.2 710.228C1105.29 712.648 1108.46 713.076 1110.85 711.263C1111.65 710.653 1112.32 709.847 1112.32 709.472C1112.33 709.097 1112.52 708.678 1112.74 708.541C1113.39 708.139 1113.21 705.582 1112.44 704.394C1110.85 701.917 1110.11 701.484 1107.52 701.484C1106.16 701.484 1105.08 701.663 1105.08 701.888Z" fill="#8E7496"/>
<path fill-rule="evenodd" clip-rule="evenodd" d="M1041.18 481.206C1037.65 481.909 1034.47 484.249 1032.64 487.485C1028.89 494.125 1032.59 502.825 1040.11 505.034C1041.75 505.516 1045.02 505.516 1046.66 505.034C1053.59 502.999 1057.35 495.561 1054.82 488.901C1052.78 483.535 1046.7 480.104 1041.18 481.206ZM1038.97 506.763C1032.48 509.189 1026.92 514.955 1021.31 525.074C1019.8 527.787 1014 539.804 1013.45 541.332C1013 542.595 1013.06 543.975 1013.62 545.195C1014.07 546.187 1014.07 546.251 1013.68 546.538C1011.96 547.795 1008.1 547.331 1003.54 545.318C1000.14 543.819 1000.43 543.844 999.304 544.95L998.314 545.922L997.462 544.98C996.994 544.461 996.448 544.037 996.25 544.037C995.436 544.037 989.443 547.657 988.028 549.003C985.346 551.554 983.62 555.532 983.127 560.297C982.849 562.985 983 563.904 983.86 564.765C985.166 566.07 987.663 565.489 988.197 563.757C988.325 563.343 988.5 562.173 988.587 561.158C988.773 558.984 989.217 557.152 989.85 555.954L990.305 555.092L990.315 557.07C990.322 558.5 989.907 561.432 988.814 567.659C987.983 572.395 987.302 576.296 987.302 576.328C987.301 576.36 988.086 576.386 989.046 576.386H990.791V586.885C990.791 597.248 990.798 597.396 991.3 598.288C991.84 599.25 993.278 600.128 994.298 600.119C995.2 600.11 996.768 599.29 997.231 598.583C997.623 597.985 997.666 597.091 997.773 587.237C997.862 579.109 997.958 576.518 998.174 576.446C998.394 576.373 998.472 578.756 998.523 587.057C998.586 597.454 998.601 597.781 999.068 598.405C999.955 599.593 1000.73 600.008 1002.05 599.996C1003.46 599.983 1004.52 599.368 1005.17 598.185C1005.53 597.521 1005.58 596.394 1005.64 586.925L1005.7 576.404L1007.63 576.337L1009.56 576.27L1007.98 567.775C1006.6 560.347 1006.4 558.926 1006.4 556.453L1006.38 553.625L1007.47 553.951C1010.13 554.751 1013.37 554.097 1016.23 552.184C1018.46 550.694 1019.8 549.232 1020.02 548.073C1020.13 547.484 1020.45 546.941 1020.97 546.481C1021.55 545.96 1022.48 544.229 1024.64 539.665C1027.34 533.959 1029.76 529.173 1030.5 528.102C1030.77 527.71 1030.82 528.892 1030.83 536.131C1030.84 541.683 1030.93 544.981 1031.11 545.666C1031.29 546.4 1031.41 554.068 1031.5 571.284L1031.63 595.855L1032.34 596.994C1034.25 600.08 1038.46 600.571 1041.03 598.007C1042.76 596.271 1042.69 597.306 1042.69 574.948C1042.69 555.184 1042.69 554.975 1043.15 554.975C1043.61 554.975 1043.61 555.206 1043.67 575.415L1043.74 595.855L1044.44 596.994C1046.31 600.017 1050.54 600.572 1053 598.115C1054.8 596.311 1054.66 598.375 1054.79 571.964C1054.9 549.093 1054.92 548.309 1055.37 547.295C1055.79 546.325 1055.83 545.541 1055.95 536.59C1056.06 527.982 1056.1 527.046 1056.39 527.979C1057.34 531.143 1057.45 532.203 1057.46 538.452C1057.47 543.742 1057.52 544.718 1057.85 545.317C1059.05 547.485 1061.73 548.361 1063.98 547.321C1066.11 546.341 1066.61 545.152 1066.89 540.421C1067.66 527.689 1064.32 518.401 1056.7 512.089C1053.89 509.758 1051.48 508.25 1048.93 507.229L1046.59 506.288L1045.02 507.841L1043.46 509.395L1041.99 507.865C1041.18 507.024 1040.41 506.344 1040.27 506.354C1040.13 506.364 1039.54 506.548 1038.97 506.763ZM995.616 528.298C993.848 529.04 992.753 529.901 991.938 531.185C990.301 533.766 990.139 536.326 991.445 538.978C992.816 541.764 995.191 543.222 998.355 543.222C1001.53 543.222 1003.89 541.764 1005.27 538.96C1006.69 536.092 1006.22 532.685 1004.07 530.242C1002.15 528.051 998.305 527.168 995.616 528.298Z" fill="#8E7496"/>
<path fill-rule="evenodd" clip-rule="evenodd" d="M93.3272 17.1744C90.3352 17.7709 87.6369 19.7552 86.0875 22.4988C82.9082 28.1285 86.0506 35.5055 92.4258 37.3781C93.8176 37.7868 96.586 37.7868 97.9778 37.3781C103.852 35.6527 107.041 29.346 104.895 23.6989C103.166 19.149 98.0099 16.2406 93.3272 17.1744ZM91.4526 38.8446C85.9504 40.9014 81.2353 45.7903 76.4796 54.3698C75.2043 56.6706 70.2832 66.8599 69.8218 68.1552C69.4406 69.2256 69.4895 70.3962 69.9588 71.4306C70.3404 72.2718 70.3428 72.3258 70.0099 72.5693C68.5518 73.6353 65.2819 73.242 61.4122 71.5347C58.5307 70.2638 58.7795 70.2853 57.824 71.223L56.9844 72.0472L56.2624 71.248C55.8654 70.8084 55.4027 70.4489 55.2341 70.4489C54.5447 70.4489 49.4626 73.5185 48.263 74.6596C45.9891 76.8227 44.5257 80.1952 44.1076 84.2356C43.8718 86.5145 43.9998 87.2937 44.7295 88.0234C45.8361 89.1301 47.954 88.6379 48.4065 87.1688C48.5146 86.818 48.6632 85.8264 48.7368 84.9655C48.8947 83.1219 49.2716 81.5687 49.8081 80.5531L50.1943 79.8218L50.2025 81.4991C50.2087 82.7118 49.856 85.1979 48.9296 90.4774C48.2249 94.493 47.648 97.8007 47.6474 97.8278C47.6468 97.8548 48.3124 97.8771 49.1263 97.8771H50.6063V106.779C50.6063 115.566 50.6118 115.691 51.0372 116.448C51.4954 117.263 52.7147 118.008 53.5792 118C54.3442 117.993 55.6738 117.297 56.0667 116.698C56.399 116.191 56.4351 115.433 56.526 107.078C56.601 100.186 56.6825 97.9892 56.8656 97.9282C57.0523 97.866 57.1188 99.8868 57.1616 106.925C57.2151 115.741 57.2283 116.018 57.6236 116.547C58.376 117.555 59.0362 117.906 60.1548 117.896C61.3493 117.885 62.2457 117.363 62.7941 116.361C63.1021 115.798 63.1422 114.842 63.1933 106.814L63.2503 97.8923L64.8851 97.8353L66.5202 97.7784L65.1831 90.576C64.0135 84.2774 63.8446 83.0728 63.8365 80.9758L63.8271 78.5779L64.7464 78.8545C67.0005 79.5329 69.7484 78.9786 72.1735 77.3566C74.0629 76.093 75.2058 74.8532 75.3874 73.8705C75.4797 73.3713 75.7538 72.9109 76.1911 72.5208C76.6862 72.0792 77.4774 70.6111 79.3057 66.7417C81.5917 61.9037 83.6492 57.8459 84.2773 56.9374C84.5066 56.6055 84.5474 57.6077 84.5549 63.7451C84.5604 68.4531 84.6411 71.2492 84.7883 71.8301C84.946 72.4523 85.0467 78.9536 85.125 93.5515L85.2369 114.385L85.834 115.351C87.4517 117.967 91.0272 118.383 93.2013 116.209C94.673 114.737 94.6098 115.615 94.6098 96.658C94.6098 79.9003 94.614 79.7232 95.0013 79.7232C95.3885 79.7232 95.3934 79.9191 95.4453 97.054L95.4978 114.385L96.0949 115.351C97.68 117.914 101.268 118.384 103.351 116.301C104.88 114.772 104.76 116.521 104.871 94.1279C104.966 74.736 104.982 74.0712 105.359 73.2114C105.72 72.3884 105.756 71.7238 105.852 64.1344C105.945 56.8358 105.985 56.0419 106.224 56.8334C107.032 59.5159 107.124 60.4149 107.132 65.7131C107.139 70.1987 107.186 71.0264 107.467 71.5342C108.481 73.3724 110.754 74.1154 112.665 73.2331C114.465 72.4024 114.891 71.3939 115.132 67.383C115.782 56.5873 112.95 48.7123 106.492 43.3604C104.107 41.384 102.063 40.105 99.9053 39.2393L97.9166 38.4415L96.5892 39.7586L95.262 41.0758L94.0167 39.779C93.3317 39.0656 92.6745 38.4891 92.5559 38.4975C92.4375 38.5058 91.941 38.6621 91.4526 38.8446ZM54.6968 57.1034C53.1981 57.7332 52.2693 58.4625 51.5785 59.5518C50.1907 61.7401 50.0534 63.9107 51.1604 66.1594C52.3232 68.5214 54.3365 69.7578 57.0193 69.7578C59.7085 69.7578 61.7153 68.5218 62.8856 66.1442C64.083 63.7124 63.6846 60.8233 61.8662 58.7524C60.2352 56.8946 56.9769 56.1453 54.6968 57.1034Z" fill="#8E7496"/>
<path fill-rule="evenodd" clip-rule="evenodd" d="M1009.15 256.191C1002.28 257.575 999.542 265.918 1004.24 271.142C1006.81 274.004 1010.65 274.99 1014.12 273.678C1018.77 271.918 1021.15 267.122 1019.71 262.386C1018.34 257.885 1013.84 255.245 1009.15 256.191ZM998.609 278.205C995.816 279.112 993.097 281.422 991.923 283.886C991.173 285.46 983.001 316.319 983 317.582C982.999 318.208 983.257 319.102 983.595 319.65C985.15 322.166 989.112 322.185 990.608 319.683C990.914 319.171 992.22 314.787 993.509 309.94C994.8 305.093 996.216 299.784 996.658 298.142C997.1 296.5 997.602 294.613 997.775 293.949L998.088 292.74H999.499C1000.38 292.74 1000.91 292.864 1000.91 293.072C1000.91 293.254 998.975 300.642 996.612 309.489C994.248 318.337 991.581 328.326 990.685 331.688L989.056 337.8L994.272 337.877L999.487 337.954L999.489 354.366C999.49 364.94 999.597 371.159 999.789 371.851C1000.15 373.162 1001.46 374.706 1002.61 375.183C1003.97 375.746 1006.37 375.42 1007.57 374.51C1008.12 374.086 1008.74 373.456 1008.94 373.11C1009.21 372.631 1009.33 368.402 1009.44 355.283L1009.58 338.084H1011H1012.42L1012.56 355.141C1012.7 371.706 1012.72 372.227 1013.29 373.193C1014.76 375.693 1018.6 376.231 1020.78 374.24C1021.15 373.899 1021.69 373.108 1021.98 372.482C1022.47 371.418 1022.5 370.274 1022.51 354.644L1022.51 337.942H1027.79C1032.69 337.942 1033.06 337.906 1032.92 337.444C1032.52 336.133 1021.09 293.153 1021.09 292.961C1021.09 292.84 1021.73 292.74 1022.51 292.74H1023.92L1024.35 294.233C1024.58 295.054 1026.17 301.001 1027.89 307.448C1029.61 313.895 1031.24 319.482 1031.52 319.862C1033.86 323.007 1039.09 321.389 1039.08 317.523C1039.07 316.078 1030.89 285.552 1030.02 283.731C1029.15 281.924 1026.79 279.707 1024.58 278.618L1022.94 277.815L1011.57 277.752C1001.25 277.695 1000.05 277.736 998.609 278.205Z" fill="#8E7496"/>
<path fill-rule="evenodd" clip-rule="evenodd" d="M1132.61 152.224C1124.57 153.843 1121.36 163.611 1126.86 169.726C1129.87 173.076 1134.37 174.23 1138.43 172.695C1143.88 170.634 1146.66 165.019 1144.98 159.476C1143.37 154.206 1138.1 151.116 1132.61 152.224ZM1120.27 177.994C1117 179.055 1113.82 181.76 1112.45 184.645C1111.57 186.487 1102 222.612 1102 224.09C1102 224.823 1102.3 225.87 1102.7 226.511C1104.52 229.456 1109.16 229.478 1110.91 226.55C1111.26 225.95 1112.79 220.818 1114.3 215.144C1115.81 209.469 1117.47 203.255 1117.99 201.333C1118.51 199.411 1119.09 197.202 1119.3 196.424L1119.66 195.01H1121.31C1122.35 195.01 1122.96 195.154 1122.96 195.397C1122.96 195.611 1120.7 204.259 1117.93 214.616C1115.17 224.973 1112.05 236.667 1111 240.602L1109.09 247.757L1115.19 247.848L1121.3 247.938L1121.3 267.15C1121.3 279.529 1121.43 286.809 1121.65 287.619C1122.08 289.154 1123.61 290.961 1124.96 291.52C1126.55 292.179 1129.36 291.797 1130.76 290.732C1131.41 290.235 1132.13 289.498 1132.36 289.094C1132.68 288.533 1132.82 283.582 1132.95 268.224L1133.11 248.09H1134.78H1136.44L1136.61 268.058C1136.77 287.45 1136.8 288.059 1137.46 289.19C1139.18 292.117 1143.68 292.747 1146.22 290.416C1146.66 290.017 1147.29 289.091 1147.63 288.358C1148.2 287.113 1148.24 285.773 1148.25 267.476L1148.26 247.924H1154.44C1160.17 247.924 1160.6 247.882 1160.44 247.341C1159.97 245.807 1146.59 195.492 1146.59 195.267C1146.59 195.126 1147.34 195.01 1148.25 195.01H1149.9L1150.4 196.757C1150.67 197.717 1152.54 204.679 1154.55 212.227C1156.56 219.774 1158.47 226.314 1158.8 226.758C1161.54 230.44 1167.66 228.547 1167.65 224.021C1167.64 222.33 1158.06 186.595 1157.04 184.463C1156.03 182.348 1153.27 179.753 1150.67 178.477L1148.76 177.538L1135.44 177.464C1123.36 177.396 1121.96 177.445 1120.27 177.994Z" fill="#8E7496"/>
<path fill-rule="evenodd" clip-rule="evenodd" d="M75.3081 426.367C76.3522 426.634 77.5433 427.167 77.9554 427.551C78.3675 427.934 78.7998 428.249 78.9165 428.249C79.2678 428.249 80.2781 430.148 80.898 431.974C81.3983 433.447 81.4161 433.922 81.0236 435.329C80.2144 438.231 79.2696 439.612 77.3575 440.685C74.3217 442.391 70.0856 441.851 67.6882 439.454C67.0188 438.784 66.4711 438.084 66.4711 437.899C66.4711 437.712 66.2786 437.496 66.043 437.418C65.5085 437.239 65.4117 430.835 65.9381 430.46C66.1338 430.32 66.512 429.783 66.7779 429.266C67.0437 428.75 67.644 428.122 68.1116 427.872C68.5796 427.622 68.9621 427.305 68.9621 427.167C68.9621 426.945 70.7315 426.401 72.6986 426.019C73.0901 425.943 74.2644 426.1 75.3081 426.367ZM82.1289 444.974C82.1289 445.17 82.3812 445.33 82.689 445.33C82.9972 445.33 85.0619 447.132 87.2767 449.333C91.6502 453.681 104.69 466.313 106.651 468.101C107.836 469.183 107.865 469.276 107.921 472.222C107.954 473.989 108.152 475.409 108.398 475.656C108.629 475.887 108.818 476.364 108.818 476.717C108.818 477.276 109.154 477.357 111.487 477.357C113.029 477.357 114.156 477.207 114.156 477.001C114.156 476.782 115.935 476.645 118.782 476.645C121.629 476.645 123.408 476.782 123.408 477.001C123.408 477.197 123.705 477.357 124.067 477.357C125.161 477.357 127.591 479.982 128.565 482.216C128.893 482.969 129.309 483.863 129.488 484.202C129.667 484.542 129.814 485.133 129.814 485.516C129.814 485.898 129.974 486.31 130.17 486.431C130.365 486.552 130.526 487.113 130.526 487.677C130.526 488.241 130.686 488.801 130.881 488.922C131.077 489.043 131.237 489.526 131.237 489.994C131.237 490.463 131.377 491.214 131.547 491.664C131.717 492.113 132.134 493.442 132.472 494.616C132.811 495.791 133.231 497.029 133.408 497.369C133.584 497.709 133.728 498.3 133.728 498.683C133.728 499.065 133.888 499.477 134.084 499.598C134.28 499.719 134.44 500.131 134.44 500.514C134.44 500.896 134.585 501.487 134.763 501.827C135.373 502.995 136.219 506.264 136.219 507.456C136.219 508.347 135.901 508.967 134.962 509.906C133.36 511.508 132.571 511.501 131.566 509.875C131.128 509.166 130.043 508.125 129.155 507.562C127.783 506.692 127.174 506.537 125.118 506.537C123.741 506.537 122.697 506.691 122.697 506.893C122.697 507.089 122.376 507.249 121.985 507.249C121.594 507.249 121.273 507.409 121.273 507.605C121.273 507.801 121.092 507.961 120.87 507.961C120.358 507.961 118.783 509.773 118.783 510.363C118.783 510.608 118.622 510.808 118.426 510.808C118.231 510.808 118.071 511.05 118.071 511.347C118.071 511.644 117.871 512.524 117.628 513.304C117.249 514.519 117.041 514.722 116.179 514.722C115.069 514.722 114.156 514.011 114.156 513.146C114.156 512.839 114.028 512.587 113.87 512.587C113.597 512.587 112.914 510.154 112.495 507.691C112.387 507.053 112.156 506.443 111.982 506.335C111.807 506.227 111.665 505.758 111.665 505.292C111.665 504.826 111.505 504.345 111.309 504.224C111.113 504.103 110.953 503.611 110.953 503.131C110.953 502.65 110.806 501.979 110.627 501.639C110.448 501.3 110.033 500.061 109.705 498.886C108.189 493.452 107.667 491.725 107.365 491.152C107.186 490.812 107.039 490.141 107.039 489.66C107.039 489.18 106.879 488.688 106.683 488.567C106.487 488.446 106.327 487.953 106.327 487.473C106.327 486.993 106.173 486.322 105.984 485.982C105.795 485.642 105.302 484.163 104.888 482.695C104.475 481.227 103.975 479.466 103.779 478.781C103.582 478.095 103.337 477.094 103.233 476.556C103.129 476.018 102.902 475.578 102.728 475.578C102.555 475.578 102.413 475.097 102.413 474.51C102.413 473.923 102.253 473.443 102.057 473.443C101.861 473.443 101.701 473.181 101.701 472.861C101.701 472.542 101.311 471.941 100.833 471.527C99.8111 470.639 96.245 467.394 92.8986 464.306C90.5325 462.122 89.6734 461.794 90.1382 463.252C90.2716 463.67 90.5054 464.733 90.6577 465.614C90.81 466.495 91.2748 468.897 91.6908 470.952C92.1064 473.007 92.447 474.974 92.4477 475.322C92.4484 475.671 91.8883 477.112 91.2032 478.524C90.5182 479.936 89.9577 481.279 89.9577 481.507C89.9577 481.737 89.836 481.977 89.6873 482.043C89.3311 482.199 86.755 487.392 86.755 487.953C86.755 488.193 86.5949 488.389 86.3992 488.389C86.2034 488.389 86.0433 488.696 86.0433 489.071C86.0433 489.446 85.923 489.806 85.7764 489.872C85.4319 490.025 82.8406 495.262 82.8406 495.805C82.8406 496.032 82.6805 496.218 82.4847 496.218C82.289 496.218 82.1289 496.525 82.1289 496.9C82.1289 497.275 82.0086 497.635 81.862 497.7C81.5175 497.853 78.9262 503.091 78.9262 503.634C78.9262 503.861 78.766 504.046 78.5703 504.046C78.3746 504.046 78.2144 504.354 78.2144 504.729C78.2144 505.104 78.092 505.464 77.9426 505.529C77.7931 505.594 77.012 507.009 76.2067 508.673C74.1032 513.019 73.6484 513.45 71.1514 513.465C69.3977 513.475 68.9732 513.341 68.1461 512.514C67.6163 511.985 67.1828 511.234 67.1828 510.845C67.1828 510.456 67.0369 510.048 66.8583 509.938C66.5121 509.723 66.8601 508.445 67.9536 505.919C68.3127 505.089 68.6073 504.288 68.6084 504.139C68.6098 503.99 68.8216 503.465 69.0788 502.971C69.3365 502.478 69.771 501.317 70.0439 500.391C70.3172 499.466 70.666 498.709 70.819 498.709C70.972 498.709 71.0973 498.308 71.0973 497.819C71.0973 497.33 71.2574 496.929 71.4531 496.929C71.6489 496.929 71.809 496.7 71.809 496.419C71.809 496.138 72.2264 494.897 72.7367 493.661C73.2474 492.425 73.8078 491.053 73.9822 490.613C74.7722 488.621 75.0352 487.98 75.3679 487.232C76.859 483.879 78.1504 480.02 77.8895 479.696C77.7209 479.486 77.496 478.674 77.3903 477.891C77.212 476.575 76.6323 473.828 75.6999 469.884C75.4918 469.003 75.2409 467.802 75.1423 467.215C74.9925 466.322 74.4338 464.796 74.047 464.222C73.9199 464.034 72.8321 465.291 71.7609 466.864C71.298 467.544 70.6389 468.101 70.2966 468.102C69.9543 468.104 69.6738 468.265 69.6738 468.461C69.6738 468.656 69.3813 468.817 69.0233 468.817C68.3034 468.817 63.5118 470.633 61.4051 471.705C61.0653 471.878 60.5447 472.019 60.2486 472.019C59.9522 472.019 59.7098 472.179 59.7098 472.375C59.7098 472.906 55.821 472.815 55.3253 472.272C54.1645 471.003 53.5613 468.817 54.372 468.817C54.5677 468.817 54.7278 468.512 54.7278 468.14C54.7278 467.673 55.2235 467.26 56.3278 466.806C57.2078 466.444 57.9284 466.027 57.9291 465.881C57.9298 465.734 58.2508 465.614 58.6423 465.614C59.0337 465.614 59.354 465.454 59.354 465.258C59.354 465.062 59.6611 464.902 60.0361 464.902C60.4112 464.902 60.7713 464.782 60.8368 464.635C60.9019 464.489 62.0364 463.849 63.3574 463.215C64.7527 462.545 65.7594 461.837 65.7594 461.525C65.7594 461.229 65.9195 460.988 66.1153 460.988C66.311 460.988 66.4711 460.681 66.4711 460.305C66.4711 459.93 66.591 459.57 66.738 459.505C66.885 459.44 67.8031 457.785 68.7785 455.828C70.5763 452.22 72.5502 448.708 73.2203 447.925C73.4228 447.689 73.5883 447.39 73.5883 447.261C73.5883 447.133 74.1801 446.485 74.9032 445.823C76.1768 444.656 76.3117 444.618 79.1735 444.618C80.9065 444.618 82.1289 444.765 82.1289 444.974ZM123.515 481.863C123.39 482.188 123.715 483.69 124.238 485.201C124.76 486.712 125.188 488.207 125.188 488.524C125.188 488.841 125.348 489.1 125.544 489.1C125.739 489.1 125.899 489.581 125.899 490.168C125.899 490.755 126.06 491.236 126.255 491.236C126.451 491.236 126.611 491.558 126.611 491.952C126.611 492.346 126.751 492.947 126.923 493.287C127.094 493.627 127.672 495.346 128.207 497.107C128.742 498.869 129.322 500.588 129.496 500.928C129.671 501.268 129.814 501.859 129.814 502.241C129.814 502.624 129.974 503.036 130.17 503.157C130.365 503.278 130.526 503.848 130.526 504.423C130.526 505.382 130.63 505.47 131.771 505.47C132.772 505.47 133.017 505.333 133.017 504.771C133.017 503.983 132.107 500.99 131.582 500.048C131.392 499.708 131.237 499.027 131.237 498.536C131.237 498.043 131.077 497.641 130.881 497.641C130.686 497.641 130.526 497.239 130.526 496.746C130.526 496.255 130.372 495.574 130.184 495.234C129.668 494.299 127.323 487.113 127.323 486.465C127.323 486.153 127.163 485.898 126.967 485.898C126.771 485.898 126.611 485.427 126.611 484.851C126.611 484.275 126.472 483.718 126.301 483.613C126.131 483.508 125.894 482.938 125.776 482.347C125.604 481.487 125.379 481.272 124.652 481.272C124.132 481.272 123.645 481.525 123.515 481.863ZM91.3723 488.567C91.9118 489.822 92.8003 493.059 93.058 494.708C93.1576 495.346 93.3815 495.956 93.5555 496.064C93.7298 496.172 93.8722 496.492 93.8722 496.777C93.8722 497.061 94.6711 498.132 95.6479 499.158C96.6244 500.183 97.4251 501.134 97.4272 501.273C97.429 501.411 98.2717 502.395 99.299 503.46C103.577 507.893 104.202 509.358 102.942 512.012C102.227 513.519 99.6894 514.377 98.2087 513.612C96.2593 512.605 90.1567 506.555 87.6667 503.162C87.2877 502.645 86.7048 501.908 86.3718 501.524C86.0387 501.14 85.5732 500.359 85.3369 499.789C84.9565 498.871 85.0231 498.536 85.9177 496.862C86.4732 495.823 87.0088 494.892 87.108 494.794C87.2077 494.696 87.5618 494.056 87.8955 493.371C88.714 491.691 90.0834 489.32 90.3613 489.1C90.4855 489.003 90.6606 488.602 90.7502 488.211C90.8922 487.592 90.973 487.638 91.3723 488.567ZM127.323 509.74C127.323 509.936 127.504 510.096 127.726 510.096C128.453 510.096 129.812 512.03 129.851 513.121C129.93 515.326 129.732 516.235 128.983 517.101C127.138 519.236 124.343 519.614 122.233 518.014C121.524 517.476 120.937 516.764 120.93 516.433C120.923 516.103 120.757 515.733 120.562 515.612C119.988 515.257 120.152 513.001 120.828 511.952C122.235 509.766 122.881 509.384 125.172 509.384C126.368 509.384 127.323 509.542 127.323 509.74Z" fill="#8E7496"/>
<path fill-rule="evenodd" clip-rule="evenodd" d="M209.044 118.344C208.067 118.594 206.951 119.093 206.565 119.452C206.179 119.812 205.774 120.106 205.665 120.106C205.336 120.106 204.39 121.885 203.809 123.595C203.341 124.975 203.324 125.419 203.692 126.737C204.45 129.454 205.335 130.748 207.125 131.753C209.968 133.35 213.935 132.845 216.181 130.6C216.808 129.973 217.32 129.317 217.32 129.143C217.32 128.969 217.501 128.766 217.721 128.693C218.222 128.526 218.313 122.528 217.82 122.177C217.636 122.046 217.282 121.543 217.033 121.059C216.784 120.575 216.222 119.988 215.784 119.753C215.346 119.519 214.988 119.222 214.988 119.093C214.988 118.885 213.331 118.376 211.488 118.018C211.122 117.947 210.022 118.093 209.044 118.344ZM202.657 135.77C202.657 135.953 202.42 136.103 202.132 136.103C201.844 136.103 199.91 137.79 197.836 139.852C193.74 143.924 181.528 155.754 179.692 157.429C178.581 158.441 178.554 158.528 178.502 161.288C178.471 162.943 178.286 164.273 178.055 164.504C177.839 164.72 177.662 165.167 177.662 165.497C177.662 166.021 177.347 166.097 175.162 166.097C173.718 166.097 172.663 165.956 172.663 165.764C172.663 165.559 170.996 165.43 168.33 165.43C165.664 165.43 163.998 165.559 163.998 165.764C163.998 165.947 163.72 166.097 163.38 166.097C162.356 166.097 160.08 168.555 159.168 170.647C158.861 171.352 158.472 172.189 158.304 172.508C158.136 172.826 157.999 173.38 157.999 173.738C157.999 174.096 157.849 174.482 157.666 174.595C157.482 174.709 157.332 175.233 157.332 175.762C157.332 176.29 157.182 176.815 156.999 176.928C156.816 177.041 156.666 177.493 156.666 177.932C156.666 178.371 156.535 179.074 156.375 179.495C156.216 179.916 155.826 181.161 155.509 182.26C155.192 183.36 154.798 184.52 154.633 184.839C154.468 185.157 154.333 185.71 154.333 186.069C154.333 186.427 154.183 186.813 154 186.926C153.816 187.04 153.666 187.425 153.666 187.784C153.666 188.142 153.53 188.696 153.364 189.014C152.792 190.107 152 193.169 152 194.285C152 195.12 152.298 195.7 153.177 196.58C154.677 198.08 155.417 198.073 156.357 196.551C156.768 195.887 157.784 194.912 158.616 194.384C159.901 193.57 160.471 193.425 162.397 193.425C163.686 193.425 164.664 193.569 164.664 193.758C164.664 193.941 164.964 194.091 165.331 194.091C165.697 194.091 165.997 194.241 165.997 194.425C165.997 194.608 166.167 194.758 166.375 194.758C166.855 194.758 168.329 196.455 168.33 197.008C168.33 197.237 168.48 197.424 168.663 197.424C168.847 197.424 168.997 197.651 168.997 197.929C168.997 198.207 169.183 199.032 169.411 199.762C169.766 200.9 169.96 201.09 170.768 201.09C171.808 201.09 172.663 200.424 172.663 199.614C172.663 199.326 172.783 199.09 172.93 199.09C173.186 199.09 173.826 196.812 174.218 194.505C174.32 193.907 174.536 193.336 174.699 193.236C174.862 193.135 174.995 192.695 174.995 192.258C174.995 191.822 175.145 191.372 175.329 191.259C175.512 191.145 175.662 190.684 175.662 190.235C175.662 189.785 175.8 189.156 175.968 188.838C176.136 188.52 176.524 187.359 176.831 186.26C178.25 181.17 178.74 179.552 179.023 179.016C179.191 178.697 179.328 178.069 179.328 177.619C179.328 177.169 179.478 176.708 179.661 176.595C179.845 176.482 179.994 176.021 179.994 175.571C179.994 175.121 180.139 174.492 180.316 174.174C180.493 173.856 180.954 172.471 181.342 171.096C181.729 169.721 182.197 168.072 182.381 167.43C182.565 166.788 182.795 165.851 182.893 165.347C182.99 164.843 183.203 164.431 183.365 164.431C183.527 164.431 183.66 163.981 183.66 163.431C183.66 162.881 183.81 162.431 183.994 162.431C184.177 162.431 184.327 162.186 184.327 161.886C184.327 161.587 184.693 161.025 185.139 160.637C186.097 159.806 189.437 156.766 192.571 153.874C194.787 151.829 195.591 151.522 195.156 152.887C195.031 153.279 194.812 154.274 194.669 155.099C194.527 155.924 194.091 158.173 193.702 160.098C193.313 162.023 192.994 163.865 192.993 164.191C192.992 164.518 193.517 165.867 194.158 167.189C194.8 168.512 195.325 169.77 195.325 169.984C195.325 170.198 195.439 170.424 195.578 170.485C195.912 170.631 198.324 175.495 198.324 176.021C198.324 176.245 198.474 176.428 198.657 176.428C198.841 176.428 198.991 176.716 198.991 177.067C198.991 177.418 199.103 177.756 199.241 177.817C199.563 177.96 201.99 182.866 201.99 183.374C201.99 183.587 202.14 183.76 202.323 183.76C202.507 183.76 202.657 184.048 202.657 184.399C202.657 184.75 202.769 185.088 202.907 185.149C203.229 185.292 205.656 190.198 205.656 190.706C205.656 190.918 205.806 191.092 205.989 191.092C206.173 191.092 206.323 191.38 206.323 191.731C206.323 192.082 206.437 192.419 206.577 192.481C206.717 192.542 207.449 193.867 208.203 195.425C210.173 199.495 210.599 199.898 212.937 199.912C214.58 199.922 214.977 199.796 215.752 199.022C216.248 198.527 216.654 197.823 216.654 197.459C216.654 197.095 216.791 196.713 216.958 196.609C217.282 196.409 216.956 195.212 215.932 192.845C215.596 192.068 215.32 191.318 215.319 191.179C215.318 191.039 215.119 190.547 214.878 190.085C214.637 189.623 214.23 188.536 213.974 187.669C213.719 186.802 213.392 186.093 213.249 186.093C213.105 186.093 212.988 185.718 212.988 185.26C212.988 184.802 212.838 184.427 212.655 184.427C212.471 184.427 212.321 184.212 212.321 183.949C212.321 183.686 211.931 182.524 211.453 181.366C210.974 180.208 210.45 178.924 210.286 178.511C209.546 176.646 209.3 176.046 208.988 175.345C207.592 172.205 206.383 168.59 206.627 168.287C206.785 168.091 206.996 167.33 207.095 166.597C207.261 165.364 207.804 162.792 208.678 159.098C208.872 158.273 209.107 157.149 209.2 156.599C209.34 155.763 209.863 154.333 210.226 153.796C210.345 153.619 211.363 154.797 212.366 156.27C212.8 156.907 213.417 157.428 213.738 157.43C214.058 157.431 214.321 157.582 214.321 157.765C214.321 157.949 214.595 158.099 214.93 158.099C215.604 158.099 220.092 159.8 222.065 160.804C222.383 160.966 222.871 161.098 223.148 161.098C223.426 161.098 223.653 161.248 223.653 161.431C223.653 161.928 227.295 161.843 227.759 161.335C228.846 160.146 229.411 158.099 228.652 158.099C228.468 158.099 228.318 157.814 228.318 157.465C228.318 157.028 227.854 156.64 226.82 156.215C225.996 155.876 225.321 155.486 225.32 155.349C225.32 155.212 225.019 155.099 224.652 155.099C224.286 155.099 223.986 154.949 223.986 154.766C223.986 154.583 223.698 154.433 223.347 154.433C222.996 154.433 222.658 154.32 222.597 154.183C222.536 154.045 221.474 153.447 220.237 152.853C218.93 152.225 217.987 151.562 217.987 151.27C217.987 150.993 217.837 150.767 217.654 150.767C217.47 150.767 217.32 150.479 217.32 150.128C217.32 149.776 217.208 149.439 217.071 149.378C216.933 149.317 216.073 147.767 215.16 145.934C213.476 142.556 211.627 139.267 211 138.533C210.81 138.312 210.655 138.032 210.655 137.911C210.655 137.791 210.101 137.185 209.424 136.564C208.231 135.472 208.105 135.436 205.424 135.436C203.801 135.436 202.657 135.574 202.657 135.77ZM163.898 170.317C164.015 170.621 163.71 172.028 163.221 173.443C162.732 174.858 162.331 176.258 162.331 176.555C162.331 176.852 162.181 177.095 161.998 177.095C161.815 177.095 161.665 177.545 161.665 178.095C161.665 178.644 161.515 179.094 161.331 179.094C161.148 179.094 160.998 179.396 160.998 179.766C160.998 180.135 160.867 180.697 160.706 181.015C160.546 181.334 160.005 182.944 159.504 184.593C159.003 186.243 158.459 187.853 158.296 188.171C158.132 188.49 157.999 189.043 157.999 189.401C157.999 189.76 157.849 190.146 157.666 190.259C157.482 190.372 157.332 190.906 157.332 191.445C157.332 192.343 157.235 192.425 156.166 192.425C155.228 192.425 154.999 192.296 154.999 191.77C154.999 191.033 155.851 188.229 156.343 187.347C156.52 187.029 156.666 186.392 156.666 185.931C156.666 185.47 156.816 185.093 156.999 185.093C157.182 185.093 157.332 184.716 157.332 184.255C157.332 183.795 157.476 183.157 157.652 182.839C158.136 181.963 160.332 175.234 160.332 174.627C160.332 174.335 160.482 174.095 160.665 174.095C160.848 174.095 160.998 173.654 160.998 173.115C160.998 172.576 161.129 172.054 161.288 171.956C161.448 171.857 161.669 171.323 161.78 170.77C161.941 169.965 162.152 169.763 162.833 169.763C163.32 169.763 163.776 170 163.898 170.317ZM194 176.595C193.495 177.77 192.663 180.802 192.421 182.347C192.328 182.944 192.118 183.516 191.955 183.616C191.792 183.717 191.659 184.017 191.659 184.284C191.659 184.55 190.911 185.553 189.996 186.514C189.081 187.474 188.332 188.365 188.33 188.494C188.328 188.624 187.539 189.545 186.577 190.542C182.57 194.694 181.985 196.066 183.165 198.552C183.834 199.964 186.211 200.767 187.598 200.051C189.423 199.107 195.139 193.441 197.47 190.264C197.825 189.78 198.371 189.089 198.683 188.73C198.995 188.37 199.431 187.639 199.652 187.105C200.009 186.245 199.946 185.932 199.108 184.364C198.588 183.39 198.087 182.519 197.994 182.427C197.9 182.335 197.569 181.736 197.256 181.094C196.49 179.521 195.207 177.3 194.947 177.095C194.831 177.003 194.667 176.628 194.583 176.262C194.45 175.682 194.374 175.725 194 176.595ZM160.332 196.424C160.332 196.608 160.162 196.758 159.954 196.758C159.273 196.758 158 198.569 157.964 199.59C157.89 201.656 158.076 202.507 158.777 203.318C160.505 205.318 163.123 205.672 165.098 204.173C165.763 203.669 166.312 203.003 166.318 202.693C166.325 202.383 166.48 202.037 166.664 201.923C167.201 201.591 167.047 199.478 166.414 198.496C165.097 196.449 164.492 196.091 162.346 196.091C161.225 196.091 160.332 196.239 160.332 196.424Z" fill="#8E7496"/>
<path fill-rule="evenodd" clip-rule="evenodd" d="M526.606 356.224C518.57 357.843 515.365 367.611 520.863 373.726C523.875 377.076 528.372 378.23 532.431 376.695C537.879 374.634 540.659 369.019 538.975 363.476C537.374 358.206 532.104 355.116 526.606 356.224ZM514.272 381.994C511.002 383.055 507.82 385.76 506.446 388.645C505.568 390.487 496.002 426.612 496 428.09C495.999 428.823 496.301 429.87 496.697 430.511C498.517 433.456 503.155 433.478 504.906 430.55C505.264 429.95 506.793 424.818 508.303 419.144C509.813 413.469 511.472 407.255 511.989 405.333C512.506 403.411 513.094 401.202 513.296 400.424L513.662 399.01H515.314C516.349 399.01 516.965 399.154 516.965 399.397C516.965 399.611 514.701 408.259 511.935 418.616C509.168 428.973 506.046 440.667 504.997 444.602L503.089 451.757L509.195 451.848L515.301 451.938L515.303 471.15C515.304 483.529 515.429 490.809 515.654 491.619C516.08 493.154 517.612 494.961 518.961 495.52C520.553 496.179 523.36 495.797 524.757 494.732C525.408 494.235 526.131 493.498 526.362 493.094C526.682 492.533 526.822 487.582 526.949 472.224L527.115 452.09H528.779H530.443L530.609 472.058C530.771 491.45 530.795 492.059 531.46 493.19C533.179 496.117 537.679 496.747 540.221 494.416C540.657 494.017 541.29 493.091 541.628 492.358C542.203 491.113 542.243 489.773 542.25 471.476L542.257 451.924H548.436C554.167 451.924 554.602 451.882 554.438 451.341C553.97 449.807 540.593 399.492 540.593 399.267C540.593 399.126 541.338 399.01 542.248 399.01H543.902L544.4 400.757C544.674 401.717 546.542 408.679 548.551 416.227C550.559 423.774 552.473 430.314 552.804 430.758C555.543 434.44 561.66 432.547 561.646 428.021C561.641 426.33 552.061 390.595 551.041 388.463C550.029 386.348 547.266 383.753 544.67 382.477L542.756 381.538L529.445 381.464C517.364 381.396 515.961 381.445 514.272 381.994Z" fill="#8E7496"/>
<path fill-rule="evenodd" clip-rule="evenodd" d="M172.508 562.201C165.285 563.657 162.404 572.435 167.345 577.931C170.053 580.942 174.095 581.979 177.743 580.6C182.639 578.748 185.137 573.701 183.624 568.719C182.185 563.983 177.449 561.206 172.508 562.201ZM161.422 585.362C158.483 586.316 155.623 588.747 154.388 591.34C153.599 592.996 145.001 625.463 145 626.791C144.999 627.45 145.27 628.391 145.626 628.967C147.262 631.614 151.431 631.634 153.004 629.002C153.326 628.463 154.7 623.85 156.057 618.751C157.414 613.651 158.905 608.065 159.37 606.338C159.835 604.611 160.363 602.625 160.545 601.926L160.874 600.655H162.358C163.288 600.655 163.842 600.785 163.842 601.003C163.842 601.195 161.808 608.968 159.321 618.277C156.834 627.585 154.029 638.095 153.086 641.632L151.371 648.062L156.859 648.144L162.347 648.225L162.348 665.492C162.349 676.617 162.461 683.16 162.664 683.888C163.047 685.268 164.424 686.892 165.637 687.394C167.067 687.987 169.59 687.644 170.845 686.686C171.431 686.24 172.08 685.577 172.288 685.213C172.576 684.709 172.701 680.26 172.815 666.457L172.965 648.362H174.46H175.956L176.105 666.308C176.251 683.736 176.272 684.284 176.87 685.3C178.415 687.931 182.459 688.497 184.744 686.402C185.136 686.043 185.705 685.211 186.008 684.553C186.525 683.433 186.561 682.229 186.567 665.784L186.574 648.212H192.127C197.278 648.212 197.669 648.174 197.521 647.689C197.101 646.309 185.078 601.089 185.078 600.887C185.078 600.759 185.747 600.655 186.565 600.655H188.053L188.5 602.225C188.746 603.089 190.425 609.346 192.23 616.129C194.035 622.913 195.756 628.79 196.053 629.19C198.514 632.499 204.012 630.797 204 626.729C203.995 625.209 195.385 593.092 194.469 591.177C193.559 589.275 191.076 586.943 188.742 585.797L187.022 584.952L175.058 584.886C164.201 584.825 162.94 584.869 161.422 585.362Z" fill="#8E7496"/>
<path fill-rule="evenodd" clip-rule="evenodd" d="M65.4466 244.159C59.8156 245.305 57.5695 252.22 61.4219 256.549C63.5326 258.92 66.684 259.737 69.5283 258.651C73.3455 257.192 75.2934 253.217 74.1136 249.293C72.992 245.562 69.2991 243.374 65.4466 244.159ZM56.8037 262.402C54.5125 263.153 52.2824 265.068 51.3196 267.11C50.7044 268.414 44.0011 293.988 44 295.034C43.9995 295.553 44.2105 296.294 44.4881 296.748C45.7634 298.833 49.0137 298.849 50.2406 296.776C50.4917 296.351 51.5628 292.718 52.6208 288.701C53.679 284.684 54.8413 280.284 55.2037 278.924C55.5661 277.563 55.9781 276 56.1195 275.449L56.3764 274.447H57.5336C58.2588 274.447 58.6905 274.55 58.6905 274.722C58.6905 274.873 57.1042 280.996 55.1657 288.327C53.2269 295.66 51.0393 303.938 50.3042 306.724L48.9675 311.789L53.246 311.853L57.5245 311.917L57.5259 325.518C57.5266 334.281 57.614 339.434 57.7717 340.008C58.0704 341.095 59.144 342.374 60.0896 342.77C61.2048 343.236 63.1718 342.966 64.1505 342.212C64.6071 341.86 65.1132 341.338 65.2752 341.052C65.4998 340.655 65.5975 337.15 65.6864 326.278L65.803 312.025H66.9689H68.1349L68.2515 326.16C68.3649 339.888 68.3819 340.32 68.8476 341.12C70.0523 343.192 73.2051 343.638 74.9867 341.988C75.2922 341.705 75.736 341.05 75.9727 340.531C76.3756 339.65 76.4034 338.701 76.4083 325.748L76.4134 311.907H80.7432C84.7589 311.907 85.0641 311.877 84.9487 311.495C84.621 310.408 75.2474 274.789 75.2474 274.63C75.2474 274.53 75.7691 274.447 76.4069 274.447H77.5664L77.9152 275.684C78.1071 276.365 79.4158 281.293 80.8234 286.636C82.231 291.979 83.5721 296.609 83.8039 296.923C85.7231 299.53 90.0093 298.189 90 294.985C89.9965 293.788 83.2832 268.49 82.5687 266.982C81.8595 265.484 79.9235 263.647 78.1041 262.744L76.7632 262.079L67.4353 262.026C58.9701 261.979 57.9869 262.013 56.8037 262.402Z" fill="#8E7496"/>
<g filter="url(#filter0_d_13_9358)">
<circle cx="600.431" cy="360.431" r="133.431" fill="black"/>
<circle cx="600.431" cy="360.431" r="139.888" stroke="white" stroke-width="12.9127"/>
</g>
<path d="M598.67 327.057L586.182 368.271H610.738L620.725 402.389H577.069L567.956 432.901H514.347L563.929 291.563H588.284L598.67 327.057Z" fill="white"/>
<path d="M688.954 432.901H634.146L592.769 291.563H638.522L688.954 432.901Z" fill="white"/>
</g>
<defs>
<filter id="filter0_d_13_9358" x="386.387" y="146.387" width="428.088" height="428.088" filterUnits="userSpaceOnUse" color-interpolation-filters="sRGB">
<feFlood flood-opacity="0" result="BackgroundImageFix"/>
<feColorMatrix in="SourceAlpha" type="matrix" values="0 0 0 0 0 0 0 0 0 0 0 0 0 0 0 0 0 0 127 0" result="hardAlpha"/>
<feMorphology radius="28" operator="dilate" in="SourceAlpha" result="effect1_dropShadow_13_9358"/>
<feOffset/>
<feGaussianBlur stdDeviation="19.85"/>
<feComposite in2="hardAlpha" operator="out"/>
<feColorMatrix type="matrix" values="0 0 0 0 0.654902 0 0 0 0 0.65098 0 0 0 0 0.619608 0 0 0 1 0"/>
<feBlend mode="normal" in2="BackgroundImageFix" result="effect1_dropShadow_13_9358"/>
<feBlend mode="normal" in="SourceGraphic" in2="effect1_dropShadow_13_9358" result="shape"/>
</filter>
<clipPath id="clip0_13_9358">
<rect width="1200" height="720" fill="white"/>
</clipPath>
</defs>
</svg>
