<svg width="25" height="25" viewBox="0 0 25 25" fill="none" xmlns="http://www.w3.org/2000/svg">
<line x1="5.5" y1="6" x2="5.5" y2="17" stroke="white" stroke-width="3"/>
<line x1="19" y1="19.5" x2="8" y2="19.5" stroke="white" stroke-width="3"/>
<circle cx="5.5" cy="19.5" r="4.5" fill="black" stroke="white" stroke-width="2"/>
<circle cx="18" cy="7" r="7" fill="#42A742"/>
<path d="M15.0953 10C15.0128 10 14.9416 9.97375 14.8816 9.92125C14.8291 9.86875 14.8028 9.80125 14.8028 9.71875V8.92C14.8028 8.8675 14.8178 8.78875 14.8478 8.68375C14.8778 8.57125 14.9566 8.46625 15.0841 8.36875L16.2541 7.22125C16.8541 6.76375 17.3453 6.3775 17.7278 6.0625C18.1178 5.74 18.4066 5.455 18.5941 5.2075C18.7816 4.96 18.8753 4.7275 18.8753 4.51C18.8753 4.255 18.8078 4.045 18.6728 3.88C18.5453 3.7075 18.3203 3.62125 17.9978 3.62125C17.7803 3.62125 17.5966 3.67 17.4466 3.7675C17.3041 3.8575 17.1953 3.9775 17.1203 4.1275C17.0453 4.2775 16.9928 4.43125 16.9628 4.58875C16.9328 4.68625 16.8803 4.75375 16.8053 4.79125C16.7378 4.82875 16.6628 4.8475 16.5803 4.8475H15.1741C15.1066 4.8475 15.0503 4.825 15.0053 4.78C14.9603 4.735 14.9378 4.67875 14.9378 4.61125C14.9453 4.25125 15.0203 3.91375 15.1628 3.59875C15.3128 3.28375 15.5191 3.00625 15.7816 2.76625C16.0516 2.51875 16.3703 2.3275 16.7378 2.1925C17.1128 2.0575 17.5328 1.99 17.9978 1.99C18.6353 1.99 19.1753 2.09125 19.6178 2.29375C20.0678 2.49625 20.4091 2.78125 20.6416 3.14875C20.8741 3.50875 20.9903 3.9325 20.9903 4.42C20.9903 4.7875 20.9078 5.1325 20.7428 5.455C20.5853 5.77 20.3566 6.07375 20.0566 6.36625C19.7641 6.65125 19.4153 6.9475 19.0103 7.255L17.9753 8.30125H20.8666C20.9491 8.30125 21.0166 8.3275 21.0691 8.38C21.1291 8.4325 21.1591 8.5 21.1591 8.5825V9.71875C21.1591 9.80125 21.1291 9.86875 21.0691 9.92125C21.0166 9.97375 20.9491 10 20.8666 10H15.0953Z" fill="white"/>
</svg>
