<svg width="29" height="23" viewBox="0 0 29 23" fill="none" xmlns="http://www.w3.org/2000/svg">
<line x1="11.5" y1="4" x2="11.5" y2="15" stroke="white" stroke-width="3"/>
<line x1="23" y1="17.5" x2="12" y2="17.5" stroke="white" stroke-width="3"/>
<line x1="7" y1="17.5" y2="17.5" stroke="white" stroke-width="3"/>
<circle cx="11.5" cy="17.5" r="4.5" fill="black" stroke="white" stroke-width="2"/>
<circle cx="22" cy="7" r="7" fill="#42A742"/>
<path d="M21.9635 10.1238C21.2585 10.1238 20.6698 10.015 20.1973 9.7975C19.7248 9.5725 19.3648 9.28375 19.1173 8.93125C18.8773 8.57125 18.7498 8.185 18.7348 7.7725C18.7348 7.705 18.7573 7.64875 18.8023 7.60375C18.8473 7.55875 18.9035 7.53625 18.971 7.53625H20.4785C20.576 7.53625 20.651 7.55875 20.7035 7.60375C20.7635 7.64125 20.8085 7.69 20.8385 7.75C20.906 7.9225 20.9923 8.065 21.0973 8.1775C21.2098 8.29 21.3373 8.3725 21.4798 8.425C21.6298 8.4775 21.7948 8.50375 21.9748 8.50375C22.1848 8.50375 22.3798 8.45875 22.5598 8.36875C22.7398 8.27875 22.8823 8.1475 22.9873 7.975C23.0998 7.795 23.156 7.58125 23.156 7.33375C23.156 7.10875 23.1035 6.91375 22.9985 6.74875C22.901 6.58375 22.7623 6.4525 22.5823 6.355C22.4023 6.2575 22.1998 6.20875 21.9748 6.20875C21.7948 6.20875 21.6485 6.23125 21.536 6.27625C21.4235 6.31375 21.3298 6.3625 21.2548 6.4225C21.1798 6.4825 21.1123 6.535 21.0523 6.58C20.9923 6.6175 20.9248 6.63625 20.8498 6.63625H19.376C19.3085 6.63625 19.2485 6.61375 19.196 6.56875C19.151 6.51625 19.1285 6.45625 19.1285 6.38875L19.5335 2.4625C19.5485 2.35 19.5898 2.2675 19.6573 2.215C19.7248 2.155 19.8073 2.125 19.9048 2.125H24.416C24.4985 2.125 24.566 2.15125 24.6185 2.20375C24.671 2.25625 24.6973 2.32375 24.6973 2.40625V3.46375C24.6973 3.54625 24.671 3.61375 24.6185 3.66625C24.566 3.71875 24.4985 3.745 24.416 3.745H21.1535L21.0073 5.2075C21.1723 5.095 21.3635 5.005 21.581 4.9375C21.806 4.8625 22.1098 4.825 22.4923 4.825C22.8523 4.825 23.1935 4.885 23.516 5.005C23.846 5.125 24.1385 5.2975 24.3935 5.5225C24.656 5.7475 24.8585 6.0175 25.001 6.3325C25.151 6.64 25.226 6.98875 25.226 7.37875C25.226 7.91125 25.0948 8.38375 24.8323 8.79625C24.5773 9.20875 24.206 9.535 23.7185 9.775C23.231 10.0075 22.646 10.1238 21.9635 10.1238Z" fill="white"/>
</svg>
