<svg width="29" height="29" viewBox="0 0 29 29" fill="none" xmlns="http://www.w3.org/2000/svg">
<line x1="11.5" y1="3" x2="11.5" y2="14" stroke="white" stroke-width="3"/>
<line x1="11.5" y1="18" x2="11.5" y2="29" stroke="white" stroke-width="3"/>
<line x1="23" y1="16.5" x2="12" y2="16.5" stroke="white" stroke-width="3"/>
<line x1="7" y1="16.5" y2="16.5" stroke="white" stroke-width="3"/>
<circle cx="11.5" cy="16.5" r="4.5" fill="black" stroke="white" stroke-width="2"/>
<circle cx="22" cy="7" r="7" fill="#42A742"/>
<path d="M20.354 10C20.2865 10 20.2302 9.9775 20.1852 9.9325C20.1402 9.88 20.1177 9.82 20.1177 9.7525C20.1177 9.715 20.1215 9.685 20.129 9.6625C20.144 9.64 20.1552 9.62125 20.1627 9.60625L21.749 7.435C21.644 7.4575 21.5352 7.46875 21.4227 7.46875C21.0852 7.44625 20.7552 7.37125 20.4327 7.24375C20.1102 7.10875 19.8177 6.92875 19.5552 6.70375C19.3002 6.47125 19.0977 6.1975 18.9477 5.8825C18.7977 5.5675 18.7227 5.215 18.7227 4.825C18.7227 4.465 18.7902 4.12 18.9252 3.79C19.0602 3.4525 19.2627 3.1525 19.5327 2.89C19.8027 2.62 20.1365 2.40625 20.534 2.24875C20.939 2.09125 21.4077 2.0125 21.9402 2.0125C22.4727 2.0125 22.9415 2.08375 23.3465 2.22625C23.759 2.36875 24.104 2.5675 24.3815 2.8225C24.6665 3.07 24.8802 3.35875 25.0227 3.68875C25.1652 4.01875 25.2365 4.37125 25.2365 4.74625C25.2365 5.09125 25.1727 5.41 25.0452 5.7025C24.9252 5.995 24.7752 6.2725 24.5952 6.535C24.4152 6.79 24.2352 7.04875 24.0552 7.31125L22.2552 9.775C22.2252 9.8125 22.1802 9.86125 22.1202 9.92125C22.0602 9.97375 21.9702 10 21.8502 10H20.354ZM21.9627 5.995C22.1877 5.995 22.3902 5.94625 22.5702 5.84875C22.7502 5.75125 22.8927 5.61625 22.9977 5.44375C23.1027 5.27125 23.1552 5.06125 23.1552 4.81375C23.1552 4.56625 23.1027 4.35625 22.9977 4.18375C22.8927 4.00375 22.7502 3.86875 22.5702 3.77875C22.3902 3.68125 22.1877 3.6325 21.9627 3.6325C21.7452 3.6325 21.5465 3.68125 21.3665 3.77875C21.1865 3.86875 21.044 4.00375 20.939 4.18375C20.834 4.35625 20.7815 4.56625 20.7815 4.81375C20.7815 5.06125 20.834 5.27125 20.939 5.44375C21.044 5.61625 21.1865 5.75125 21.3665 5.84875C21.5465 5.94625 21.7452 5.995 21.9627 5.995Z" fill="white"/>
</svg>
