<svg width="76" height="76" viewBox="0 0 76 76" fill="none" xmlns="http://www.w3.org/2000/svg">
<g filter="url(#filter0_d_23_16897)">
<circle cx="38" cy="38" r="31" fill="black"/>
<circle cx="38" cy="38" r="32.5" stroke="white" stroke-width="3"/>
</g>
<path d="M35.1743 27V22.9823H40.0901V27H35.1743ZM44.1078 14.7814C44.1078 15.3486 44.0054 15.8291 43.8006 16.223C43.5958 16.6169 43.3358 16.9714 43.0207 17.2866C42.7056 17.6017 42.3668 17.8932 42.0044 18.161C41.642 18.4289 41.3033 18.7125 40.9882 19.0118C40.6731 19.3112 40.4131 19.642 40.2083 20.0044C40.0034 20.3511 39.901 20.7686 39.901 21.257V21.5879H35.3634V21.2806C35.3634 20.5874 35.4343 20.0044 35.5761 19.5318C35.7336 19.0591 35.9227 18.6652 36.1433 18.3501C36.3796 18.035 36.6238 17.775 36.8759 17.5702C37.1438 17.3653 37.388 17.1841 37.6086 17.0266C37.8449 16.8533 38.034 16.68 38.1758 16.5066C38.3333 16.3176 38.4121 16.097 38.4121 15.8449C38.4121 15.6243 38.3333 15.451 38.1758 15.325C38.034 15.1989 37.8607 15.1123 37.6558 15.065C37.451 15.002 37.2304 14.9626 36.9941 14.9468C36.7735 14.9311 36.5844 14.9232 36.4269 14.9232C35.8754 14.9232 35.3161 14.9862 34.7489 15.1123C34.1974 15.2226 33.6617 15.388 33.1418 15.6086L33 11.8272C33.8351 11.5593 34.6386 11.3545 35.4106 11.2127C36.1984 11.0709 37.0335 11 37.9158 11C38.5145 11 39.1763 11.0551 39.901 11.1654C40.6258 11.26 41.2954 11.449 41.9099 11.7326C42.5401 12.0162 43.0601 12.4023 43.4697 12.8907C43.8951 13.3791 44.1078 14.0094 44.1078 14.7814Z" fill="white"/>
<path d="M54.764 44C54.764 44 58.1348 46.5281 63.5843 46.1348V46.8652C58.1348 46.4719 54.764 49 54.764 49C54.9513 48.3446 54.9888 47.5393 55.4382 46.8652C55.5281 46.7303 37.6479 46.809 28.6966 46.8652C26.2809 46.8803 24.2022 48.7753 24.2022 48.7753L11 48.6629C11.7682 47.7923 14.7776 46.6884 15.3035 46.5C14.7776 46.3116 11.7682 45.2077 11 44.3371L24.2022 44.2247C24.2022 44.2247 26.2809 46.1197 28.6966 46.1348C37.6479 46.191 55.5281 46.2697 55.4382 46.1348C54.9888 45.4607 54.9513 44.6554 54.764 44Z" fill="white"/>
<path d="M18.39 36.005C18.39 35.515 18.345 35.055 18.255 34.625C18.165 34.195 18.01 33.82 17.79 33.5C17.57 33.17 17.28 32.91 16.92 32.72C16.56 32.53 16.11 32.435 15.57 32.435H14.985V39.56H15.675C16.185 39.56 16.615 39.465 16.965 39.275C17.315 39.075 17.595 38.815 17.805 38.495C18.015 38.165 18.165 37.785 18.255 37.355C18.345 36.925 18.39 36.475 18.39 36.005ZM20.295 36.005C20.295 36.725 20.195 37.39 19.995 38C19.805 38.61 19.515 39.14 19.125 39.59C18.745 40.03 18.27 40.375 17.7 40.625C17.13 40.875 16.47 41 15.72 41H13.14V30.995H15.54C16.34 30.995 17.035 31.115 17.625 31.355C18.225 31.585 18.72 31.92 19.11 32.36C19.51 32.79 19.805 33.315 19.995 33.935C20.195 34.545 20.295 35.235 20.295 36.005ZM25.7491 36.665C25.7491 36.445 25.7341 36.21 25.7041 35.96C25.6741 35.71 25.6141 35.475 25.5241 35.255C25.4341 35.035 25.3091 34.855 25.1491 34.715C24.9991 34.565 24.7991 34.49 24.5491 34.49C24.3091 34.49 24.1041 34.565 23.9341 34.715C23.7741 34.855 23.6391 35.035 23.5291 35.255C23.4291 35.475 23.3541 35.71 23.3041 35.96C23.2641 36.21 23.2441 36.445 23.2441 36.665H25.7491ZM23.2441 37.655C23.2441 37.945 23.2741 38.225 23.3341 38.495C23.4041 38.765 23.5141 39.01 23.6641 39.23C23.8141 39.45 24.0041 39.625 24.2341 39.755C24.4741 39.885 24.7641 39.95 25.1041 39.95C25.4341 39.95 25.7641 39.9 26.0941 39.8C26.4241 39.69 26.7291 39.55 27.0091 39.38L27.0991 40.745C26.7691 40.885 26.4141 40.99 26.0341 41.06C25.6541 41.13 25.2891 41.165 24.9391 41.165C24.3291 41.165 23.8091 41.065 23.3791 40.865C22.9491 40.665 22.5941 40.39 22.3141 40.04C22.0441 39.68 21.8441 39.26 21.7141 38.78C21.5941 38.29 21.5341 37.765 21.5341 37.205C21.5341 36.725 21.5941 36.255 21.7141 35.795C21.8341 35.325 22.0141 34.91 22.2541 34.55C22.5041 34.18 22.8141 33.885 23.1841 33.665C23.5641 33.435 24.0141 33.32 24.5341 33.32C25.0841 33.32 25.5391 33.435 25.8991 33.665C26.2691 33.885 26.5641 34.175 26.7841 34.535C27.0041 34.895 27.1591 35.305 27.2491 35.765C27.3391 36.215 27.3841 36.665 27.3841 37.115V37.655H23.2441ZM32.5139 37.37H32.2589C31.9889 37.37 31.7189 37.39 31.4489 37.43C31.1889 37.47 30.9489 37.545 30.7289 37.655C30.5189 37.755 30.3439 37.9 30.2039 38.09C30.0739 38.28 30.0089 38.53 30.0089 38.84C30.0089 39.17 30.1089 39.44 30.3089 39.65C30.5089 39.85 30.7739 39.95 31.1039 39.95C31.3639 39.95 31.5839 39.895 31.7639 39.785C31.9439 39.665 32.0889 39.51 32.1989 39.32C32.3089 39.13 32.3889 38.925 32.4389 38.705C32.4889 38.475 32.5139 38.245 32.5139 38.015V37.37ZM32.5889 41L32.5439 39.965C32.2939 40.375 32.0139 40.68 31.7039 40.88C31.3939 41.07 30.9989 41.165 30.5189 41.165C30.1889 41.165 29.8889 41.11 29.6189 41C29.3589 40.89 29.1339 40.74 28.9439 40.55C28.7539 40.35 28.6039 40.12 28.4939 39.86C28.3939 39.59 28.3439 39.295 28.3439 38.975C28.3439 38.485 28.4539 38.075 28.6739 37.745C28.9039 37.405 29.1939 37.135 29.5439 36.935C29.9039 36.735 30.2989 36.595 30.7289 36.515C31.1589 36.425 31.5839 36.38 32.0039 36.38H32.5139V36.005C32.5139 35.575 32.4139 35.225 32.2139 34.955C32.0139 34.675 31.6489 34.535 31.1189 34.535C30.7989 34.535 30.4539 34.6 30.0839 34.73C29.7239 34.86 29.3889 35.03 29.0789 35.24L28.9889 33.86C29.3489 33.7 29.7239 33.57 30.1139 33.47C30.5039 33.37 30.9339 33.32 31.4039 33.32C31.9139 33.32 32.3439 33.385 32.6939 33.515C33.0539 33.635 33.3389 33.81 33.5489 34.04C33.7689 34.26 33.9289 34.535 34.0289 34.865C34.1289 35.185 34.1789 35.545 34.1789 35.945V39.35C34.1789 39.69 34.1839 39.99 34.1939 40.25C34.2039 40.51 34.2189 40.76 34.2389 41H32.5889ZM31.7189 32.27H30.6239L31.7339 30.23H33.0989L31.7189 32.27ZM39.9756 41L37.7706 37.205V41H36.0306V30.185H37.7706V36.515L39.8106 33.47H41.7306L39.3006 36.83L41.9406 41H39.9756ZM50.2671 40.925C50.0571 41.005 49.8271 41.065 49.5771 41.105C49.3371 41.145 49.1071 41.165 48.8871 41.165C48.2271 41.165 47.7521 40.99 47.4621 40.64C47.1721 40.28 47.0271 39.785 47.0271 39.155V34.775H45.9471V33.47H47.0571V31.88L48.7521 31.325V33.47H50.1921V34.775H48.7521V38.84C48.7521 39.13 48.7921 39.37 48.8721 39.56C48.9521 39.74 49.1621 39.83 49.5021 39.83C49.6321 39.83 49.7471 39.815 49.8471 39.785C49.9571 39.745 50.0671 39.695 50.1771 39.635L50.2671 40.925ZM55.3097 36.665C55.3097 36.445 55.2947 36.21 55.2647 35.96C55.2347 35.71 55.1747 35.475 55.0847 35.255C54.9947 35.035 54.8697 34.855 54.7097 34.715C54.5597 34.565 54.3597 34.49 54.1097 34.49C53.8697 34.49 53.6647 34.565 53.4947 34.715C53.3347 34.855 53.1997 35.035 53.0897 35.255C52.9897 35.475 52.9147 35.71 52.8647 35.96C52.8247 36.21 52.8047 36.445 52.8047 36.665H55.3097ZM52.8047 37.655C52.8047 37.945 52.8347 38.225 52.8947 38.495C52.9647 38.765 53.0747 39.01 53.2247 39.23C53.3747 39.45 53.5647 39.625 53.7947 39.755C54.0347 39.885 54.3247 39.95 54.6647 39.95C54.9947 39.95 55.3247 39.9 55.6547 39.8C55.9847 39.69 56.2897 39.55 56.5697 39.38L56.6597 40.745C56.3297 40.885 55.9747 40.99 55.5947 41.06C55.2147 41.13 54.8497 41.165 54.4997 41.165C53.8897 41.165 53.3697 41.065 52.9397 40.865C52.5097 40.665 52.1547 40.39 51.8747 40.04C51.6047 39.68 51.4047 39.26 51.2747 38.78C51.1547 38.29 51.0947 37.765 51.0947 37.205C51.0947 36.725 51.1547 36.255 51.2747 35.795C51.3947 35.325 51.5747 34.91 51.8147 34.55C52.0647 34.18 52.3747 33.885 52.7447 33.665C53.1247 33.435 53.5747 33.32 54.0947 33.32C54.6447 33.32 55.0997 33.435 55.4597 33.665C55.8297 33.885 56.1247 34.175 56.3447 34.535C56.5647 34.895 56.7197 35.305 56.8097 35.765C56.8997 36.215 56.9447 36.665 56.9447 37.115V37.655H52.8047ZM54.4697 32.27H53.3597L54.4697 30.23H55.8497L54.4697 32.27ZM62.1345 34.97C62.0545 34.95 61.9695 34.935 61.8795 34.925C61.7995 34.905 61.7195 34.895 61.6395 34.895C61.3395 34.895 61.0895 34.97 60.8895 35.12C60.6995 35.26 60.5445 35.445 60.4245 35.675C60.3145 35.895 60.2345 36.14 60.1845 36.41C60.1345 36.68 60.1095 36.935 60.1095 37.175V41H58.3695V35.33C58.3695 35.01 58.3645 34.7 58.3545 34.4C58.3445 34.1 58.3345 33.79 58.3245 33.47H59.9145L59.9445 34.715C60.1345 34.305 60.3845 33.97 60.6945 33.71C61.0145 33.45 61.4095 33.32 61.8795 33.32C61.9295 33.32 61.9845 33.325 62.0445 33.335C62.1145 33.345 62.1745 33.355 62.2245 33.365L62.1345 34.97Z" fill="white"/>
<defs>
<filter id="filter0_d_23_16897" x="0" y="0" width="76" height="76" filterUnits="userSpaceOnUse" color-interpolation-filters="sRGB">
<feFlood flood-opacity="0" result="BackgroundImageFix"/>
<feColorMatrix in="SourceAlpha" type="matrix" values="0 0 0 0 0 0 0 0 0 0 0 0 0 0 0 0 0 0 127 0" result="hardAlpha"/>
<feOffset/>
<feGaussianBlur stdDeviation="2"/>
<feComposite in2="hardAlpha" operator="out"/>
<feColorMatrix type="matrix" values="0 0 0 0 0 0 0 0 0 0 0 0 0 0 0 0 0 0 0.25 0"/>
<feBlend mode="normal" in2="BackgroundImageFix" result="effect1_dropShadow_23_16897"/>
<feBlend mode="normal" in="SourceGraphic" in2="effect1_dropShadow_23_16897" result="shape"/>
</filter>
</defs>
</svg>
