<svg width="100" height="100" viewBox="0 0 100 100" fill="none" xmlns="http://www.w3.org/2000/svg">
<g clip-path="url(#clip0_13_3286)">
<rect x="0.5" y="0.5" width="99" height="99" stroke="#ECECEC"/>
<rect y="40" width="21" height="20" fill="#ECECEC"/>
<rect x="60" width="21" height="20" transform="rotate(90 60 0)" fill="#ECECEC"/>
<rect x="60" y="79" width="21" height="20" transform="rotate(90 60 79)" fill="#ECECEC"/>
<rect x="79" y="40" width="21" height="20" fill="#ECECEC"/>
<rect x="-12.4263" y="98.2843" width="50" height="20" transform="rotate(-45 -12.4263 98.2843)" fill="#ECECEC"/>
<rect x="5.70148" y="-8.44064" width="48.5054" height="20" transform="rotate(45 5.70148 -8.44064)" fill="#ECECEC"/>
<rect x="77.5773" y="63.4351" width="40" height="20" transform="rotate(45 77.5773 63.4351)" fill="#ECECEC"/>
<rect x="63.4351" y="22.4228" width="40" height="20" transform="rotate(-45 63.4351 22.4228)" fill="#ECECEC"/>
<g filter="url(#filter0_d_13_3286)">
<circle cx="50" cy="50" r="31" fill="black"/>
<circle cx="50" cy="50" r="32.5" stroke="white" stroke-width="3"/>
</g>
<path d="M47.1743 39V34.9823H52.0901V39H47.1743ZM56.1078 26.7814C56.1078 27.3486 56.0054 27.8291 55.8006 28.223C55.5958 28.6169 55.3358 28.9714 55.0207 29.2866C54.7056 29.6017 54.3668 29.8932 54.0044 30.161C53.642 30.4289 53.3033 30.7125 52.9882 31.0118C52.6731 31.3112 52.4131 31.642 52.2083 32.0044C52.0034 32.3511 51.901 32.7686 51.901 33.257V33.5879H47.3634V33.2806C47.3634 32.5874 47.4343 32.0044 47.5761 31.5318C47.7336 31.0591 47.9227 30.6652 48.1433 30.3501C48.3796 30.035 48.6238 29.775 48.8759 29.5702C49.1438 29.3653 49.388 29.1841 49.6086 29.0266C49.8449 28.8533 50.034 28.68 50.1758 28.5066C50.3333 28.3176 50.4121 28.097 50.4121 27.8449C50.4121 27.6243 50.3333 27.451 50.1758 27.325C50.034 27.1989 49.8607 27.1123 49.6558 27.065C49.451 27.002 49.2304 26.9626 48.9941 26.9468C48.7735 26.9311 48.5844 26.9232 48.4269 26.9232C47.8754 26.9232 47.3161 26.9862 46.7489 27.1123C46.1974 27.2226 45.6617 27.388 45.1418 27.6086L45 23.8272C45.8351 23.5593 46.6386 23.3545 47.4106 23.2127C48.1984 23.0709 49.0335 23 49.9158 23C50.5145 23 51.1763 23.0551 51.901 23.1654C52.6258 23.26 53.2954 23.449 53.9099 23.7326C54.5401 24.0162 55.0601 24.4023 55.4697 24.8907C55.8951 25.3791 56.1078 26.0094 56.1078 26.7814Z" fill="white"/>
<path d="M66.764 56C66.764 56 70.1348 58.5281 75.5843 58.1348V58.8652C70.1348 58.4719 66.764 61 66.764 61C66.9513 60.3446 66.9888 59.5393 67.4382 58.8652C67.5281 58.7303 49.6479 58.809 40.6966 58.8652C38.2809 58.8803 36.2022 60.7753 36.2022 60.7753L23 60.6629C23.7682 59.7923 26.7776 58.6884 27.3035 58.5C26.7776 58.3116 23.7682 57.2077 23 56.3371L36.2022 56.2247C36.2022 56.2247 38.2809 58.1197 40.6966 58.1348C49.6479 58.191 67.5281 58.2697 67.4382 58.1348C66.9888 57.4607 66.9513 56.6554 66.764 56Z" fill="white"/>
<path d="M30.39 48.005C30.39 47.515 30.345 47.055 30.255 46.625C30.165 46.195 30.01 45.82 29.79 45.5C29.57 45.17 29.28 44.91 28.92 44.72C28.56 44.53 28.11 44.435 27.57 44.435H26.985V51.56H27.675C28.185 51.56 28.615 51.465 28.965 51.275C29.315 51.075 29.595 50.815 29.805 50.495C30.015 50.165 30.165 49.785 30.255 49.355C30.345 48.925 30.39 48.475 30.39 48.005ZM32.295 48.005C32.295 48.725 32.195 49.39 31.995 50C31.805 50.61 31.515 51.14 31.125 51.59C30.745 52.03 30.27 52.375 29.7 52.625C29.13 52.875 28.47 53 27.72 53H25.14V42.995H27.54C28.34 42.995 29.035 43.115 29.625 43.355C30.225 43.585 30.72 43.92 31.11 44.36C31.51 44.79 31.805 45.315 31.995 45.935C32.195 46.545 32.295 47.235 32.295 48.005ZM37.7491 48.665C37.7491 48.445 37.7341 48.21 37.7041 47.96C37.6741 47.71 37.6141 47.475 37.5241 47.255C37.4341 47.035 37.3091 46.855 37.1491 46.715C36.9991 46.565 36.7991 46.49 36.5491 46.49C36.3091 46.49 36.1041 46.565 35.9341 46.715C35.7741 46.855 35.6391 47.035 35.5291 47.255C35.4291 47.475 35.3541 47.71 35.3041 47.96C35.2641 48.21 35.2441 48.445 35.2441 48.665H37.7491ZM35.2441 49.655C35.2441 49.945 35.2741 50.225 35.3341 50.495C35.4041 50.765 35.5141 51.01 35.6641 51.23C35.8141 51.45 36.0041 51.625 36.2341 51.755C36.4741 51.885 36.7641 51.95 37.1041 51.95C37.4341 51.95 37.7641 51.9 38.0941 51.8C38.4241 51.69 38.7291 51.55 39.0091 51.38L39.0991 52.745C38.7691 52.885 38.4141 52.99 38.0341 53.06C37.6541 53.13 37.2891 53.165 36.9391 53.165C36.3291 53.165 35.8091 53.065 35.3791 52.865C34.9491 52.665 34.5941 52.39 34.3141 52.04C34.0441 51.68 33.8441 51.26 33.7141 50.78C33.5941 50.29 33.5341 49.765 33.5341 49.205C33.5341 48.725 33.5941 48.255 33.7141 47.795C33.8341 47.325 34.0141 46.91 34.2541 46.55C34.5041 46.18 34.8141 45.885 35.1841 45.665C35.5641 45.435 36.0141 45.32 36.5341 45.32C37.0841 45.32 37.5391 45.435 37.8991 45.665C38.2691 45.885 38.5641 46.175 38.7841 46.535C39.0041 46.895 39.1591 47.305 39.2491 47.765C39.3391 48.215 39.3841 48.665 39.3841 49.115V49.655H35.2441ZM44.5139 49.37H44.2589C43.9889 49.37 43.7189 49.39 43.4489 49.43C43.1889 49.47 42.9489 49.545 42.7289 49.655C42.5189 49.755 42.3439 49.9 42.2039 50.09C42.0739 50.28 42.0089 50.53 42.0089 50.84C42.0089 51.17 42.1089 51.44 42.3089 51.65C42.5089 51.85 42.7739 51.95 43.1039 51.95C43.3639 51.95 43.5839 51.895 43.7639 51.785C43.9439 51.665 44.0889 51.51 44.1989 51.32C44.3089 51.13 44.3889 50.925 44.4389 50.705C44.4889 50.475 44.5139 50.245 44.5139 50.015V49.37ZM44.5889 53L44.5439 51.965C44.2939 52.375 44.0139 52.68 43.7039 52.88C43.3939 53.07 42.9989 53.165 42.5189 53.165C42.1889 53.165 41.8889 53.11 41.6189 53C41.3589 52.89 41.1339 52.74 40.9439 52.55C40.7539 52.35 40.6039 52.12 40.4939 51.86C40.3939 51.59 40.3439 51.295 40.3439 50.975C40.3439 50.485 40.4539 50.075 40.6739 49.745C40.9039 49.405 41.1939 49.135 41.5439 48.935C41.9039 48.735 42.2989 48.595 42.7289 48.515C43.1589 48.425 43.5839 48.38 44.0039 48.38H44.5139V48.005C44.5139 47.575 44.4139 47.225 44.2139 46.955C44.0139 46.675 43.6489 46.535 43.1189 46.535C42.7989 46.535 42.4539 46.6 42.0839 46.73C41.7239 46.86 41.3889 47.03 41.0789 47.24L40.9889 45.86C41.3489 45.7 41.7239 45.57 42.1139 45.47C42.5039 45.37 42.9339 45.32 43.4039 45.32C43.9139 45.32 44.3439 45.385 44.6939 45.515C45.0539 45.635 45.3389 45.81 45.5489 46.04C45.7689 46.26 45.9289 46.535 46.0289 46.865C46.1289 47.185 46.1789 47.545 46.1789 47.945V51.35C46.1789 51.69 46.1839 51.99 46.1939 52.25C46.2039 52.51 46.2189 52.76 46.2389 53H44.5889ZM43.7189 44.27H42.6239L43.7339 42.23H45.0989L43.7189 44.27ZM51.9756 53L49.7706 49.205V53H48.0306V42.185H49.7706V48.515L51.8106 45.47H53.7306L51.3006 48.83L53.9406 53H51.9756ZM62.2671 52.925C62.0571 53.005 61.8271 53.065 61.5771 53.105C61.3371 53.145 61.1071 53.165 60.8871 53.165C60.2271 53.165 59.7521 52.99 59.4621 52.64C59.1721 52.28 59.0271 51.785 59.0271 51.155V46.775H57.9471V45.47H59.0571V43.88L60.7521 43.325V45.47H62.1921V46.775H60.7521V50.84C60.7521 51.13 60.7921 51.37 60.8721 51.56C60.9521 51.74 61.1621 51.83 61.5021 51.83C61.6321 51.83 61.7471 51.815 61.8471 51.785C61.9571 51.745 62.0671 51.695 62.1771 51.635L62.2671 52.925ZM67.3097 48.665C67.3097 48.445 67.2947 48.21 67.2647 47.96C67.2347 47.71 67.1747 47.475 67.0847 47.255C66.9947 47.035 66.8697 46.855 66.7097 46.715C66.5597 46.565 66.3597 46.49 66.1097 46.49C65.8697 46.49 65.6647 46.565 65.4947 46.715C65.3347 46.855 65.1997 47.035 65.0897 47.255C64.9897 47.475 64.9147 47.71 64.8647 47.96C64.8247 48.21 64.8047 48.445 64.8047 48.665H67.3097ZM64.8047 49.655C64.8047 49.945 64.8347 50.225 64.8947 50.495C64.9647 50.765 65.0747 51.01 65.2247 51.23C65.3747 51.45 65.5647 51.625 65.7947 51.755C66.0347 51.885 66.3247 51.95 66.6647 51.95C66.9947 51.95 67.3247 51.9 67.6547 51.8C67.9847 51.69 68.2897 51.55 68.5697 51.38L68.6597 52.745C68.3297 52.885 67.9747 52.99 67.5947 53.06C67.2147 53.13 66.8497 53.165 66.4997 53.165C65.8897 53.165 65.3697 53.065 64.9397 52.865C64.5097 52.665 64.1547 52.39 63.8747 52.04C63.6047 51.68 63.4047 51.26 63.2747 50.78C63.1547 50.29 63.0947 49.765 63.0947 49.205C63.0947 48.725 63.1547 48.255 63.2747 47.795C63.3947 47.325 63.5747 46.91 63.8147 46.55C64.0647 46.18 64.3747 45.885 64.7447 45.665C65.1247 45.435 65.5747 45.32 66.0947 45.32C66.6447 45.32 67.0997 45.435 67.4597 45.665C67.8297 45.885 68.1247 46.175 68.3447 46.535C68.5647 46.895 68.7197 47.305 68.8097 47.765C68.8997 48.215 68.9447 48.665 68.9447 49.115V49.655H64.8047ZM66.4697 44.27H65.3597L66.4697 42.23H67.8497L66.4697 44.27ZM74.1345 46.97C74.0545 46.95 73.9695 46.935 73.8795 46.925C73.7995 46.905 73.7195 46.895 73.6395 46.895C73.3395 46.895 73.0895 46.97 72.8895 47.12C72.6995 47.26 72.5445 47.445 72.4245 47.675C72.3145 47.895 72.2345 48.14 72.1845 48.41C72.1345 48.68 72.1095 48.935 72.1095 49.175V53H70.3695V47.33C70.3695 47.01 70.3645 46.7 70.3545 46.4C70.3445 46.1 70.3345 45.79 70.3245 45.47H71.9145L71.9445 46.715C72.1345 46.305 72.3845 45.97 72.6945 45.71C73.0145 45.45 73.4095 45.32 73.8795 45.32C73.9295 45.32 73.9845 45.325 74.0445 45.335C74.1145 45.345 74.1745 45.355 74.2245 45.365L74.1345 46.97Z" fill="white"/>
</g>
<defs>
<filter id="filter0_d_13_3286" x="12" y="12" width="76" height="76" filterUnits="userSpaceOnUse" color-interpolation-filters="sRGB">
<feFlood flood-opacity="0" result="BackgroundImageFix"/>
<feColorMatrix in="SourceAlpha" type="matrix" values="0 0 0 0 0 0 0 0 0 0 0 0 0 0 0 0 0 0 127 0" result="hardAlpha"/>
<feOffset/>
<feGaussianBlur stdDeviation="2"/>
<feComposite in2="hardAlpha" operator="out"/>
<feColorMatrix type="matrix" values="0 0 0 0 0 0 0 0 0 0 0 0 0 0 0 0 0 0 0.25 0"/>
<feBlend mode="normal" in2="BackgroundImageFix" result="effect1_dropShadow_13_3286"/>
<feBlend mode="normal" in="SourceGraphic" in2="effect1_dropShadow_13_3286" result="shape"/>
</filter>
<clipPath id="clip0_13_3286">
<rect width="100" height="100" fill="white"/>
</clipPath>
</defs>
</svg>
