<svg width="39" height="33" viewBox="0 0 39 33" fill="none" xmlns="http://www.w3.org/2000/svg">
<rect y="4.09082" width="34" height="28.9091" fill="#C4E9FB"/>
<path d="M9.73113 18.0754C9.73113 17.7018 9.66885 17.3787 9.54431 17.1063C9.41977 16.8261 9.24853 16.5965 9.03058 16.4174C8.81263 16.2306 8.55576 16.0905 8.25997 15.9971C7.96419 15.9037 7.64116 15.857 7.29088 15.857H6.24006L4.89734 22.1736H5.53951C6.92504 22.1736 7.96808 21.8428 8.66863 21.1812C9.37696 20.5117 9.73113 19.4765 9.73113 18.0754ZM10.6652 18.017C10.6652 18.7798 10.5562 19.4648 10.3383 20.072C10.1281 20.6713 9.81675 21.1812 9.4042 21.6015C8.99944 22.0218 8.49738 22.3448 7.89802 22.5706C7.30645 22.7963 6.62925 22.9092 5.86643 22.9092H3.82317L5.48113 15.1214H7.51272C7.9564 15.1214 8.36895 15.1876 8.75036 15.3199C9.13955 15.4444 9.47426 15.6313 9.75448 15.8803C10.0347 16.1216 10.2565 16.4252 10.42 16.7911C10.5835 17.1491 10.6652 17.5578 10.6652 18.017ZM16.0192 21.5314C15.9725 21.7572 15.9297 21.9868 15.8908 22.2203C15.8518 22.4538 15.8207 22.6834 15.7973 22.9092H15.0151L15.1785 21.8467C14.9139 22.2203 14.6259 22.5122 14.3145 22.7224C14.0109 22.9325 13.6218 23.0376 13.1469 23.0376C12.6721 23.0376 12.2907 22.9014 12.0027 22.629C11.7147 22.3565 11.5707 21.9868 11.5707 21.5198C11.5707 21.4108 11.5785 21.2979 11.5941 21.1812C11.6096 21.0644 11.6291 20.9438 11.6524 20.8192L12.4347 17.0713H13.2987L12.5515 20.5974C12.5281 20.7219 12.5048 20.8465 12.4814 20.971C12.4658 21.0878 12.4581 21.2006 12.4581 21.3096C12.4581 21.5898 12.532 21.8311 12.6799 22.0335C12.8356 22.2359 13.1002 22.3371 13.4739 22.3371C13.7619 22.3371 14.0148 22.2787 14.2328 22.1619C14.4507 22.0452 14.6376 21.8934 14.7932 21.7066C14.9567 21.512 15.0851 21.294 15.1785 21.0527C15.2797 20.8114 15.3576 20.5662 15.412 20.3171L16.0892 17.0713H16.9533L16.0192 21.5314ZM22.8875 18.4724C22.8875 18.6981 22.8602 18.9316 22.8058 19.1729L22.0235 22.9092H21.1711L21.9067 19.3831C21.9301 19.2585 21.9534 19.1379 21.9768 19.0211C22.0001 18.8966 22.0118 18.7798 22.0118 18.6709C22.0118 18.3906 21.934 18.1532 21.7783 17.9586C21.6226 17.764 21.358 17.6667 20.9843 17.6667C20.6963 17.6667 20.4395 17.7251 20.2137 17.8419C19.9958 17.9509 19.809 18.0987 19.6533 18.2856C19.4976 18.4724 19.3692 18.6864 19.268 18.9277C19.1668 19.169 19.089 19.4142 19.0345 19.6633L18.3456 22.9092H17.4933L18.4156 18.4607C18.4624 18.235 18.5052 18.0092 18.5441 17.7835C18.5908 17.55 18.6258 17.3204 18.6492 17.0946H19.4314L19.268 18.1338C19.5482 17.7601 19.844 17.476 20.1553 17.2814C20.4667 17.0791 20.8598 16.9779 21.3346 16.9779C21.8094 16.9779 22.1869 17.1102 22.4672 17.3748C22.7474 17.6395 22.8875 18.0053 22.8875 18.4724ZM28.5293 17.7485C28.4203 17.7096 28.3074 17.6862 28.1907 17.6784C28.0739 17.6628 27.9572 17.6551 27.8404 17.6551C27.4045 17.6551 26.9997 17.7601 26.6261 17.9703C26.2603 18.1805 25.9372 18.4529 25.657 18.7876C25.3846 19.1145 25.1705 19.4882 25.0149 19.9085C24.8592 20.321 24.7813 20.7297 24.7813 21.1345C24.7813 21.2979 24.7969 21.4536 24.828 21.6015C24.8592 21.7416 24.9098 21.87 24.9798 21.9868C25.0577 22.0958 25.1589 22.1814 25.2834 22.2437C25.4157 22.3059 25.5792 22.3371 25.7738 22.3371C26.0073 22.3371 26.2447 22.267 26.486 22.1269C26.7273 21.979 26.953 21.7805 27.1632 21.5314C27.3734 21.2746 27.5602 20.9788 27.7236 20.6441C27.8871 20.3094 28.0155 19.9474 28.1089 19.5582L28.5293 17.7485ZM28.7978 20.3405C28.6733 20.8854 28.5838 21.3796 28.5293 21.8233C28.4748 22.267 28.4514 22.629 28.4592 22.9092H27.6186C27.6263 22.7535 27.6458 22.5394 27.6769 22.267C27.7081 21.9946 27.7548 21.6949 27.817 21.368C27.7314 21.5392 27.6186 21.7221 27.4784 21.9167C27.3461 22.1113 27.1827 22.2943 26.9881 22.4655C26.8013 22.629 26.5794 22.7652 26.3225 22.8742C26.0657 22.9831 25.7777 23.0376 25.4585 23.0376C25.2017 23.0376 24.9759 22.9948 24.7813 22.9092C24.5867 22.8158 24.4233 22.6873 24.291 22.5239C24.1586 22.3604 24.0574 22.1697 23.9874 21.9518C23.9251 21.726 23.894 21.4808 23.894 21.2162C23.894 20.648 24.0029 20.107 24.2209 19.5932C24.4466 19.0795 24.7463 18.628 25.1199 18.2389C25.5013 17.8497 25.9411 17.5422 26.4393 17.3165C26.9453 17.083 27.4784 16.9662 28.0389 16.9662C28.3035 16.9662 28.5682 16.9857 28.8328 17.0246C29.1053 17.0557 29.331 17.1024 29.51 17.1647L28.7978 20.3405Z" fill="#00ADEF"/>
<circle cx="32" cy="7" r="7" fill="#ED342A"/>
<path d="M29.0953 10C29.0128 10 28.9416 9.97375 28.8816 9.92125C28.8291 9.86875 28.8028 9.80125 28.8028 9.71875V8.92C28.8028 8.8675 28.8178 8.78875 28.8478 8.68375C28.8778 8.57125 28.9566 8.46625 29.0841 8.36875L30.2541 7.22125C30.8541 6.76375 31.3453 6.3775 31.7278 6.0625C32.1178 5.74 32.4066 5.455 32.5941 5.2075C32.7816 4.96 32.8753 4.7275 32.8753 4.51C32.8753 4.255 32.8078 4.045 32.6728 3.88C32.5453 3.7075 32.3203 3.62125 31.9978 3.62125C31.7803 3.62125 31.5966 3.67 31.4466 3.7675C31.3041 3.8575 31.1953 3.9775 31.1203 4.1275C31.0453 4.2775 30.9928 4.43125 30.9628 4.58875C30.9328 4.68625 30.8803 4.75375 30.8053 4.79125C30.7378 4.82875 30.6628 4.8475 30.5803 4.8475H29.1741C29.1066 4.8475 29.0503 4.825 29.0053 4.78C28.9603 4.735 28.9378 4.67875 28.9378 4.61125C28.9453 4.25125 29.0203 3.91375 29.1628 3.59875C29.3128 3.28375 29.5191 3.00625 29.7816 2.76625C30.0516 2.51875 30.3703 2.3275 30.7378 2.1925C31.1128 2.0575 31.5328 1.99 31.9978 1.99C32.6353 1.99 33.1753 2.09125 33.6178 2.29375C34.0678 2.49625 34.4091 2.78125 34.6416 3.14875C34.8741 3.50875 34.9903 3.9325 34.9903 4.42C34.9903 4.7875 34.9078 5.1325 34.7428 5.455C34.5853 5.77 34.3566 6.07375 34.0566 6.36625C33.7641 6.65125 33.4153 6.9475 33.0103 7.255L31.9753 8.30125H34.8666C34.9491 8.30125 35.0166 8.3275 35.0691 8.38C35.1291 8.4325 35.1591 8.5 35.1591 8.5825V9.71875C35.1591 9.80125 35.1291 9.86875 35.0691 9.92125C35.0166 9.97375 34.9491 10 34.8666 10H29.0953Z" fill="white"/>
</svg>
