<svg width="36" height="36" viewBox="0 0 36 36" fill="none" xmlns="http://www.w3.org/2000/svg">
<path d="M6.11959e-07 25L36 25M0 11L36 11" stroke="white" stroke-width="3"/>
<path d="M11 0L11 36M25 0L25 36" stroke="white" stroke-width="3"/>
<path d="M28 28L30 28L30 35H28L28 28Z" fill="white"/>
<path d="M28 30L28 28H35L35 30L28 30Z" fill="white"/>
<path d="M28 8L28 6L35 6L35 8L28 8Z" fill="white"/>
<path d="M30 8L28 8L28 1L30 0.999999L30 8Z" fill="white"/>
<path d="M8 8L6 8L6 1L8 1L8 8Z" fill="white"/>
<path d="M8 6L8 8L1 8L0.999999 6L8 6Z" fill="white"/>
<path d="M8 28L8 30L1 30L1 28L8 28Z" fill="white"/>
<path d="M6 28L8 28L8 35L6 35L6 28Z" fill="white"/>
</svg>
