<svg width="33" height="32" viewBox="0 0 33 32" fill="none" xmlns="http://www.w3.org/2000/svg">
<path d="M26.5 17.5C26.5 24.4036 20.9036 30 14 30C7.09644 30 1.5 24.4036 1.5 17.5C1.5 10.5964 7.09644 5 14 5C20.9036 5 26.5 10.5964 26.5 17.5Z" fill="black"/>
<path d="M25 17.5C25 11.4249 20.0751 6.5 14 6.5C7.92487 6.5 3 11.4249 3 17.5C3 23.5751 7.92487 28.5 14 28.5C20.0751 28.5 25 23.5751 25 17.5ZM28 17.5C28 25.232 21.732 31.5 14 31.5C6.26801 31.5 0 25.232 0 17.5C0 9.76801 6.26801 3.5 14 3.5C21.732 3.5 28 9.76801 28 17.5Z" fill="white"/>
<path d="M27.9052 8C27.7962 8 27.7069 7.96504 27.6375 7.89513C27.5682 7.82522 27.5335 7.73533 27.5335 7.62547V4.8839H24.8866C24.7776 4.8839 24.6834 4.84894 24.6041 4.77903C24.5347 4.70911 24.5 4.61923 24.5 4.50936V3.41573C24.5 3.30587 24.5347 3.21598 24.6041 3.14607C24.6834 3.07615 24.7776 3.0412 24.8866 3.0412H27.5335V0.374531C27.5335 0.264669 27.5682 0.174782 27.6375 0.104869C27.7069 0.0349564 27.7962 0 27.9052 0H29.1245C29.2237 0 29.3079 0.0349564 29.3773 0.104869C29.4566 0.174782 29.4963 0.264669 29.4963 0.374531V3.0412H32.1283C32.2373 3.0412 32.3265 3.07615 32.3959 3.14607C32.4653 3.21598 32.5 3.30587 32.5 3.41573V4.50936C32.5 4.61923 32.4653 4.70911 32.3959 4.77903C32.3265 4.84894 32.2373 4.8839 32.1283 4.8839H29.4963V7.62547C29.4963 7.73533 29.4566 7.82522 29.3773 7.89513C29.3079 7.96504 29.2237 8 29.1245 8H27.9052Z" fill="white"/>
</svg>
