<svg width="23" height="23" viewBox="0 0 23 23" fill="none" xmlns="http://www.w3.org/2000/svg">
<path d="M22.5 11.25C22.5 17.4632 17.4632 22.5 11.25 22.5C5.0368 22.5 0 17.4632 0 11.25C0 5.0368 5.0368 0 11.25 0C17.4632 0 22.5 5.0368 22.5 11.25Z" fill="white"/>
<path fill-rule="evenodd" clip-rule="evenodd" d="M10.4383 1.00791C8.03126 1.1928 5.78818 2.21555 4.07208 3.91059C2.53984 5.42403 1.60323 7.13692 1.14731 9.25931C0.937574 10.2361 0.919865 12.1495 1.11175 13.1187C1.53779 15.2712 2.45509 16.9728 4.02835 18.5294C5.57495 20.0596 7.07519 20.8787 9.18526 21.3446C10.1757 21.5634 12.1383 21.5829 13.1316 21.3841C15.2126 20.9672 16.9586 20.0339 18.4733 18.5284C20.2789 16.734 21.2835 14.5809 21.4872 12.0697C21.7927 8.30055 20.0064 4.69927 16.7948 2.60981C14.9549 1.41274 12.6684 0.836574 10.4383 1.00791ZM13.9136 3.54803C13.9136 3.83159 13.9098 3.8356 13.6178 3.85776L13.322 3.88013L12.6864 5.33767L11.5087 5.38001V6.10287H12.7512C13.7509 6.10287 14.0393 6.1259 14.227 6.22072C14.4964 6.35685 14.7719 6.5945 14.8689 6.77451C14.9059 6.84323 15.0669 7.80746 15.2266 8.91716C15.4889 10.74 15.5168 11.0761 15.5163 12.3995C15.5155 14.5156 15.3389 15.176 14.6719 15.5575C14.3895 15.719 14.3627 15.7202 11.2324 15.7214C8.23502 15.7225 8.06354 15.7155 7.79594 15.5789C7.1211 15.2346 7.04983 14.9662 7.01178 12.6253L6.98103 10.7306L7.27123 8.78241C7.59393 6.61658 7.62789 6.52206 8.17985 6.25489C8.4597 6.11942 8.62608 6.10287 9.70976 6.10287H10.9256V5.3741L9.72317 5.37272L9.08346 3.84369H8.80208C8.52238 3.84369 8.5207 3.84194 8.5207 3.55218V3.26068H13.9136V3.54803ZM9.75961 3.91445C9.75961 3.95344 9.84014 4.16748 9.93866 4.39012L10.1177 4.79495L12.3239 4.75465L12.4993 4.32322C12.5958 4.08593 12.6747 3.881 12.6747 3.86774C12.6747 3.85455 12.0188 3.84369 11.2171 3.84369C10.3226 3.84369 9.75961 3.87102 9.75961 3.91445ZM10.8859 6.93768C10.5117 7.31183 10.7541 7.8818 11.2687 7.83785C11.811 7.7915 11.9775 7.11054 11.5062 6.86684C11.2161 6.71679 11.0927 6.73085 10.8859 6.93768ZM8.13664 8.56247C8.05844 8.64904 7.97966 9.03755 7.89119 9.77281C7.76373 10.8326 7.76395 10.8578 7.89972 10.9571C8.01326 11.0401 8.62214 11.0585 11.2562 11.0585C14.2861 11.0585 14.4811 11.0507 14.5951 10.9246C14.7082 10.7997 14.7066 10.7181 14.5712 9.70394C14.4613 8.88159 14.3957 8.59497 14.3016 8.52603C14.2069 8.45665 13.4698 8.43493 11.2145 8.43493C8.48536 8.43493 8.24267 8.44499 8.13664 8.56247ZM8.44221 13.3121C8.20441 13.5499 8.17147 13.7963 8.33508 14.1127C8.54664 14.5218 9.08805 14.5789 9.43793 14.229C9.83933 13.8275 9.50643 13.099 8.92152 13.099C8.72439 13.099 8.59992 13.1544 8.44221 13.3121ZM13.0771 13.263C12.9641 13.3612 12.8711 13.5359 12.8452 13.6983C12.8067 13.9404 12.8307 13.9984 13.0682 14.2359C13.3057 14.4734 13.3637 14.4975 13.6058 14.4589C13.9655 14.4017 14.2051 14.1241 14.2051 13.7645C14.2051 13.1934 13.512 12.8852 13.0771 13.263ZM9.32234 16.1331C9.32234 16.1586 9.08703 16.6341 8.79945 17.1898L8.27656 18.2004H7.56055C7.16672 18.2004 6.84453 18.1799 6.84453 18.155C6.84453 18.1299 7.21205 17.6544 7.66126 17.0982L8.47799 16.087H8.90017C9.13235 16.087 9.32234 16.1078 9.32234 16.1331ZM14.8063 17.07C15.2372 17.6062 15.5898 18.0799 15.5898 18.1227C15.5898 18.1722 15.3411 18.2004 14.9033 18.2004H14.2168L13.7009 17.2227C13.417 16.685 13.1848 16.2094 13.1848 16.166C13.1848 16.118 13.349 16.0885 13.6039 16.091L14.0229 16.0949L14.8063 17.07Z" fill="#0067AF"/>
</svg>
